SplineFontDB: 3.2
FontName: Angelarium
FullName: Angelarium
FamilyName: Angelarium
Weight: Regular
Copyright: 
Version: 1
ItalicAngle: 0
UnderlinePosition: -740
UnderlineWidth: 240
Ascent: 1638
Descent: 410
InvalidEm: 0
sfntRevision: 0x00010000
LayerCount: 2
Layer: 0 1 "Back" 1
Layer: 1 1 "Fore" 0
XUID: [1021 497 -1877248868 11783585]
StyleMap: 0x0040
FSType: 4
OS2Version: 3
OS2_WeightWidthSlopeOnly: 0
OS2_UseTypoMetrics: 0
CreationTime: 1500490800
ModificationTime: 1666734566
PfmFamily: 81
TTFWeight: 400
TTFWidth: 5
LineGap: 410
VLineGap: 0
Panose: 0 0 0 0 0 0 0 0 0 0
OS2TypoAscent: 3900
OS2TypoAOffset: 0
OS2TypoDescent: -988
OS2TypoDOffset: 0
OS2TypoLinegap: 410
OS2WinAscent: 3900
OS2WinAOffset: 0
OS2WinDescent: 988
OS2WinDOffset: 0
HheadAscent: 3900
HheadAOffset: 0
HheadDescent: -988
HheadDOffset: 0
OS2SubXSize: 2662
OS2SubYSize: 2456
OS2SubXOff: 0
OS2SubYOff: 306
OS2SupXSize: 2662
OS2SupYSize: 2456
OS2SupXOff: 0
OS2SupYOff: 1432
OS2StrikeYSize: 240
OS2StrikeYPos: 1248
OS2CapHeight: 2886
OS2XHeight: 2080
OS2Vendor: 'PYRS'
OS2CodePages: 00000001.00000000
OS2UnicodeRanges: 00000001.00000000.00000000.00000000
Lookup: 258 0 0 "'kern' Horizontal Kerning in Latin lookup 0" { "'kern' Horizontal Kerning in Latin lookup 0 subtable" [150,15,3] } ['kern' ('DFLT' <'dflt' > 'latn' <'dflt' > ) ]
MarkAttachClasses: 1
DEI: 91125
TtTable: prep
PUSHW_1
 10
CALL
SVTCA[x-axis]
PUSHW_3
 2
 11
 12
CALL
SVTCA[x-axis]
PUSHW_8
 12
 110
 90
 70
 50
 30
 0
 18
CALL
SVTCA[y-axis]
PUSHW_8
 11
 110
 90
 70
 50
 30
 0
 18
CALL
SVTCA[y-axis]
PUSHW_3
 13
 3
 17
CALL
PUSHW_1
 10
DUP
RCVT
RDTG
ROUND[Black]
RTG
WCVTP
PUSHW_1
 0
CALL
SVTCA[x-axis]
PUSHW_3
 1
 1
 2
CALL
SVTCA[x-axis]
PUSHW_8
 1
 110
 90
 70
 50
 30
 0
 8
CALL
SVTCA[y-axis]
PUSHW_3
 2
 4
 7
CALL
PUSHW_1
 0
DUP
RCVT
RDTG
ROUND[Black]
RTG
WCVTP
EndTTInstrs
TtTable: fpgm
PUSHW_1
 0
FDEF
MPPEM
PUSHW_1
 9
LT
IF
PUSHB_2
 1
 1
INSTCTRL
EIF
PUSHW_1
 511
SCANCTRL
PUSHW_1
 68
SCVTCI
PUSHW_2
 9
 3
SDS
SDB
ENDF
PUSHW_1
 1
FDEF
DUP
DUP
RCVT

StartChar: .notdef
Encoding: 65536 -1 0
Width: 1024
GlyphClass: 1
Flags: W
LayerCount: 2
Fore
SplineSet
130 0 m 1,0,-1
 130 1374 l 1,1,-1
 898 1374 l 1,2,-1
 898 0 l 1,3,-1
 130 0 l 1,4,-1
 130 0 l 1,0,-1
256 130 m 1,5,-1
 768 130 l 1,6,-1
 768 1248 l 1,7,-1
 256 1248 l 1,8,-1
 256 130 l 1,9,-1
 256 130 l 1,5,-1
EndSplineSet
EndChar

StartChar: D
Encoding: 68 68 4
Width: 1398
GlyphClass: 1
Flags: W
LayerCount: 2
Fore
SplineSet
1314 886.995097764 m 2,0,1
 1345.39675222 886.995097764 1345.39675222 886.995097764 1367.19592499 865.19940866 c 128,-1,2
 1388.99509776 843.403719557 1388.99509776 843.403719557 1388.99509776 812.52173913 c 128,-1,3
 1388.99509776 781.639758704 1388.99509776 781.639758704 1366.67766953 759.32233047 c 128,-1,4
 1344.3602413 737.004902236 1344.3602413 737.004902236 1314 737.004902236 c 2,5,-1
 576.995097764 737.004902236 l 1,6,-1
 576.995097764 96.1154913383 l 1,7,-1
 1320.12744538 -241.137183569 l 2,8,9
 1333.69469383 -247.006021434 1333.69469383 -247.006021434 1343.45544731 -256.766774915 c 0,10,11
 1363.06050492 -276.371832531 1363.06050492 -276.371832531 1364.95164501 -308.521214017 c 0,12,13
 1364.99554901 -308.955928569 1364.99554901 -308.955928569 1364.99554901 -309.43194014 c 128,-1,14
 1364.99554901 -309.907951711 1364.99554901 -309.907951711 1364.99509776 -310 c 0,15,16
 1364.99509776 -342.875290478 1364.99509776 -342.875290478 1342.42740218 -363.935194121 c 128,-1,17
 1319.85970659 -384.995097764 1319.85970659 -384.995097764 1290 -384.995097764 c 0,18,19
 1282.90336771 -384.995097764 1282.90336771 -384.995097764 1272.30726754 -382.346072723 c 128,-1,20
 1261.71116738 -379.697047682 1261.71116738 -379.697047682 1259.65601003 -378.764542827 c 2,21,-1
 -318.128074185 337.137487782 l 2,22,23
 -330.977521011 342.699105029 -330.977521011 342.699105029 -340.257551186 351.979135204 c 0,24,25
 -360.995097764 372.716681781 -360.995097764 372.716681781 -360.995097764 408 c 0,26,27
 -360.995097764 438.360241296 -360.995097764 438.360241296 -339.67766953 459.67766953 c 128,-1,28
 -318.360241296 480.995097764 -318.360241296 480.995097764 -284 480.995097764 c 0,29,30
 -266.3834856 480.995097764 -266.3834856 480.995097764 -253.27535277 474.591249845 c 2,31,-1
 427.004902236 164.854709157 l 1,32,-1
 427.004902236 812 l 2,33,34
 427.004902236 847.869675258 427.004902236 847.869675258 446.604737215 867.469510237 c 128,-1,35
 466.204572194 887.069345216 466.204572194 887.069345216 500.192263063 887.069345216 c 0,36,37
 502.296613349 887.069345216 502.296613349 887.069345216 504.45700718 886.995097764 c 2,38,-1
 1314 886.995097764 l 2,0,1
EndSplineSet
EndChar

StartChar: E
Encoding: 69 69 5
Width: 1844
GlyphClass: 1
Flags: W
LayerCount: 2
Fore
SplineSet
2471.82288567 897.069977765 m 0,0,1
 2505.79479526 897.069977765 2505.79479526 897.069977765 2525.39494651 877.469826511 c 128,-1,2
 2544.99509776 857.869675258 2544.99509776 857.869675258 2544.99509776 821.754716981 c 128,-1,3
 2544.99509776 785.639758704 2544.99509776 785.639758704 2524.67766953 765.32233047 c 128,-1,4
 2504.3602413 745.004902236 2504.3602413 745.004902236 2468 745.004902236 c 2,5,-1
 1670.99509776 745.004902236 l 1,6,-1
 1670.99509776 52 l 2,7,8
 1670.99509776 15.1299547826 1670.99509776 15.1299547826 1650.93257149 -4.93257149045 c 128,-1,9
 1630.87004522 -24.9950977635 1630.87004522 -24.9950977635 1596 -24.9950977635 c 0,10,11
 1563.48591255 -24.9950977635 1563.48591255 -24.9950977635 1541.24540739 -2.75459260659 c 128,-1,12
 1519.00490224 19.4859125503 1519.00490224 19.4859125503 1519.00490224 52 c 2,13,-1
 1519.00490224 822 l 2,14,15
 1519.00490224 966.738223528 1519.00490224 966.738223528 1463.99539878 1092.19849458 c 128,-1,16
 1408.98589532 1217.65876562 1408.98589532 1217.65876562 1314.32233047 1312.32233047 c 128,-1,17
 1219.74298645 1406.90167449 1219.74298645 1406.90167449 1093.30081828 1460.95328836 c 128,-1,18
 966.858650111 1515.00490224 966.858650111 1515.00490224 827.018071878 1515.00490224 c 128,-1,19
 687.177493644 1515.00490224 687.177493644 1515.00490224 561.699650734 1460.95290837 c 0,20,21
 434.501445843 1406.15983549 434.501445843 1406.15983549 339.30841449 1310.9667891 c 128,-1,22
 244.115383137 1215.77374271 244.115383137 1215.77374271 187.55524045 1090.19105301 c 128,-1,23
 130.995097764 964.608363319 130.995097764 964.608363319 130.995097764 822 c 0,24,25
 130.995097764 785.129954783 130.995097764 785.129954783 110.93257149 765.06742851 c 128,-1,26
 90.8700452174 745.004902236 90.8700452174 745.004902236 55.2549019608 745.004902236 c 128,-1,27
 19.6397587042 745.004902236 19.6397587042 745.004902236 -0.677669529664 765.32233047 c 128,-1,28
 -20.9950977635 785.639758704 -20.9950977635 785.639758704 -20.9950977635 822 c 0,29,30
 -20.9950977635 997.237491848 -20.9950977635 997.237491848 45.9869183918 1150.78088273 c 128,-1,31
 112.968934547 1304.32427361 112.968934547 1304.32427361 228.32233047 1419.67766953 c 128,-1,32
 343.727206415 1535.08254547 343.727206415 1535.08254547 497.281661814 1601.03882162 c 128,-1,33
 650.836117213 1666.99509776 650.836117213 1666.99509776 822.874835195 1666.99509776 c 128,-1,34
 994.913553177 1666.99509776 994.913553177 1666.99509776 1144.3382307 1606.19471174 c 0,35,36
 1304.97966423 1540.83026637 1304.97966423 1540.83026637 1425.28462354 1420.52641172 c 0,37,38
 1527.80198891 1318.00904635 1527.80198891 1318.00904635 1591.78586781 1184.31138896 c 128,-1,39
 1655.7697467 1050.61373156 1655.7697467 1050.61373156 1669.20032059 896.995097764 c 1,40,-1
 2467.54187095 896.995097764 l 2,41,42
 2469.71060616 897.069977765 2469.71060616 897.069977765 2471.82288567 897.069977765 c 0,0,1
EndSplineSet
EndChar

StartChar: F
Encoding: 70 70 6
Width: 1044
GlyphClass: 1
Flags: W
LayerCount: 2
Fore
SplineSet
767.004902236 1141.00490224 m 1,0,-1
 -780 1141.00490224 l 2,1,2
 -811.396752218 1141.00490224 -811.396752218 1141.00490224 -833.195924991 1162.80059134 c 128,-1,3
 -854.995097764 1184.59628044 -854.995097764 1184.59628044 -854.995097764 1216.47826087 c 128,-1,4
 -854.995097764 1248.3602413 -854.995097764 1248.3602413 -832.67766953 1270.67766953 c 128,-1,5
 -810.360241296 1292.99509776 -810.360241296 1292.99509776 -780 1292.99509776 c 2,6,-1
 844 1292.99509776 l 2,7,8
 874.360241296 1292.99509776 874.360241296 1292.99509776 895.67766953 1271.67766953 c 128,-1,9
 916.995097764 1250.3602413 916.995097764 1250.3602413 916.995097764 1216 c 2,10,-1
 916.995097764 96.1154913383 l 1,11,-1
 1660.34561931 -241.236196539 l 2,12,13
 1673.59874767 -246.910075274 1673.59874767 -246.910075274 1683.45544731 -256.766774915 c 0,14,15
 1703.06050492 -276.371832531 1703.06050492 -276.371832531 1704.95164501 -308.521214017 c 0,16,17
 1704.99554901 -308.955928569 1704.99554901 -308.955928569 1704.99554901 -309.43194014 c 128,-1,18
 1704.99554901 -309.907951711 1704.99554901 -309.907951711 1704.99509776 -310 c 0,19,20
 1704.99509776 -342.875290478 1704.99509776 -342.875290478 1682.42740218 -363.935194121 c 128,-1,21
 1659.85970659 -384.995097764 1659.85970659 -384.995097764 1630 -384.995097764 c 0,22,23
 1622.90336771 -384.995097764 1622.90336771 -384.995097764 1612.30726754 -382.346072723 c 128,-1,24
 1601.71116738 -379.697047682 1601.71116738 -379.697047682 1599.65601003 -378.764542827 c 2,25,-1
 21.6560100326 337.235457173 l 2,26,27
 8.77458566678 342.750075274 8.77458566678 342.750075274 -0.730469529664 352.25513047 c 0,28,29
 -20.9950977635 372.519758704 -20.9950977635 372.519758704 -20.9950977635 407.194716981 c 128,-1,30
 -20.9950977635 441.869675258 -20.9950977635 441.869675258 -1.39494651019 461.469826511 c 128,-1,31
 18.2052047431 481.069977765 18.2052047431 481.069977765 52.1771143348 481.069977765 c 0,32,33
 54.5372853547 481.069977765 54.5372853547 481.069977765 59.3902475869 480.889215573 c 128,-1,34
 64.2432098192 480.708453382 64.2432098192 480.708453382 74.2739270411 478.200774076 c 128,-1,35
 84.3046442631 475.693094771 84.3046442631 475.693094771 86.3733548137 474.751195833 c 2,36,-1
 767.004902236 164.854709157 l 1,37,-1
 767.004902236 1141.00490224 l 1,0,-1
EndSplineSet
EndChar

StartChar: G
Encoding: 71 71 7
Width: 1288
GlyphClass: 1
Flags: W
LayerCount: 2
Fore
SplineSet
1234.99509776 1212 m 2,0,-1
 1234.99509776 808 l 2,1,2
 1234.99509776 636.846656087 1234.99509776 636.846656087 1170.04251124 485.290620877 c 128,-1,3
 1105.08992473 333.734585667 1105.08992473 333.734585667 990.67766953 219.32233047 c 128,-1,4
 876.243089072 104.887750013 876.243089072 104.887750013 723.627306431 39.9463259399 c 128,-1,5
 571.011523789 -24.9950981332 571.011523789 -24.9950981332 396.945022683 -24.9950979484 c 128,-1,6
 222.878521577 -24.9950977635 222.878521577 -24.9950977635 70.3177162525 39.9463261248 c 128,-1,7
 -82.2430890724 104.887750013 -82.2430890724 104.887750013 -195.67766953 218.32233047 c 128,-1,8
 -309.060246331 331.704907272 -309.060246331 331.704907272 -375.027672047 484.25457924 c 128,-1,9
 -440.995097764 636.804251209 -440.995097764 636.804251209 -440.995097764 808 c 0,10,11
 -440.995097764 844.360241296 -440.995097764 844.360241296 -420.67766953 864.67766953 c 128,-1,12
 -400.360241296 884.995097764 -400.360241296 884.995097764 -364 884.995097764 c 0,13,14
 -333.639758704 884.995097764 -333.639758704 884.995097764 -312.32233047 863.67766953 c 128,-1,15
 -291.004902236 842.360241296 -291.004902236 842.360241296 -291.004902236 808 c 0,16,17
 -291.004902236 665.33652338 -291.004902236 665.33652338 -236.007813309 541.834288594 c 0,18,19
 -180.224619364 416.56676535 -180.224619364 416.56676535 -87.1455440067 323.487707582 c 128,-1,20
 5.93353135068 230.408649814 5.93353135068 230.408649814 130.513183774 177.701873789 c 128,-1,21
 255.092836197 124.995097764 255.092836197 124.995097764 398 124.995097764 c 128,-1,22
 540.834388734 124.995097764 540.834388734 124.995097764 664.280192543 178.038216588 c 128,-1,23
 787.725996353 231.081335412 787.725996353 231.081335412 881.32233047 324.67766953 c 128,-1,24
 974.952605812 418.307944871 974.952605812 418.307944871 1028.97875402 542.761036289 c 128,-1,25
 1083.00490224 667.214127706 1083.00490224 667.214127706 1083.00490224 808 c 2,26,-1
 1083.00490224 1139.00490224 l 1,27,-1
 398 1139.00490224 l 2,28,29
 364.600808392 1139.00490224 364.600808392 1139.00490224 342.802855314 1160.79852095 c 128,-1,30
 321.004902236 1182.59213966 321.004902236 1182.59213966 321.004902236 1212 c 0,31,32
 321.004902236 1248.3602413 321.004902236 1248.3602413 341.32233047 1268.67766953 c 128,-1,33
 361.639758704 1288.99509776 361.639758704 1288.99509776 398 1288.99509776 c 2,34,-1
 1170 1288.99509776 l 2,35,36
 1176.00214151 1288.99509776 1176.00214151 1288.99509776 1180.98299558 1286.53908177 c 0,37,38
 1184.87128084 1285.79925977 1184.87128084 1285.79925977 1188.26046192 1283.85918034 c 0,39,40
 1194.13534344 1282.1674691 1194.13534344 1282.1674691 1199.18744258 1277.95630796 c 0,41,42
 1221.25765001 1263.29087635 1221.25765001 1263.29087635 1229.7102163 1237.93317749 c 0,43,44
 1230.99478222 1234.07947971 1230.99478222 1234.07947971 1232.99494878 1225.05023843 c 128,-1,45
 1234.99511534 1216.02099715 1234.99511534 1216.02099715 1234.99509776 1212 c 2,0,-1
305.600213268 -216.957491151 m 0,46,47
 345.552802182 -177.004902236 345.552802182 -177.004902236 396.837024083 -177.004902236 c 0,48,49
 449.380753152 -177.004902236 449.380753152 -177.004902236 487.187925458 -214.811219359 c 128,-1,50
 524.995097764 -252.617536482 524.995097764 -252.617536482 524.995097764 -304.001084011 c 0,51,52
 524.995097764 -356.603026303 524.995097764 -356.603026303 486.558171874 -393.799062033 c 128,-1,53
 448.121245984 -430.995097764 448.121245984 -430.995097764 398.114749926 -430.995097764 c 0,54,55
 345.552998666 -430.995097764 345.552998666 -430.995097764 305.347273781 -390.797850936 c 0,56,57
 269.004902236 -354.455479391 269.004902236 -354.455479391 269.004902236 -304.004140787 c 128,-1,58
 269.004902236 -253.552802182 269.004902236 -253.552802182 305.600213268 -216.957491151 c 0,46,47
EndSplineSet
EndChar

StartChar: H
Encoding: 72 72 8
Width: 1704
GlyphClass: 1
Flags: W
LayerCount: 2
Fore
SplineSet
1646.99509776 814 m 2,0,-1
 1646.99509776 52 l 2,1,2
 1646.99509776 15.6397587042 1646.99509776 15.6397587042 1626.67766953 -4.67766952966 c 128,-1,3
 1606.3602413 -24.9950977635 1606.3602413 -24.9950977635 1570 -24.9950977635 c 0,4,5
 1539.6397587 -24.9950977635 1539.6397587 -24.9950977635 1518.32233047 -3.67766952966 c 1,6,7
 1509.86128335 16.8012009777 1509.86128335 16.8012009777 1497.62038154 40.6997359149 c 0,8,9
 1495.00489308 45.9901027279 1495.00489308 45.9901027279 1495.00490224 52 c 2,10,-1
 1495.00490224 812 l 2,11,12
 1495.00490224 954.701102285 1495.00490224 954.701102285 1439.99478112 1079.19769218 c 0,13,14
 1384.20954731 1205.44848448 1384.20954731 1205.44848448 1291.12060175 1298.53741128 c 128,-1,15
 1198.03165619 1391.62633808 1198.03165619 1391.62633808 1074.45134005 1444.31562016 c 128,-1,16
 950.871023902 1497.00490224 950.871023902 1497.00490224 813 1497.00490224 c 128,-1,17
 675.128976098 1497.00490224 675.128976098 1497.00490224 551.548659953 1444.31562016 c 0,18,19
 426.309771377 1390.9191948 426.309771377 1390.9191948 332.633205316 1296.27691124 c 128,-1,20
 238.956639256 1201.63462769 238.956639256 1201.63462769 182.97586851 1077.12567206 c 128,-1,21
 126.995097764 952.61671644 126.995097764 952.61671644 126.995097764 812 c 0,22,23
 126.995097764 805.691987614 126.995097764 805.691987614 124.282385033 800.512005114 c 0,24,25
 120.967708369 774.57187859 120.967708369 774.57187859 101.187784356 754.788390413 c 128,-1,26
 81.4078603434 735.004902236 81.4078603434 735.004902236 52 735.004902236 c 0,27,28
 15.6397587042 735.004902236 15.6397587042 735.004902236 -4.67766952966 755.32233047 c 128,-1,29
 -24.9950977635 775.639758704 -24.9950977635 775.639758704 -24.9950977635 812 c 0,30,31
 -24.9950977635 985.153343913 -24.9950977635 985.153343913 39.9574887552 1136.70937912 c 128,-1,32
 104.910075274 1288.26541433 104.910075274 1288.26541433 219.32233047 1402.67766953 c 128,-1,33
 333.756910928 1517.11224999 333.756910928 1517.11224999 486.317716253 1582.05367388 c 128,-1,34
 638.878521577 1646.99509776 638.878521577 1646.99509776 812 1646.99509776 c 128,-1,35
 985.153343913 1646.99509776 985.153343913 1646.99509776 1136.68237637 1582.05408385 c 0,36,37
 1290.03595094 1516.33112332 1290.03595094 1516.33112332 1403.93352607 1402.43356295 c 128,-1,38
 1517.8311012 1288.53600257 1517.8311012 1288.53600257 1582.41309948 1137.84467324 c 128,-1,39
 1646.99509776 987.153343913 1646.99509776 987.153343913 1646.99509776 814 c 2,0,-1
723.32233047 900.67766953 m 128,-1,41
 761.639758704 938.995097764 761.639758704 938.995097764 811.512195122 938.995097764 c 0,42,43
 862.603026303 938.995097764 862.603026303 938.995097764 899.799062033 900.558171874 c 128,-1,44
 936.995097764 862.121245984 936.995097764 862.121245984 936.995097764 812 c 0,45,46
 936.995097764 760.617425075 936.995097764 760.617425075 899.189864652 722.811163656 c 128,-1,47
 861.38463154 685.004902236 861.38463154 685.004902236 811.631692778 685.004902236 c 0,48,49
 760.618384371 685.004902236 760.618384371 685.004902236 722.811643304 722.810702563 c 128,-1,50
 685.004902236 760.61650289 685.004902236 760.61650289 685.004902236 811.488372093 c 128,-1,40
 685.004902236 862.360241296 685.004902236 862.360241296 723.32233047 900.67766953 c 128,-1,41
EndSplineSet
EndChar

StartChar: J
Encoding: 74 74 9
Width: 1398
GlyphClass: 1
Flags: W
LayerCount: 2
Fore
SplineSet
1149.67766953 722.32233047 m 128,-1,1
 1112.3602413 685.004902236 1112.3602413 685.004902236 1059.48888889 685.004902236 c 128,-1,2
 1006.61753648 685.004902236 1006.61753648 685.004902236 969.811219359 721.811219359 c 128,-1,3
 933.004902236 758.617536482 933.004902236 758.617536482 933.004902236 811.488888889 c 128,-1,4
 933.004902236 864.360241296 933.004902236 864.360241296 970.32233047 901.67766953 c 128,-1,5
 1007.6397587 938.995097764 1007.6397587 938.995097764 1058.88050234 938.995097764 c 0,6,7
 1111.38257493 938.995097764 1111.38257493 938.995097764 1149.18883634 901.189864652 c 128,-1,8
 1186.99509776 863.38463154 1186.99509776 863.38463154 1186.99509776 814 c 0,9,0
 1186.99509776 759.639758704 1186.99509776 759.639758704 1149.67766953 722.32233047 c 128,-1,1
576.995097764 812 m 2,10,-1
 576.995097764 98.0769035213 l 1,11,12
 1321.08926351 -241.575578467 1321.08926351 -241.575578467 1321.76739198 -241.937054177 c 0,13,14
 1364.01563053 -264.469448068 1364.01563053 -264.469448068 1366.93932983 -308.324937584 c 0,15,16
 1366.99509776 -309.16145655 1366.99509776 -309.16145655 1366.99509776 -310 c 0,17,18
 1366.99509776 -345.869675258 1366.99509776 -345.869675258 1347.39494651 -365.469826511 c 128,-1,19
 1327.79479526 -385.069977765 1327.79479526 -385.069977765 1293.82288567 -385.069977765 c 0,20,21
 1291.49570742 -385.069333079 1291.49570742 -385.069333079 1286.6262488 -384.88889323 c 128,-1,22
 1281.75679018 -384.708453382 1281.75679018 -384.708453382 1271.73397878 -382.202750532 c 128,-1,23
 1261.71116738 -379.697047682 1261.71116738 -379.697047682 1259.65601003 -378.764542827 c 2,24,-1
 -318.343989967 337.235457173 l 2,25,26
 -322.302165052 339.031435222 -322.302165052 339.031435222 -325.433842868 342.08168999 c 0,27,28
 -360.995097764 363.813886562 -360.995097764 363.813886562 -360.995097764 408 c 0,29,30
 -360.995097764 438.360241296 -360.995097764 438.360241296 -339.67766953 459.67766953 c 128,-1,31
 -318.360241296 480.995097764 -318.360241296 480.995097764 -284 480.995097764 c 0,32,33
 -266.390769353 480.995097764 -266.390769353 480.995097764 -253.276977636 474.591989658 c 2,34,-1
 427.004902236 164.854709157 l 1,35,-1
 427.004902236 812 l 2,36,37
 427.004902236 985.227993843 427.004902236 985.227993843 492.960077038 1136.71878596 c 0,38,39
 560.539834517 1291.94104142 560.539834517 1291.94104142 676.354435108 1407.75575118 c 0,40,41
 787.159209778 1518.56052585 787.159209778 1518.56052585 938.018865678 1582.77781181 c 128,-1,42
 1088.87852158 1646.99509776 1088.87852158 1646.99509776 1264 1646.99509776 c 0,43,44
 1294.3602413 1646.99509776 1294.3602413 1646.99509776 1315.67766953 1625.67766953 c 128,-1,45
 1336.99509776 1604.3602413 1336.99509776 1604.3602413 1336.99509776 1572 c 128,-1,46
 1336.99509776 1539.6397587 1336.99509776 1539.6397587 1315.67766953 1518.32233047 c 1,47,48
 1296.08868996 1508.82530688 1296.08868996 1508.82530688 1275.73931566 1497.85118245 c 0,49,50
 1270.00985107 1495.00489382 1270.00985107 1495.00489382 1264 1495.00490224 c 0,51,52
 1123.1289761 1495.00490224 1123.1289761 1495.00490224 998.657707966 1441.93575691 c 0,53,54
 872.481491523 1388.13969563 872.481491523 1388.13969563 779.362662967 1295.02085225 c 128,-1,55
 686.243834411 1201.90200887 686.243834411 1201.90200887 631.619466087 1077.3201162 c 128,-1,56
 576.995097764 952.738223528 576.995097764 952.738223528 576.995097764 812 c 2,10,-1
EndSplineSet
EndChar

StartChar: K
Encoding: 75 75 10
Width: 1294
GlyphClass: 1
Flags: W
LayerCount: 2
Fore
SplineSet
1160 886.995097764 m 0,0,1
 1196.3602413 886.995097764 1196.3602413 886.995097764 1215.71531037 867.640028687 c 128,-1,2
 1235.07037945 848.284959611 1235.07037945 848.284959611 1235.07037945 815.694474055 c 0,3,4
 1235.07037945 639.055373796 1235.07037945 639.055373796 1170.09131472 486.406142362 c 128,-1,5
 1105.11224999 333.756910928 1105.11224999 333.756910928 990.67766953 219.32233047 c 128,-1,6
 876.265414333 104.910075274 876.265414333 104.910075274 724.709379123 39.9574887552 c 128,-1,7
 573.153343913 -24.9950977635 573.153343913 -24.9950977635 400 -24.9950977635 c 128,-1,8
 226.878521577 -24.9950977635 226.878521577 -24.9950977635 75.1781813688 39.580047055 c 0,9,10
 -78.2972899979 104.910822029 -78.2972899979 104.910822029 -191.7590094 219.404039166 c 128,-1,11
 -305.083554493 333.758807396 -305.083554493 333.758807396 -371.039326128 486.281529303 c 128,-1,12
 -436.995097764 638.804251209 -436.995097764 638.804251209 -436.995097764 812 c 0,13,14
 -436.995097764 847.869675258 -436.995097764 847.869675258 -417.394946522 867.4698265 c 128,-1,15
 -397.79479528 887.069977742 -397.79479528 887.069977742 -363.822885746 887.069977742 c 0,16,17
 -361.69027719 887.069977742 -361.69027719 887.069977742 -359.500121015 886.993649481 c 0,18,19
 -329.464048124 886.81938721 -329.464048124 886.81938721 -308.32233047 865.67766953 c 0,20,21
 -290.913547546 848.268886606 -290.913547546 848.268886606 -287.721569362 823.495541759 c 0,22,23
 -285.004902619 818.312607898 -285.004902619 818.312607898 -285.004902236 812 c 0,24,25
 -285.004902236 669.261776472 -285.004902236 669.261776472 -229.995398777 543.801505425 c 128,-1,26
 -174.985895318 418.341234378 -174.985895318 418.341234378 -82.3223304703 325.67766953 c 128,-1,27
 10.2483438075 233.106995252 10.2483438075 233.106995252 134.688659953 180.051046508 c 128,-1,28
 259.128976098 126.995097764 259.128976098 126.995097764 397.981682416 126.995097764 c 128,-1,29
 536.834388734 126.995097764 536.834388734 126.995097764 660.310775753 180.051357811 c 0,30,31
 785.503503575 233.845108047 785.503503575 233.845108047 879.648062366 327.989684816 c 128,-1,32
 973.792621156 422.134261585 973.792621156 422.134261585 1028.3987617 545.71657965 c 128,-1,33
 1083.00490224 669.298897715 1083.00490224 669.298897715 1083.00490224 812 c 0,34,35
 1083.00490224 818.366024622 1083.00490224 818.366024622 1085.76773984 823.583175885 c 0,36,37
 1089.19894006 848.788527211 1089.19894006 848.788527211 1107.95196192 866.285988372 c 0,38,39
 1130.14029341 886.995097764 1130.14029341 886.995097764 1160 886.995097764 c 0,0,1
EndSplineSet
EndChar

StartChar: L
Encoding: 76 76 11
Width: 1704
GlyphClass: 1
Flags: W
LayerCount: 2
Fore
SplineSet
1570 886.995097764 m 0,0,1
 1606.87004522 886.995097764 1606.87004522 886.995097764 1626.93257149 866.93257149 c 128,-1,2
 1646.99509776 846.870045217 1646.99509776 846.870045217 1646.99509776 812 c 2,3,-1
 1646.99509776 808 l 2,4,5
 1646.99509776 634.846656087 1646.99509776 634.846656087 1582.41309948 484.155326759 c 0,6,7
 1517.06672857 331.680461303 1517.06672857 331.680461303 1402.59596083 218.2409906 c 128,-1,8
 1288.18900443 104.864727496 1288.18900443 104.864727496 1135.65524143 39.9348148663 c 128,-1,9
 983.121478423 -24.9950977635 983.121478423 -24.9950977635 811 -24.9950977635 c 128,-1,10
 638.878521577 -24.9950977635 638.878521577 -24.9950977635 486.317716252 39.9463261248 c 128,-1,11
 333.756910928 104.887750013 333.756910928 104.887750013 219.32233047 219.32233047 c 128,-1,12
 104.887750013 333.756910928 104.887750013 333.756910928 39.9463261248 486.317716252 c 128,-1,13
 -24.9950977635 638.878521577 -24.9950977635 638.878521577 -24.9950977635 812 c 2,14,-1
 -24.9950977635 1216 l 2,15,16
 -24.9950977635 1219.09663229 -24.9950977635 1219.09663229 -24.2458629311 1222.09357162 c 0,17,18
 -20.1052271164 1238.65611488 -20.1052271164 1238.65611488 -19.9381931265 1239.21305968 c 0,19,20
 -14.7764418744 1256.41889718 -14.7764418744 1256.41889718 -4.00264781906 1267.19269124 c 128,-1,21
 6.77114623633 1277.9664853 6.77114623633 1277.9664853 21.7569554421 1284.71009944 c 128,-1,22
 36.7427646479 1291.45371358 36.7427646479 1291.45371358 50.7227251446 1291.45371358 c 0,23,24
 66.081420531 1291.45371358 66.081420531 1291.45371358 76.8621347492 1287.37999117 c 2,25,-1
 838.862134749 999.379991174 l 2,26,27
 868.720044257 987.445939527 868.720044257 987.445939527 880.843182933 960.168877505 c 0,28,29
 887.102933318 946.084439139 887.102933318 946.084439139 887.102933318 932.108731384 c 128,-1,30
 887.102933318 918.13302363 887.102933318 918.13302363 880.730719748 902.968094889 c 128,-1,31
 874.358506178 887.803166148 874.358506178 887.803166148 864.373888443 877.818548898 c 0,32,33
 839.900287034 853.34494868 839.900287034 853.34494868 810.945862209 853.34494868 c 0,34,35
 797.638515259 853.34494868 797.638515259 853.34494868 783.431458834 858.511151016 c 0,36,37
 455.348452323 982.13663173 455.348452323 982.13663173 126.995097764 1105.86219781 c 1,38,-1
 126.995097764 812 l 2,39,40
 126.995097764 669.128976098 126.995097764 669.128976098 180.051046508 544.688659953 c 128,-1,41
 233.106995252 420.248343807 233.106995252 420.248343807 326.67766953 326.67766953 c 128,-1,42
 420.307944871 233.047394188 420.307944871 233.047394188 544.761036289 179.021245976 c 128,-1,43
 669.214127706 124.995097764 669.214127706 124.995097764 812 124.995097764 c 128,-1,44
 954.834388734 124.995097764 954.834388734 124.995097764 1078.28019254 178.038216588 c 128,-1,45
 1201.72599635 231.081335412 1201.72599635 231.081335412 1295.32233047 324.67766953 c 128,-1,46
 1388.92698154 418.2823206 1388.92698154 418.2823206 1442.96594189 543.729907122 c 128,-1,47
 1497.00490224 669.177493644 1497.00490224 669.177493644 1497.00490224 812 c 0,48,49
 1497.00490224 844.360241296 1497.00490224 844.360241296 1518.32233047 865.67766953 c 128,-1,50
 1539.6397587 886.995097764 1539.6397587 886.995097764 1570 886.995097764 c 0,0,1
EndSplineSet
EndChar

StartChar: M
Encoding: 77 77 12
Width: 1704
GlyphClass: 1
Flags: W
LayerCount: 2
Fore
SplineSet
1646.99509776 1572 m 2,0,-1
 1646.99509776 812 l 2,1,2
 1646.99509776 638.878521577 1646.99509776 638.878521577 1582.05367388 486.317716253 c 128,-1,3
 1517.11224999 333.756910928 1517.11224999 333.756910928 1402.67766953 219.32233047 c 128,-1,4
 1288.24308907 104.887750013 1288.24308907 104.887750013 1135.68228375 39.9463261248 c 128,-1,5
 983.121478423 -24.9950977635 983.121478423 -24.9950977635 811 -24.9950977635 c 128,-1,6
 638.878521577 -24.9950977635 638.878521577 -24.9950977635 486.317716252 39.9463261248 c 128,-1,7
 333.756910928 104.887750013 333.756910928 104.887750013 219.32233047 219.32233047 c 128,-1,8
 104.887750013 333.756910928 104.887750013 333.756910928 39.9463261248 486.317716252 c 128,-1,9
 -24.9950977635 638.878521577 -24.9950977635 638.878521577 -24.9950977635 812 c 0,10,11
 -24.9950977635 847.869675258 -24.9950977635 847.869675258 -5.39494652159 867.4698265 c 128,-1,12
 14.2052047203 887.069977742 14.2052047203 887.069977742 48.177114254 887.069977742 c 0,13,14
 50.3097228102 887.069977742 50.3097228102 887.069977742 52.4998789846 886.993649481 c 0,15,16
 82.5359518755 886.81938721 82.5359518755 886.81938721 103.67766953 865.67766953 c 0,17,18
 121.086452454 848.268886606 121.086452454 848.268886606 124.278430638 823.49554176 c 0,19,20
 126.995097381 818.312607898 126.995097381 818.312607898 126.995097764 812 c 0,21,22
 126.995097764 669.261776472 126.995097764 669.261776472 182.004601223 543.801505425 c 128,-1,23
 237.014104682 418.341234378 237.014104682 418.341234378 329.67766953 325.67766953 c 128,-1,24
 422.248343807 233.106995252 422.248343807 233.106995252 546.688659953 180.051046508 c 128,-1,25
 671.128976098 126.995097764 671.128976098 126.995097764 809.981682416 126.995097764 c 128,-1,26
 948.834388734 126.995097764 948.834388734 126.995097764 1072.28019254 180.038216588 c 128,-1,27
 1195.72599635 233.081335412 1195.72599635 233.081335412 1289.32233047 326.67766953 c 128,-1,28
 1383.07058602 420.42592508 1383.07058602 420.42592508 1439.03774413 544.90460432 c 128,-1,29
 1495.00490224 669.38328356 1495.00490224 669.38328356 1495.00490224 812 c 2,30,-1
 1495.00490224 1497.00490224 l 1,31,-1
 52 1497.00490224 l 2,32,33
 15.1299547826 1497.00490224 15.1299547826 1497.00490224 -4.93257149045 1517.06742851 c 128,-1,34
 -24.9950977635 1537.12995478 -24.9950977635 1537.12995478 -24.9950977635 1572 c 0,35,36
 -24.9950977635 1603.39485354 -24.9950977635 1603.39485354 -3.19766952966 1625.19497565 c 128,-1,37
 18.5997587042 1646.99509776 18.5997587042 1646.99509776 52 1646.99509776 c 2,38,-1
 1570 1646.99509776 l 2,39,40
 1602.3602413 1646.99509776 1602.3602413 1646.99509776 1624.67766953 1624.67766953 c 128,-1,41
 1646.99509776 1602.3602413 1646.99509776 1602.3602413 1646.99509776 1572 c 2,0,-1
EndSplineSet
EndChar

StartChar: N
Encoding: 78 78 13
Width: 1502
GlyphClass: 1
Flags: W
LayerCount: 2
Fore
SplineSet
1444.99509776 52 m 0,0,1
 1444.99509776 15.6397587042 1444.99509776 15.6397587042 1424.67766953 -4.67766952966 c 128,-1,2
 1404.3602413 -24.9950977635 1404.3602413 -24.9950977635 1368 -24.9950977635 c 0,3,4
 1336.60514646 -24.9950977635 1336.60514646 -24.9950977635 1314.14633047 -2.54166952966 c 0,5,6
 1296.72564869 14.8790122524 1296.72564869 14.8790122524 1293.65972684 40.6232722229 c 0,7,8
 1291.0049035 45.7596573453 1291.0049035 45.7596573453 1291.00490224 52 c 0,9,10
 1291.00490224 189.037601395 1291.00490224 189.037601395 1241.81005303 308.648607317 c 0,11,12
 1188.2079593 438.97526658 1188.2079593 438.97526658 1091.13342426 536.048550118 c 0,13,14
 1010.5159249 616.666049472 1010.5159249 616.666049472 905.863157558 668.120326749 c 128,-1,15
 801.210390214 719.574604027 801.210390214 719.574604027 684.995097764 732.586389086 c 1,16,-1
 684.995097764 52 l 2,17,18
 684.995097764 15.6397587042 684.995097764 15.6397587042 664.67766953 -4.67766952966 c 128,-1,19
 644.360241296 -24.9950977635 644.360241296 -24.9950977635 608.245283019 -24.9950977635 c 128,-1,20
 572.130324742 -24.9950977635 572.130324742 -24.9950977635 552.530173489 -5.39494651019 c 128,-1,21
 532.930022235 14.2052047431 532.930022235 14.2052047431 532.930022235 48.1771143348 c 0,22,23
 532.930022235 50.289393841 532.930022235 50.289393841 533.004902236 52.4581290514 c 2,24,-1
 533.004902236 732.541944733 l 1,25,26
 418.613154612 719.487846899 418.613154612 719.487846899 313.220935072 667.670005626 c 0,27,28
 199.052847332 611.537362487 199.052847332 611.537362487 112.156730825 519.814501847 c 128,-1,29
 25.3218546693 428.155465905 25.3218546693 428.155465905 -24.8415237836 307.570421547 c 128,-1,30
 -75.0049022365 186.985377189 -75.0049022365 186.985377189 -75.0049022365 52 c 0,31,32
 -75.0049022365 45.6421563872 -75.0049022365 45.6421563872 -77.7606433338 40.4302351858 c 0,33,34
 -81.1117498965 15.5329110442 -81.1117498965 15.5329110442 -99.3223304703 -2.67766952966 c 0,35,36
 -121.639758704 -24.9950977635 -121.639758704 -24.9950977635 -152 -24.9950977635 c 0,37,38
 -187.869675258 -24.9950977635 -187.869675258 -24.9950977635 -207.469826514 -5.39494650785 c 128,-1,39
 -227.069977769 14.2052047478 -227.069977769 14.2052047478 -227.069977769 48.1771143514 c 0,40,41
 -227.069977769 218.795306582 -227.069977769 218.795306582 -166.212586255 366.29711992 c 0,42,43
 -100.680034695 525.130253368 -100.680034695 525.130253368 16.0351969981 641.84623226 c 0,44,45
 115.990953648 741.80198891 115.990953648 741.80198891 249.566506077 805.727431858 c 128,-1,46
 383.142058505 869.652874806 383.142058505 869.652874806 533.004902236 883.151407091 c 1,47,-1
 533.004902236 1216 l 2,48,49
 533.004902236 1252.87004522 533.004902236 1252.87004522 553.06742851 1272.93257149 c 128,-1,50
 573.129954783 1292.99509776 573.129954783 1292.99509776 608.745098039 1292.99509776 c 128,-1,51
 644.360241296 1292.99509776 644.360241296 1292.99509776 664.67766953 1272.67766953 c 128,-1,52
 684.995097764 1252.3602413 684.995097764 1252.3602413 684.995097764 1216 c 2,53,-1
 684.995097764 883.175270511 l 1,54,55
 836.668251884 869.703409143 836.668251884 869.703409143 968.303935327 805.79333095 c 0,56,57
 1111.02392713 736.501740724 1111.02392713 736.501740724 1217.17892233 624.162043885 c 128,-1,58
 1323.33198844 511.825304017 1323.33198844 511.825304017 1384.1635431 365.417155513 c 128,-1,59
 1444.99509776 219.009007008 1444.99509776 219.009007008 1444.99509776 52 c 0,0,1
EndSplineSet
EndChar

StartChar: P
Encoding: 80 80 14
Width: 1090
GlyphClass: 1
Flags: W
LayerCount: 2
Fore
SplineSet
1082.99509776 812 m 2,0,-1
 1082.99509776 52 l 2,1,2
 1082.99509776 15.1299547826 1082.99509776 15.1299547826 1062.93257149 -4.93257149045 c 128,-1,3
 1042.87004522 -24.9950977635 1042.87004522 -24.9950977635 1007.25490196 -24.9950977635 c 128,-1,4
 971.639758704 -24.9950977635 971.639758704 -24.9950977635 951.32233047 -4.67766952966 c 128,-1,5
 931.004902236 15.6397587042 931.004902236 15.6397587042 931.004902236 52 c 2,6,-1
 931.004902236 735.004902236 l 1,7,-1
 -564 735.004902236 l 2,8,9
 -599.869675258 735.004902236 -599.869675258 735.004902236 -619.469826508 754.605053487 c 128,-1,10
 -639.069977759 774.205204737 -639.069977759 774.205204737 -639.069977759 808.177114314 c 0,11,12
 -639.069977759 810.301751492 -639.069977759 810.301751492 -638.994219039 812.483506884 c 0,13,14
 -638.863134954 848.492204112 -638.863134954 848.492204112 -619.574047284 867.781291779 c 128,-1,15
 -600.284959613 887.070379447 -600.284959613 887.070379447 -567.694474062 887.070379447 c 0,16,17
 -565.637217945 887.070379447 -565.637217945 887.070379447 -563.525380371 886.995097764 c 2,18,-1
 1008 886.995097764 l 2,19,20
 1039.39675222 886.995097764 1039.39675222 886.995097764 1061.19592499 865.19940866 c 128,-1,21
 1082.99509776 843.403719557 1082.99509776 843.403719557 1082.99509776 812 c 2,0,-1
157.32233047 315.32233047 m 128,-1,23
 121.004902236 351.639758704 121.004902236 351.639758704 121.004902236 403.876467867 c 128,-1,24
 121.004902236 456.113177029 121.004902236 456.113177029 157.197830591 493.554137396 c 128,-1,25
 193.390758946 530.995097764 193.390758946 530.995097764 245.875500121 530.995097764 c 128,-1,26
 298.360241296 530.995097764 298.360241296 530.995097764 335.67766953 493.67766953 c 128,-1,27
 372.995097764 456.360241296 372.995097764 456.360241296 372.995097764 404.488888889 c 0,28,29
 372.995097764 351.389128788 372.995097764 351.389128788 335.554137396 315.197015512 c 128,-1,30
 298.113177029 279.004902236 298.113177029 279.004902236 245.876467867 279.004902236 c 128,-1,22
 193.639758704 279.004902236 193.639758704 279.004902236 157.32233047 315.32233047 c 128,-1,23
EndSplineSet
EndChar

StartChar: Q
Encoding: 81 81 15
Width: 1300
GlyphClass: 1
Flags: W
LayerCount: 2
Fore
SplineSet
1238.99509776 812 m 0,0,1
 1238.99509776 645.055020193 1238.99509776 645.055020193 1178.12951941 496.501744205 c 0,2,3
 1114.30998987 340.738824661 1114.30998987 340.738824661 998.335083701 224.763528425 c 0,4,5
 895.286251598 121.714696322 895.286251598 121.714696322 762.071640214 56.0727139014 c 128,-1,6
 628.857028831 -9.5692685194 628.857028831 -9.5692685194 478.995097764 -21.4255317057 c 1,7,-1
 478.995097764 -127.004902236 l 1,8,-1
 808 -127.004902236 l 2,9,10
 844.870045217 -127.004902236 844.870045217 -127.004902236 864.93257149 -147.06742851 c 128,-1,11
 884.995097764 -167.129954783 884.995097764 -167.129954783 884.995097764 -202 c 0,12,13
 884.995097764 -233.394853544 884.995097764 -233.394853544 863.19766953 -255.194975654 c 128,-1,14
 841.400241296 -276.995097764 841.400241296 -276.995097764 808 -276.995097764 c 2,15,-1
 -2 -276.995097764 l 2,16,17
 -35.3967522184 -276.995097764 -35.3967522184 -276.995097764 -57.195924991 -255.19940866 c 128,-1,18
 -78.9950977635 -233.403719557 -78.9950977635 -233.403719557 -78.9950977635 -199.767022149 c 128,-1,19
 -78.9950977635 -166.130324742 -78.9950977635 -166.130324742 -59.3949465102 -146.530173489 c 128,-1,20
 -39.7947952569 -126.930022235 -39.7947952569 -126.930022235 -5.82288566519 -126.930022235 c 0,21,22
 -3.71060615901 -126.930022235 -3.71060615901 -126.930022235 -1.54187094857 -127.004902236 c 2,23,-1
 327.004902236 -127.004902236 l 1,24,-1
 327.004902236 -21.4475325322 l 1,25,26
 175.266168153 -9.62997427954 175.266168153 -9.62997427954 42.9412822127 55.5735927055 c 0,27,28
 -99.0213715001 125.52620468 -99.0213715001 125.52620468 -205.098585544 236.753330505 c 128,-1,29
 -311.352923724 348.165646267 -311.352923724 348.165646267 -372.174010744 496.61033323 c 128,-1,30
 -432.995097764 645.055020193 -432.995097764 645.055020193 -432.995097764 812 c 0,31,32
 -432.995097764 847.869675258 -432.995097764 847.869675258 -413.394946522 867.4698265 c 128,-1,33
 -393.79479528 887.069977742 -393.79479528 887.069977742 -359.822885746 887.069977742 c 0,34,35
 -357.69027719 887.069977742 -357.69027719 887.069977742 -355.500121015 886.993649481 c 0,36,37
 -325.464048124 886.81938721 -325.464048124 886.81938721 -304.32233047 865.67766953 c 0,38,39
 -286.913547546 848.268886606 -286.913547546 848.268886606 -283.721569362 823.495541759 c 0,40,41
 -281.004902619 818.312607898 -281.004902619 818.312607898 -281.004902236 812 c 0,42,43
 -281.004902236 675.014622811 -281.004902236 675.014622811 -230.827694941 554.396336043 c 0,44,45
 -176.155132646 422.97190745 -176.155132646 422.97190745 -79.1334242551 325.951449882 c 0,46,47
 1.4840750985 245.333950528 1.4840750985 245.333950528 106.136842442 193.879673251 c 128,-1,48
 210.789609786 142.425395973 210.789609786 142.425395973 327.004902236 129.413610914 c 1,49,-1
 327.004902236 812 l 2,50,51
 327.004902236 847.869675258 327.004902236 847.869675258 346.605053487 867.469826508 c 128,-1,52
 366.205204737 887.069977759 366.205204737 887.069977759 400.177114314 887.069977759 c 0,53,54
 402.301751493 887.069977759 402.301751493 887.069977759 404.483506884 886.994219039 c 0,55,56
 440.492204112 886.863134954 440.492204112 886.863134954 459.781291779 867.574047284 c 128,-1,57
 479.070379447 848.284959613 479.070379447 848.284959613 479.070379447 815.694474062 c 0,58,59
 479.070379447 813.637217945 479.070379447 813.637217945 478.995097764 811.525380371 c 2,60,-1
 478.995097764 129.458055267 l 1,61,62
 593.386845388 142.512153101 593.386845388 142.512153101 698.779064928 194.329994374 c 0,63,64
 812.947152668 250.462637513 812.947152668 250.462637513 899.843269175 342.185498153 c 128,-1,65
 986.678145331 433.844534095 986.678145331 433.844534095 1036.84152378 554.429578453 c 128,-1,66
 1087.00490224 675.014622811 1087.00490224 675.014622811 1087.00490224 812 c 0,67,68
 1087.00490224 818.312609144 1087.00490224 818.312609144 1089.72157001 823.495543774 c 0,69,70
 1092.91354827 848.268887331 1092.91354827 848.268887331 1110.32233047 865.67766953 c 0,71,72
 1131.47089229 886.826231351 1131.47089229 886.826231351 1163.48800841 886.993759946 c 0,73,74
 1165.61901698 887.070379585 1165.61901698 887.070379585 1167.69447403 887.070379585 c 0,75,76
 1200.2849596 887.070379585 1200.2849596 887.070379585 1219.64002868 867.71531044 c 128,-1,77
 1238.99509776 848.360241296 1238.99509776 848.360241296 1238.99509776 812 c 0,0,1
EndSplineSet
EndChar

StartChar: R
Encoding: 82 82 16
Width: 1258
GlyphClass: 1
Flags: W
LayerCount: 2
Fore
SplineSet
761.004902236 1216 m 2,0,1
 761.004902236 1252.3602413 761.004902236 1252.3602413 781.32233047 1272.67766953 c 128,-1,2
 801.639758704 1292.99509776 801.639758704 1292.99509776 838 1292.99509776 c 0,3,4
 868.360241296 1292.99509776 868.360241296 1292.99509776 889.67766953 1271.67766953 c 128,-1,5
 910.995097764 1250.3602413 910.995097764 1250.3602413 910.995097764 1216 c 2,6,-1
 910.995097764 96.1154913383 l 1,7,-1
 1654.12744538 -241.137183569 l 2,8,9
 1667.69469383 -247.006021434 1667.69469383 -247.006021434 1677.45544731 -256.766774915 c 0,10,11
 1697.06050492 -276.371832531 1697.06050492 -276.371832531 1698.95164501 -308.521214017 c 0,12,13
 1698.99554901 -308.955928569 1698.99554901 -308.955928569 1698.99554901 -309.43194014 c 128,-1,14
 1698.99554901 -309.907951711 1698.99554901 -309.907951711 1698.99509776 -310 c 0,15,16
 1698.99509776 -342.875290478 1698.99509776 -342.875290478 1676.42740218 -363.935194121 c 128,-1,17
 1653.85970659 -384.995097764 1653.85970659 -384.995097764 1624 -384.995097764 c 0,18,19
 1616.90336771 -384.995097764 1616.90336771 -384.995097764 1606.30726754 -382.346072723 c 128,-1,20
 1595.71116738 -379.697047682 1595.71116738 -379.697047682 1593.65601003 -378.764542827 c 2,21,-1
 15.8719258146 337.137487782 l 2,22,23
 3.02247898867 342.699105029 3.02247898867 342.699105029 -6.25755118647 351.979135204 c 0,24,25
 -26.9950977635 372.716681781 -26.9950977635 372.716681781 -26.9950977635 408 c 0,26,27
 -26.9950977635 438.360241296 -26.9950977635 438.360241296 -5.67766952966 459.67766953 c 128,-1,28
 15.6397587042 480.995097764 15.6397587042 480.995097764 50 480.995097764 c 0,29,30
 67.6165143995 480.995097764 67.6165143995 480.995097764 80.7246472299 474.591249845 c 2,31,-1
 761.004902236 164.854709157 l 1,32,-1
 761.004902236 761.905545018 l 1,33,-1
 15.8561959965 1101.14429812 l 2,34,35
 3.01667833133 1106.70490569 3.01667833133 1106.70490569 -6.25755118647 1115.9791352 c 0,36,37
 -26.9950977635 1136.71668178 -26.9950977635 1136.71668178 -26.9950977635 1172 c 0,38,39
 -26.9950977635 1202.3602413 -26.9950977635 1202.3602413 -5.67766952966 1223.67766953 c 128,-1,40
 15.6397587042 1244.99509776 15.6397587042 1244.99509776 50 1244.99509776 c 0,41,42
 67.6165143996 1244.99509776 67.6165143996 1244.99509776 80.7246472299 1238.59124984 c 2,43,-1
 761.004902236 928.854709157 l 1,44,-1
 761.004902236 1216 l 2,0,1
EndSplineSet
EndChar

StartChar: S
Encoding: 83 83 17
Width: 1294
GlyphClass: 1
Flags: W
LayerCount: 2
Fore
SplineSet
1160 886.995097764 m 0,0,1
 1196.3602413 886.995097764 1196.3602413 886.995097764 1215.71531037 867.640028687 c 128,-1,2
 1235.07037945 848.284959611 1235.07037945 848.284959611 1235.07037945 815.694474055 c 0,3,4
 1235.07037945 639.055373796 1235.07037945 639.055373796 1170.09131472 486.406142362 c 128,-1,5
 1105.11224999 333.756910928 1105.11224999 333.756910928 990.67766953 219.32233047 c 128,-1,6
 876.265414333 104.910075274 876.265414333 104.910075274 724.709379123 39.9574887552 c 128,-1,7
 573.153343913 -24.9950977635 573.153343913 -24.9950977635 400 -24.9950977635 c 128,-1,8
 226.878521577 -24.9950977635 226.878521577 -24.9950977635 75.1781813688 39.580047055 c 0,9,10
 -78.2972899979 104.910822029 -78.2972899979 104.910822029 -191.7590094 219.404039166 c 128,-1,11
 -305.083554493 333.758807396 -305.083554493 333.758807396 -371.039326128 486.281529303 c 128,-1,12
 -436.995097764 638.804251209 -436.995097764 638.804251209 -436.995097764 812 c 0,13,14
 -436.995097764 847.869675258 -436.995097764 847.869675258 -417.394946522 867.4698265 c 128,-1,15
 -397.79479528 887.069977742 -397.79479528 887.069977742 -363.822885746 887.069977742 c 0,16,17
 -361.69027719 887.069977742 -361.69027719 887.069977742 -359.500121015 886.993649481 c 0,18,19
 -329.464048124 886.81938721 -329.464048124 886.81938721 -308.32233047 865.67766953 c 0,20,21
 -290.913547546 848.268886606 -290.913547546 848.268886606 -287.721569362 823.495541759 c 0,22,23
 -285.004902619 818.312607898 -285.004902619 818.312607898 -285.004902236 812 c 0,24,25
 -285.004902236 669.261776472 -285.004902236 669.261776472 -229.995398777 543.801505425 c 128,-1,26
 -174.985895318 418.341234378 -174.985895318 418.341234378 -82.3223304703 325.67766953 c 128,-1,27
 10.2483438075 233.106995252 10.2483438075 233.106995252 134.688659953 180.051046508 c 128,-1,28
 259.128976098 126.995097764 259.128976098 126.995097764 397.981682416 126.995097764 c 128,-1,29
 536.834388734 126.995097764 536.834388734 126.995097764 660.310775753 180.051357811 c 0,30,31
 785.503503575 233.845108047 785.503503575 233.845108047 879.648062366 327.989684816 c 128,-1,32
 973.792621156 422.134261585 973.792621156 422.134261585 1028.3987617 545.71657965 c 128,-1,33
 1083.00490224 669.298897715 1083.00490224 669.298897715 1083.00490224 812 c 0,34,35
 1083.00490224 818.366024622 1083.00490224 818.366024622 1085.76773984 823.583175885 c 0,36,37
 1089.19894006 848.788527211 1089.19894006 848.788527211 1107.95196192 866.285988372 c 0,38,39
 1130.14029341 886.995097764 1130.14029341 886.995097764 1160 886.995097764 c 0,0,1
487.67766953 901.67766953 m 128,-1,41
 524.995097764 864.360241296 524.995097764 864.360241296 524.995097764 813.119497656 c 128,-1,42
 524.995097764 761.878754016 524.995097764 761.878754016 487.798072709 723.441828126 c 128,-1,43
 450.601047655 685.004902236 450.601047655 685.004902236 400.120403179 685.004902236 c 128,-1,44
 349.639758704 685.004902236 349.639758704 685.004902236 312.32233047 722.32233047 c 128,-1,45
 275.004902236 759.639758704 275.004902236 759.639758704 275.004902236 813 c 128,-1,46
 275.004902236 866.360241296 275.004902236 866.360241296 311.32233047 902.67766953 c 128,-1,47
 347.639758704 938.995097764 347.639758704 938.995097764 399 938.995097764 c 128,-1,40
 450.360241296 938.995097764 450.360241296 938.995097764 487.67766953 901.67766953 c 128,-1,41
400 1091.00490224 m 128,-1,49
 349.639758704 1091.00490224 349.639758704 1091.00490224 312.32233047 1128.32233047 c 128,-1,50
 275.004902236 1165.6397587 275.004902236 1165.6397587 275.004902236 1218 c 128,-1,51
 275.004902236 1270.3602413 275.004902236 1270.3602413 311.32233047 1306.67766953 c 128,-1,52
 347.639758704 1342.99509776 347.639758704 1342.99509776 398.876467867 1342.99509776 c 0,53,54
 451.380766575 1342.99509776 451.380766575 1342.99509776 488.187932169 1306.18878064 c 128,-1,55
 524.995097764 1269.38246352 524.995097764 1269.38246352 524.995097764 1217.51111111 c 128,-1,56
 524.995097764 1165.6397587 524.995097764 1165.6397587 487.67766953 1128.32233047 c 128,-1,48
 450.360241296 1091.00490224 450.360241296 1091.00490224 400 1091.00490224 c 128,-1,49
EndSplineSet
EndChar

StartChar: T
Encoding: 84 84 18
Width: 788
GlyphClass: 1
Flags: W
LayerCount: 2
Fore
SplineSet
688.995097764 1216 m 2,0,-1
 688.995097764 52 l 2,1,2
 688.995097764 19.6397587042 688.995097764 19.6397587042 666.67766953 -2.67766952966 c 128,-1,3
 644.360241296 -24.9950977635 644.360241296 -24.9950977635 614 -24.9950977635 c 0,4,5
 578.130324742 -24.9950977635 578.130324742 -24.9950977635 558.530173489 -5.39494651019 c 128,-1,6
 538.930022235 14.2052047431 538.930022235 14.2052047431 538.930022235 48.1771143348 c 0,7,8
 538.930022235 50.289393841 538.930022235 50.289393841 539.004902236 52.4581290514 c 2,9,-1
 539.004902236 763.866999734 l 1,10,-1
 -206.32322504 1101.22604682 l 2,11,12
 -219.225414333 1106.75007527 -219.225414333 1106.75007527 -228.93526953 1116.45993047 c 0,13,14
 -249.06679205 1136.59145299 -249.06679205 1136.59145299 -250.956327172 1170.60308518 c 0,15,16
 -250.995097764 1171.30095583 -250.995097764 1171.30095583 -250.995097764 1172 c 0,17,18
 -250.995097764 1202.87693451 -250.995097764 1202.87693451 -228.427402178 1223.93601614 c 128,-1,19
 -205.859706592 1244.99509776 -205.859706592 1244.99509776 -174 1244.99509776 c 0,20,21
 -156.399805619 1244.99509776 -156.399805619 1244.99509776 -143.290437637 1238.59855955 c 2,22,-1
 539.004902236 928.809867626 l 1,23,-1
 539.004902236 1216 l 2,24,25
 539.004902236 1252.87004522 539.004902236 1252.87004522 559.06742851 1272.93257149 c 128,-1,26
 579.129954783 1292.99509776 579.129954783 1292.99509776 614 1292.99509776 c 0,27,28
 644.360241296 1292.99509776 644.360241296 1292.99509776 666.67766953 1270.67766953 c 128,-1,29
 688.995097764 1248.3602413 688.995097764 1248.3602413 688.995097764 1216 c 2,0,-1
EndSplineSet
EndChar

StartChar: U
Encoding: 85 85 19
Width: 1700
GlyphClass: 1
Flags: W
LayerCount: 2
Fore
SplineSet
1694.99509776 812 m 2,0,-1
 1694.99509776 52 l 2,1,2
 1694.99509776 15.6397587042 1694.99509776 15.6397587042 1674.67766953 -4.67766952966 c 128,-1,3
 1654.3602413 -24.9950977635 1654.3602413 -24.9950977635 1618 -24.9950977635 c 128,-1,4
 1581.6397587 -24.9950977635 1581.6397587 -24.9950977635 1561.32233047 -4.67766952966 c 128,-1,5
 1541.00490224 15.6397587042 1541.00490224 15.6397587042 1541.00490224 52 c 2,6,-1
 1541.00490224 329.004902236 l 1,7,-1
 858 329.004902236 l 2,8,9
 821.639758704 329.004902236 821.639758704 329.004902236 801.32233047 349.32233047 c 128,-1,10
 781.004902236 369.639758704 781.004902236 369.639758704 781.004902236 405.754716981 c 128,-1,11
 781.004902236 441.869675258 781.004902236 441.869675258 800.60505349 461.469826511 c 128,-1,12
 820.205204743 481.069977765 820.205204743 481.069977765 854.177114335 481.069977765 c 0,13,14
 856.289393841 481.069977765 856.289393841 481.069977765 858.458129051 480.995097764 c 2,15,-1
 1541.00490224 480.995097764 l 1,16,-1
 1541.00490224 735.004902236 l 1,17,-1
 48 735.004902236 l 2,18,19
 11.6397587042 735.004902236 11.6397587042 735.004902236 -8.67766952966 755.32233047 c 128,-1,20
 -28.9950977635 775.639758704 -28.9950977635 775.639758704 -28.9950977635 811.754716981 c 128,-1,21
 -28.9950977635 847.869675258 -28.9950977635 847.869675258 -9.39494651019 867.469826511 c 128,-1,22
 10.2052047431 887.069977765 10.2052047431 887.069977765 44.1771143348 887.069977765 c 0,23,24
 46.289393841 887.069977765 46.289393841 887.069977765 48.4581290514 886.995097764 c 2,25,-1
 1618 886.995097764 l 2,26,27
 1650.52690796 886.995097764 1650.52690796 886.995097764 1674.23322509 863.288780641 c 0,28,29
 1694.99509776 842.526907962 1694.99509776 842.526907962 1694.99509776 812 c 2,0,-1
EndSplineSet
EndChar

StartChar: W
Encoding: 87 87 20
Width: 1218
GlyphClass: 1
Flags: W
LayerCount: 2
Fore
SplineSet
-360 886.995097764 m 2,0,-1
 2022 886.995097764 l 2,1,2
 2058.3602413 886.995097764 2058.3602413 886.995097764 2077.71531037 867.640028689 c 128,-1,3
 2097.07037945 848.284959614 2097.07037945 848.284959614 2097.07037945 815.694474065 c 0,4,5
 2097.07037945 813.615970499 2097.07037945 813.615970499 2096.99353471 811.481752214 c 0,6,7
 2096.80592175 780.414013316 2096.80592175 780.414013316 2075.10482065 758.709457776 c 128,-1,8
 2053.40371956 737.004902236 2053.40371956 737.004902236 2022 737.004902236 c 2,9,-1
 1231.17018141 737.004902236 l 1,10,11
 1217.62541124 585.256907857 1217.62541124 585.256907857 1151.95535746 451.98532813 c 0,12,13
 1082.50157966 311.035014358 1082.50157966 311.035014358 971.208256326 203.863839825 c 128,-1,14
 859.914932996 96.6926652911 859.914932996 96.6926652911 712.445864209 35.8487837638 c 128,-1,15
 564.976795423 -24.9950977635 564.976795423 -24.9950977635 395.9276585 -24.9950977635 c 128,-1,16
 226.878521577 -24.9950977635 226.878521577 -24.9950977635 75.1781813688 39.580047055 c 0,17,18
 -78.2972899979 104.910822029 -78.2972899979 104.910822029 -191.7590094 219.404039166 c 128,-1,19
 -305.083554493 333.758807396 -305.083554493 333.758807396 -371.039326128 486.281529303 c 128,-1,20
 -436.995097764 638.804251209 -436.995097764 638.804251209 -436.995097764 812 c 0,21,22
 -436.995097764 846.870045217 -436.995097764 846.870045217 -416.93257149 866.93257149 c 128,-1,23
 -396.870045217 886.995097764 -396.870045217 886.995097764 -360 886.995097764 c 2,0,-1
-85.7055484634 327.340299287 m 0,24,25
 13.1308685781 228.503882246 13.1308685781 228.503882246 145.242811704 175.232937437 c 0,26,27
 264.872654095 126.995097764 264.872654095 126.995097764 397.936581302 126.995097764 c 128,-1,28
 531.00050851 126.995097764 531.00050851 126.995097764 649.64779297 176.190313271 c 0,29,30
 781.091093716 230.691194068 781.091093716 230.691194068 880.604934021 330.206426926 c 0,31,32
 960.239223227 409.840716132 960.239223227 409.840716132 1013.85385137 513.610964148 c 128,-1,33
 1067.46847951 617.381212165 1067.46847951 617.381212165 1080.64093454 737.004902236 c 1,34,-1
 -281.038453311 737.004902236 l 1,35,36
 -269.64274658 617.065019577 -269.64274658 617.065019577 -217.601093901 512.114353341 c 128,-1,37
 -165.589446081 407.224196905 -165.589446081 407.224196905 -85.7055484634 327.340299287 c 0,24,25
EndSplineSet
EndChar

StartChar: X
Encoding: 88 88 21
Width: 1704
GlyphClass: 1
Flags: W
LayerCount: 2
Fore
SplineSet
1646.99509776 472 m 2,0,-1
 1646.99509776 52 l 2,1,2
 1646.99509776 15.6397587042 1646.99509776 15.6397587042 1626.67766953 -4.67766952966 c 128,-1,3
 1606.3602413 -24.9950977635 1606.3602413 -24.9950977635 1570 -24.9950977635 c 0,4,5
 1539.6397587 -24.9950977635 1539.6397587 -24.9950977635 1518.32233047 -3.67766952966 c 128,-1,6
 1497.00490224 17.6397587042 1497.00490224 17.6397587042 1497.00490224 52 c 2,7,-1
 1497.00490224 329.004902236 l 1,8,-1
 52 329.004902236 l 2,9,10
 15.6397587042 329.004902236 15.6397587042 329.004902236 -4.67766952966 349.32233047 c 128,-1,11
 -24.9950977635 369.639758704 -24.9950977635 369.639758704 -24.9950977635 406 c 2,12,-1
 -24.9950977635 1570 l 2,13,14
 -24.9950977635 1606.3602413 -24.9950977635 1606.3602413 -4.67766952966 1626.67766953 c 128,-1,15
 15.6397587042 1646.99509776 15.6397587042 1646.99509776 52 1646.99509776 c 0,16,17
 83.3948535441 1646.99509776 83.3948535441 1646.99509776 105.194975654 1625.19766953 c 128,-1,18
 126.995097764 1603.4002413 126.995097764 1603.4002413 126.995097764 1570 c 2,19,-1
 126.995097764 1292.99509776 l 1,20,-1
 812 1292.99509776 l 2,21,22
 983.153343913 1292.99509776 983.153343913 1292.99509776 1134.65466699 1228.0659593 c 0,23,24
 1289.85060023 1161.55341649 1289.85060023 1161.55341649 1405.01675341 1046.38736614 c 0,25,26
 1514.52488652 936.879233028 1514.52488652 936.879233028 1580.75999214 789.123997409 c 128,-1,27
 1646.99509776 641.368761791 1646.99509776 641.368761791 1646.99509776 472 c 2,0,-1
804 1141.00490224 m 2,28,-1
 126.995097764 1141.00490224 l 1,29,-1
 126.995097764 480.995097764 l 1,30,-1
 1496.57170639 480.995097764 l 1,31,32
 1492.0868824 609.677465789 1492.0868824 609.677465789 1439.72564532 727.038859242 c 0,33,34
 1385.12685141 849.415466301 1385.12685141 849.415466301 1290.60419556 941.044810261 c 128,-1,35
 1195.90270017 1032.84728029 1195.90270017 1032.84728029 1070.36260326 1086.92609126 c 128,-1,36
 944.822506356 1141.00490224 944.822506356 1141.00490224 804 1141.00490224 c 2,28,-1
EndSplineSet
EndChar

StartChar: Y
Encoding: 89 89 22
Width: 372
GlyphClass: 1
Flags: W
LayerCount: 2
Fore
SplineSet
602.995097764 814 m 2,0,-1
 602.995097764 8 l 2,1,2
 602.995097764 -12.2991377729 602.995097764 -12.2991377729 593.934943233 -26.2373758104 c 0,3,4
 490.878275952 -260.347192978 490.878275952 -260.347192978 312.16358621 -439.061882719 c 0,5,6
 216.95097415 -534.274494779 216.95097415 -534.274494779 104.700961031 -607.916223131 c 0,7,8
 -55.2250275175 -712.835820714 -55.2250275175 -712.835820714 -242.710176439 -770.915459239 c 128,-1,9
 -430.195325361 -828.995097764 -430.195325361 -828.995097764 -630.98051233 -828.995097764 c 128,-1,10
 -831.765699298 -828.995097764 -831.765699298 -828.995097764 -1021.35412792 -770.895418024 c 128,-1,11
 -1210.76112832 -712.851337257 -1210.76112832 -712.851337257 -1371.73251939 -606.895484909 c 128,-1,12
 -1532.73074751 -500.921967662 -1532.73074751 -500.921967662 -1659.07117355 -352.166304745 c 128,-1,13
 -1785.51289324 -203.291376726 -1785.51289324 -203.291376726 -1862.98884559 -21.8345409529 c 0,14,15
 -1863.76519164 -20.0162567836 -1863.76519164 -20.0162567836 -1866.3801447 -9.55644453805 c 128,-1,16
 -1868.99509776 0.903367707544 -1868.99509776 0.903367707544 -1868.99509776 8 c 0,17,18
 -1868.99509776 44.3602412958 -1868.99509776 44.3602412958 -1848.67766953 64.6776695297 c 128,-1,19
 -1828.3602413 84.9950977635 -1828.3602413 84.9950977635 -1792 84.9950977635 c 0,20,21
 -1761.1597587 84.9950977635 -1761.1597587 84.9950977635 -1739.91593047 63.7512695297 c 0,22,23
 -1727.91159884 51.7469379035 -1727.91159884 51.7469379035 -1721.0672096 35.9647969386 c 0,24,25
 -1630.10706977 -173.748858777 -1630.10706977 -173.748858777 -1470.17374884 -333.682179707 c 0,26,27
 -1385.27108208 -418.584846468 -1385.27108208 -418.584846468 -1285.31180133 -484.075409717 c 0,28,29
 -1143.31013054 -577.110987128 -1143.31013054 -577.110987128 -977.748046086 -627.073509657 c 128,-1,30
 -812.289117734 -677.004902236 -812.289117734 -677.004902236 -634.010534689 -677.004902236 c 128,-1,31
 -455.731951643 -677.004902236 -455.731951643 -677.004902236 -291.29124976 -627.08540345 c 128,-1,32
 -126.687011464 -577.116259682 -126.687011464 -577.116259682 14.3466641574 -485.052610318 c 128,-1,33
 155.442410427 -392.948442615 155.442410427 -392.948442615 268.220935839 -263.642029857 c 128,-1,34
 380.999461252 -134.3356171 380.999461252 -134.3356171 453.004902236 23.428696422 c 1,35,-1
 453.004902236 814 l 2,36,37
 453.004902236 844.360241296 453.004902236 844.360241296 474.32233047 865.67766953 c 128,-1,38
 495.639758704 886.995097764 495.639758704 886.995097764 526.749732648 886.995097764 c 0,39,40
 559.399191608 886.995097764 559.399191608 886.995097764 581.197144686 865.201479053 c 128,-1,41
 602.995097764 843.407860343 602.995097764 843.407860343 602.995097764 814 c 2,0,-1
EndSplineSet
EndChar

StartChar: Z
Encoding: 90 90 23
Width: 1712
GlyphClass: 1
Flags: W
LayerCount: 2
Fore
SplineSet
1652.99509776 804 m 2,0,1
 1652.99509776 632.81440816 1652.99509776 632.81440816 1588.40622478 483.132258065 c 0,2,3
 1523.04403021 331.657965883 1523.04403021 331.657965883 1408.59596083 218.2409906 c 128,-1,4
 1294.21140884 104.88693006 1294.21140884 104.88693006 1142.68237637 39.9459161485 c 128,-1,5
 991.153343913 -24.9950977635 991.153343913 -24.9950977635 818 -24.9950977635 c 128,-1,6
 644.878521577 -24.9950977635 644.878521577 -24.9950977635 492.317716252 39.9463261248 c 128,-1,7
 339.756910928 104.887750013 339.756910928 104.887750013 226.32233047 218.32233047 c 128,-1,8
 112.939753669 331.704907272 112.939753669 331.704907272 46.9723277706 484.346779003 c 128,-1,9
 -18.9950981273 636.988650735 -18.9950981273 636.988650735 -18.9950977635 808 c 2,10,-1
 -18.9950977635 812 l 2,11,12
 -18.9950977635 847.869675258 -18.9950977635 847.869675258 0.605053478408 867.4698265 c 128,-1,13
 20.2052047203 887.069977742 20.2052047203 887.069977742 54.177114254 887.069977742 c 0,14,15
 56.3097228102 887.069977742 56.3097228102 887.069977742 58.4998789846 886.993649481 c 0,16,17
 88.5359518755 886.81938721 88.5359518755 886.81938721 109.67766953 865.67766953 c 128,-1,18
 130.995097764 844.360241296 130.995097764 844.360241296 130.995097764 812 c 0,19,20
 130.995097764 669.261776472 130.995097764 669.261776472 186.018089639 543.770742371 c 0,21,22
 241.805366851 416.53660136 241.805366851 416.53660136 334.886855329 323.455131639 c 128,-1,23
 427.968343807 230.373661919 427.968343807 230.373661919 551.548659953 177.684379841 c 128,-1,24
 675.128976098 124.995097764 675.128976098 124.995097764 816.981682416 124.995097764 c 128,-1,25
 958.834388734 124.995097764 958.834388734 124.995097764 1082.28019254 178.038216588 c 128,-1,26
 1205.72599635 231.081335412 1205.72599635 231.081335412 1299.32233047 324.67766953 c 128,-1,27
 1392.97855304 418.333892097 1392.97855304 418.333892097 1446.99172764 541.792576896 c 128,-1,28
 1501.00490224 665.251261694 1501.00490224 665.251261694 1501.00490224 804 c 2,29,-1
 1501.00490224 1105.86219781 l 1,30,-1
 844.838889214 858.611236378 l 2,31,32
 831.039823299 853.08908297 831.039823299 853.08908297 816.387407106 853.08908297 c 128,-1,33
 801.734990912 853.08908297 801.734990912 853.08908297 788.106215285 859.544818794 c 128,-1,34
 774.477439657 866.000554617 774.477439657 866.000554617 763.905934993 876.572059281 c 128,-1,35
 753.334430328 887.143563946 753.334430328 887.143563946 746.802931038 904.639566937 c 0,36,37
 741.120959033 917.821876812 741.120959033 917.821876812 741.120959033 932.077090285 c 128,-1,38
 741.120959033 946.332303759 741.120959033 946.332303759 747.73121137 960.287280536 c 0,39,40
 761.838564829 990.06947036 761.838564829 990.06947036 789.551260451 999.53623503 c 0,41,42
 1551.59967963 1287.55453519 1551.59967963 1287.55453519 1552.06682251 1287.7102163 c 0,43,44
 1563.77971849 1291.61451496 1563.77971849 1291.61451496 1577.53390975 1291.61451496 c 128,-1,45
 1591.28810101 1291.61451496 1591.28810101 1291.61451496 1605.95108454 1285.74932155 c 0,46,47
 1639.70815825 1272.24649206 1639.70815825 1272.24649206 1648.24586293 1238.09357162 c 2,48,-1
 1652.24586293 1222.09357162 l 2,49,50
 1652.99509776 1219.09663229 1652.99509776 1219.09663229 1652.99509776 1216 c 2,51,-1
 1652.99509776 804 l 2,0,1
EndSplineSet
EndChar

StartChar: a
Encoding: 97 97 24
Width: 1794
GlyphClass: 1
Flags: W
LayerCount: 2
Fore
SplineSet
1674.99509776 812 m 0,0,1
 1674.99509776 638.878521577 1674.99509776 638.878521577 1610.05367388 486.317716253 c 128,-1,2
 1545.11224999 333.756910928 1545.11224999 333.756910928 1430.67766953 219.32233047 c 128,-1,3
 1316.26541433 104.910075274 1316.26541433 104.910075274 1164.70937912 39.9574887552 c 128,-1,4
 1013.15334391 -24.9950977635 1013.15334391 -24.9950977635 840 -24.9950977635 c 0,5,6
 809.639758704 -24.9950977635 809.639758704 -24.9950977635 787.32233047 -2.67766952966 c 128,-1,7
 765.004902236 19.6397587042 765.004902236 19.6397587042 765.004902236 52 c 2,8,-1
 765.004902236 761.923115054 l 1,9,-1
 21.4155431884 1101.3461168 l 2,10,11
 7.44616997318 1107.86515763 7.44616997318 1107.86515763 -2.34433619633 1117.6556638 c 0,12,13
 -22.9950977635 1138.30642537 -22.9950977635 1138.30642537 -22.9950977635 1172.08805031 c 128,-1,14
 -22.9950977635 1205.86967526 -22.9950977635 1205.86967526 -3.39494651019 1225.46982651 c 128,-1,15
 16.2052047431 1245.06997776 16.2052047431 1245.06997776 50.1771143348 1245.06997776 c 0,16,17
 52.5372853547 1245.06997776 52.5372853547 1245.06997776 57.390247587 1244.88921557 c 128,-1,18
 62.2432098192 1244.70845338 62.2432098192 1244.70845338 72.2739270411 1242.20077408 c 128,-1,19
 82.3046442631 1239.69309477 82.3046442631 1239.69309477 84.3733548137 1238.75119583 c 2,20,-1
 765.004902236 928.854709157 l 1,21,-1
 765.004902236 1216 l 2,22,23
 765.004902236 1248.3602413 765.004902236 1248.3602413 787.32233047 1270.67766953 c 128,-1,24
 809.639758704 1292.99509776 809.639758704 1292.99509776 840 1292.99509776 c 0,25,26
 875.869675258 1292.99509776 875.869675258 1292.99509776 895.469826511 1273.39494651 c 128,-1,27
 915.069977765 1253.79479526 915.069977765 1253.79479526 915.069977765 1219.82288567 c 0,28,29
 915.069977765 1217.71060616 915.069977765 1217.71060616 914.995097764 1215.54187095 c 2,30,-1
 914.995097764 131.504054919 l 1,31,32
 1027.56866926 144.601549839 1027.56866926 144.601549839 1133.72312372 196.794156613 c 0,33,34
 1247.00923563 252.493161638 1247.00923563 252.493161638 1333.93570894 343.282558395 c 128,-1,35
 1420.79051511 433.997578167 1420.79051511 433.997578167 1471.89770867 553.569125375 c 128,-1,36
 1523.00490224 673.140672583 1523.00490224 673.140672583 1523.00490224 806 c 2,37,-1
 1523.00490224 812 l 2,38,39
 1523.00490224 847.869675258 1523.00490224 847.869675258 1542.60505353 867.469826556 c 128,-1,40
 1562.20520483 887.069977853 1562.20520483 887.069977853 1596.17711465 887.069977853 c 0,41,42
 1598.05828811 887.069977853 1598.05828811 887.069977853 1599.98423937 887.010586837 c 128,-1,43
 1601.8610324 887.070379348 1601.8610324 887.070379348 1603.69447408 887.070379348 c 0,44,45
 1636.28495961 887.070379348 1636.28495961 887.070379348 1655.64002869 867.715310322 c 128,-1,46
 1674.99509776 848.360241296 1674.99509776 848.360241296 1674.99509776 812 c 0,0,1
EndSplineSet
EndChar

StartChar: b
Encoding: 98 98 25
Width: 1862
GlyphClass: 1
Flags: W
LayerCount: 2
Fore
SplineSet
52 -24.9950977635 m 2,0,-1
 50 -24.9950977635 l 2,1,2
 19.6397587042 -24.9950977635 19.6397587042 -24.9950977635 -2.67766952966 -2.67766952966 c 128,-1,3
 -24.9950977635 19.6397587042 -24.9950977635 19.6397587042 -24.9950977635 52 c 2,4,-1
 -24.9950977635 1216 l 2,5,6
 -24.9950977635 1252.3602413 -24.9950977635 1252.3602413 -4.67766952966 1272.67766953 c 128,-1,7
 15.6397587042 1292.99509776 15.6397587042 1292.99509776 52 1292.99509776 c 0,8,9
 83.3948535441 1292.99509776 83.3948535441 1292.99509776 105.194975654 1271.19766953 c 128,-1,10
 126.995097764 1249.4002413 126.995097764 1249.4002413 126.995097764 1216 c 2,11,-1
 126.995097764 886.995097764 l 1,12,-1
 1674 886.995097764 l 2,13,14
 1704.3602413 886.995097764 1704.3602413 886.995097764 1725.67766953 865.67766953 c 128,-1,15
 1746.99509776 844.360241296 1746.99509776 844.360241296 1746.99509776 813.250267352 c 0,16,17
 1746.99509776 780.600808392 1746.99509776 780.600808392 1725.20147905 758.802855314 c 128,-1,18
 1703.40786034 737.004902236 1703.40786034 737.004902236 1674 737.004902236 c 2,19,-1
 883.170181406 737.004902236 l 1,20,21
 869.625411235 585.256907857 869.625411235 585.256907857 803.955357456 451.985328129 c 0,22,23
 734.501579656 311.035014358 734.501579656 311.035014358 623.196892466 203.852896848 c 128,-1,24
 511.892205276 96.6707793383 511.892205276 96.6707793383 363.498255795 35.8704805925 c 128,-1,25
 214.944979807 -24.9950977635 214.944979807 -24.9950977635 52 -24.9950977635 c 2,0,-1
730.568618372 737.004902236 m 1,26,-1
 126.995097764 737.004902236 l 1,27,-1
 126.995097764 129.609838601 l 1,28,29
 233.756365772 142.47029445 233.756365772 142.47029445 332.202949015 189.553442958 c 0,30,31
 445.309007538 243.64764486 445.309007538 243.64764486 530.79523217 329.133887027 c 128,-1,32
 616.281456802 414.620129195 616.281456802 414.620129195 669.522587538 523.954594099 c 0,33,34
 717.784547865 623.063976914 717.784547865 623.063976914 730.568618372 737.004902236 c 1,26,-1
EndSplineSet
EndChar

StartChar: d
Encoding: 100 100 26
Width: 1844
GlyphClass: 1
Flags: W
LayerCount: 2
Fore
SplineSet
1644 886.995097764 m 2,0,1
 1675.39675222 886.995097764 1675.39675222 886.995097764 1697.19592499 865.19940866 c 128,-1,2
 1718.99509776 843.403719557 1718.99509776 843.403719557 1718.99509776 812.52173913 c 128,-1,3
 1718.99509776 781.639758704 1718.99509776 781.639758704 1696.67766953 759.32233047 c 128,-1,4
 1674.3602413 737.004902236 1674.3602413 737.004902236 1644 737.004902236 c 2,5,-1
 906.995097764 737.004902236 l 1,6,-1
 906.995097764 96.1154913383 l 1,7,-1
 1650.12744538 -241.137183569 l 2,8,9
 1663.69469383 -247.006021434 1663.69469383 -247.006021434 1673.45544731 -256.766774915 c 0,10,11
 1693.06050492 -276.371832531 1693.06050492 -276.371832531 1694.95164501 -308.521214017 c 0,12,13
 1694.99554901 -308.955928569 1694.99554901 -308.955928569 1694.99554901 -309.43194014 c 128,-1,14
 1694.99554901 -309.907951711 1694.99554901 -309.907951711 1694.99509776 -310 c 0,15,16
 1694.99509776 -342.875290478 1694.99509776 -342.875290478 1672.42740218 -363.935194121 c 128,-1,17
 1649.85970659 -384.995097764 1649.85970659 -384.995097764 1620 -384.995097764 c 0,18,19
 1612.90336771 -384.995097764 1612.90336771 -384.995097764 1602.30726754 -382.346072723 c 128,-1,20
 1591.71116738 -379.697047682 1591.71116738 -379.697047682 1589.65601003 -378.764542827 c 2,21,-1
 11.8719258146 337.137487782 l 2,22,23
 -0.977521011326 342.699105029 -0.977521011326 342.699105029 -10.2575511865 351.979135204 c 0,24,25
 -30.9950977635 372.716681781 -30.9950977635 372.716681781 -30.9950977635 408 c 0,26,27
 -30.9950977635 438.360241296 -30.9950977635 438.360241296 -9.67766952966 459.67766953 c 128,-1,28
 11.6397587042 480.995097764 11.6397587042 480.995097764 46 480.995097764 c 0,29,30
 63.6165143995 480.995097764 63.6165143995 480.995097764 76.7246472299 474.591249845 c 2,31,-1
 757.004902236 164.854709157 l 1,32,-1
 757.004902236 812 l 2,33,34
 757.004902236 847.869675258 757.004902236 847.869675258 776.604737215 867.469510237 c 128,-1,35
 796.204572194 887.069345216 796.204572194 887.069345216 830.192263063 887.069345216 c 0,36,37
 832.296613349 887.069345216 832.296613349 887.069345216 834.45700718 886.995097764 c 2,38,-1
 1644 886.995097764 l 2,0,1
EndSplineSet
EndChar

StartChar: e
Encoding: 101 101 27
Width: 2666
GlyphClass: 1
Flags: W
LayerCount: 2
Fore
SplineSet
2467.69447406 897.070379447 m 0,0,1
 2500.28495961 897.070379447 2500.28495961 897.070379447 2519.64002869 877.715310371 c 128,-1,2
 2538.99509776 858.360241296 2538.99509776 858.360241296 2538.99509776 821.745098039 c 128,-1,3
 2538.99509776 785.129954783 2538.99509776 785.129954783 2518.93257149 765.06742851 c 128,-1,4
 2498.87004522 745.004902236 2498.87004522 745.004902236 2464 745.004902236 c 2,5,-1
 1666.99509776 745.004902236 l 1,6,-1
 1666.99509776 52 l 2,7,8
 1666.99509776 15.1299547826 1666.99509776 15.1299547826 1646.93257149 -4.93257149045 c 128,-1,9
 1626.87004522 -24.9950977635 1626.87004522 -24.9950977635 1592 -24.9950977635 c 0,10,11
 1559.48591255 -24.9950977635 1559.48591255 -24.9950977635 1537.24540739 -2.75459260659 c 128,-1,12
 1515.00490224 19.4859125503 1515.00490224 19.4859125503 1515.00490224 52 c 2,13,-1
 1515.00490224 822 l 2,14,15
 1515.00490224 966.738223528 1515.00490224 966.738223528 1459.99539878 1092.19849458 c 128,-1,16
 1404.98589532 1217.65876562 1404.98589532 1217.65876562 1310.32233047 1312.32233047 c 128,-1,17
 1215.74298645 1406.90167449 1215.74298645 1406.90167449 1089.30081828 1460.95328836 c 128,-1,18
 962.858650111 1515.00490224 962.858650111 1515.00490224 823.018071878 1515.00490224 c 128,-1,19
 683.177493644 1515.00490224 683.177493644 1515.00490224 557.699650734 1460.95290837 c 0,20,21
 430.501445843 1406.15983549 430.501445843 1406.15983549 335.30841449 1310.9667891 c 128,-1,22
 240.115383137 1215.77374271 240.115383137 1215.77374271 183.55524045 1090.19105301 c 128,-1,23
 126.995097764 964.608363319 126.995097764 964.608363319 126.995097764 822 c 0,24,25
 126.995097764 785.129954783 126.995097764 785.129954783 106.93257149 765.06742851 c 128,-1,26
 86.8700452174 745.004902236 86.8700452174 745.004902236 51.2549019608 745.004902236 c 128,-1,27
 15.6397587042 745.004902236 15.6397587042 745.004902236 -4.67766952966 765.32233047 c 128,-1,28
 -24.9950977635 785.639758704 -24.9950977635 785.639758704 -24.9950977635 822 c 0,29,30
 -24.9950977635 997.237491848 -24.9950977635 997.237491848 41.9869183918 1150.78088273 c 128,-1,31
 108.968934547 1304.32427361 108.968934547 1304.32427361 224.32233047 1419.67766953 c 128,-1,32
 339.727206415 1535.08254547 339.727206415 1535.08254547 493.281661814 1601.03882162 c 128,-1,33
 646.836117213 1666.99509776 646.836117213 1666.99509776 818.874835195 1666.99509776 c 128,-1,34
 990.913553177 1666.99509776 990.913553177 1666.99509776 1140.3382307 1606.19471174 c 0,35,36
 1300.97966423 1540.83026637 1300.97966423 1540.83026637 1421.28462354 1420.52641172 c 0,37,38
 1523.80198891 1318.00904635 1523.80198891 1318.00904635 1587.78586781 1184.31138896 c 128,-1,39
 1651.7697467 1050.61373156 1651.7697467 1050.61373156 1665.20032059 896.995097764 c 1,40,-1
 2463.52538037 896.995097764 l 2,41,42
 2465.63721794 897.070379447 2465.63721794 897.070379447 2467.69447406 897.070379447 c 0,0,1
EndSplineSet
EndChar

StartChar: f
Encoding: 102 102 28
Width: 1892
GlyphClass: 1
Flags: W
LayerCount: 2
Fore
SplineSet
1597.00490224 1141.00490224 m 1,0,-1
 50 1141.00490224 l 2,1,2
 18.6032477816 1141.00490224 18.6032477816 1141.00490224 -3.19592499098 1162.80059134 c 128,-1,3
 -24.9950977635 1184.59628044 -24.9950977635 1184.59628044 -24.9950977635 1216.22799352 c 0,4,5
 -24.9950977635 1249.39675222 -24.9950977635 1249.39675222 -3.1994086601 1271.19592499 c 128,-1,6
 18.5962804433 1292.99509776 18.5962804433 1292.99509776 50 1292.99509776 c 2,7,-1
 1674 1292.99509776 l 2,8,9
 1704.3602413 1292.99509776 1704.3602413 1292.99509776 1725.67766953 1271.67766953 c 128,-1,10
 1746.99509776 1250.3602413 1746.99509776 1250.3602413 1746.99509776 1216 c 2,11,-1
 1746.99509776 96.1154913383 l 1,12,-1
 2490.34561931 -241.236196539 l 2,13,14
 2503.22541433 -246.750075274 2503.22541433 -246.750075274 2512.73046953 -256.25513047 c 0,15,16
 2532.99509776 -276.519758704 2532.99509776 -276.519758704 2532.99509776 -309.44 c 128,-1,17
 2532.99509776 -342.360241296 2532.99509776 -342.360241296 2511.67766953 -363.67766953 c 128,-1,18
 2490.3602413 -384.995097764 2490.3602413 -384.995097764 2460 -384.995097764 c 0,19,20
 2452.90336771 -384.995097764 2452.90336771 -384.995097764 2442.30726754 -382.346072723 c 128,-1,21
 2431.71116738 -379.697047682 2431.71116738 -379.697047682 2429.65601003 -378.764542827 c 2,22,-1
 851.656010033 337.235457173 l 2,23,24
 838.774585667 342.750075274 838.774585667 342.750075274 829.26953047 352.25513047 c 0,25,26
 809.004902236 372.519758704 809.004902236 372.519758704 809.004902236 407.44 c 128,-1,27
 809.004902236 442.360241296 809.004902236 442.360241296 828.359971312 461.715310371 c 128,-1,28
 847.715040387 481.070379447 847.715040387 481.070379447 880.305525938 481.070379447 c 0,29,30
 882.570206382 481.069346059 882.570206382 481.069346059 887.313592052 480.888327887 c 128,-1,31
 892.056977722 480.707309716 892.056977722 480.707309716 903.030031159 478.268853396 c 128,-1,32
 914.003084597 475.830397077 914.003084597 475.830397077 916.373354814 474.751195833 c 2,33,-1
 1597.00490224 164.854709157 l 1,34,-1
 1597.00490224 1141.00490224 l 1,0,-1
EndSplineSet
EndChar

StartChar: g
Encoding: 103 103 29
Width: 1780
GlyphClass: 1
Flags: W
LayerCount: 2
Fore
SplineSet
1652.99509776 1212 m 2,0,-1
 1652.99509776 808 l 2,1,2
 1652.99509776 636.846656087 1652.99509776 636.846656087 1588.04251124 485.290620877 c 128,-1,3
 1523.08992473 333.734585667 1523.08992473 333.734585667 1408.67766953 219.32233047 c 128,-1,4
 1294.24308907 104.887750013 1294.24308907 104.887750013 1141.68228375 39.9463261248 c 128,-1,5
 989.121478423 -24.9950977635 989.121478423 -24.9950977635 815 -24.9950977635 c 128,-1,6
 640.878521577 -24.9950977635 640.878521577 -24.9950977635 488.317716252 39.9463261248 c 128,-1,7
 335.756910928 104.887750013 335.756910928 104.887750013 222.32233047 218.32233047 c 128,-1,8
 108.939753669 331.704907272 108.939753669 331.704907272 42.9723277706 484.346779003 c 128,-1,9
 -22.9950981273 636.988650735 -22.9950981273 636.988650735 -22.9950977635 808 c 0,10,11
 -22.9950977635 844.360241296 -22.9950977635 844.360241296 -2.67766952966 864.67766953 c 128,-1,12
 17.6397587042 884.995097764 17.6397587042 884.995097764 54 884.995097764 c 0,13,14
 84.3602412958 884.995097764 84.3602412958 884.995097764 105.67766953 863.67766953 c 128,-1,15
 126.995097764 842.360241296 126.995097764 842.360241296 126.995097764 808 c 0,16,17
 126.995097764 665.33652338 126.995097764 665.33652338 181.992186691 541.834288594 c 0,18,19
 237.775380636 416.56676535 237.775380636 416.56676535 330.854455993 323.487707582 c 128,-1,20
 423.933531351 230.408649814 423.933531351 230.408649814 548.513183774 177.701873789 c 128,-1,21
 673.092836197 124.995097764 673.092836197 124.995097764 816 124.995097764 c 128,-1,22
 958.834388734 124.995097764 958.834388734 124.995097764 1082.28019254 178.038216588 c 128,-1,23
 1205.72599635 231.081335412 1205.72599635 231.081335412 1299.32233047 324.67766953 c 128,-1,24
 1392.95260581 418.307944871 1392.95260581 418.307944871 1446.97875402 542.761036289 c 128,-1,25
 1501.00490224 667.214127706 1501.00490224 667.214127706 1501.00490224 808 c 2,26,-1
 1501.00490224 1139.00490224 l 1,27,-1
 816 1139.00490224 l 2,28,29
 782.600808392 1139.00490224 782.600808392 1139.00490224 760.802855314 1160.79852095 c 128,-1,30
 739.004902236 1182.59213966 739.004902236 1182.59213966 739.004902236 1212 c 0,31,32
 739.004902236 1248.3602413 739.004902236 1248.3602413 759.32233047 1268.67766953 c 128,-1,33
 779.639758704 1288.99509776 779.639758704 1288.99509776 816 1288.99509776 c 2,34,-1
 1588 1288.99509776 l 2,35,36
 1594.00214151 1288.99509776 1594.00214151 1288.99509776 1598.98299558 1286.53908177 c 0,37,38
 1602.87128084 1285.79925977 1602.87128084 1285.79925977 1606.26046192 1283.85918034 c 0,39,40
 1612.13534344 1282.1674691 1612.13534344 1282.1674691 1617.18744258 1277.95630796 c 0,41,42
 1639.25765001 1263.29087635 1639.25765001 1263.29087635 1647.7102163 1237.93317749 c 0,43,44
 1648.99478222 1234.07947971 1648.99478222 1234.07947971 1650.99494878 1225.05023843 c 128,-1,45
 1652.99511534 1216.02099715 1652.99511534 1216.02099715 1652.99509776 1212 c 2,0,-1
723.600213268 -216.957491151 m 0,46,47
 763.552802182 -177.004902236 763.552802182 -177.004902236 814.837024083 -177.004902236 c 0,48,49
 867.380753152 -177.004902236 867.380753152 -177.004902236 905.187925458 -214.811219359 c 128,-1,50
 942.995097764 -252.617536482 942.995097764 -252.617536482 942.995097764 -304.001084011 c 0,51,52
 942.995097764 -356.603026303 942.995097764 -356.603026303 904.558171874 -393.799062033 c 128,-1,53
 866.121245984 -430.995097764 866.121245984 -430.995097764 816.114749926 -430.995097764 c 0,54,55
 763.552998666 -430.995097764 763.552998666 -430.995097764 723.347273781 -390.797850936 c 0,56,57
 687.004902236 -354.455479391 687.004902236 -354.455479391 687.004902236 -304.004140787 c 128,-1,58
 687.004902236 -253.552802182 687.004902236 -253.552802182 723.600213268 -216.957491151 c 0,46,47
EndSplineSet
EndChar

StartChar: h
Encoding: 104 104 30
Width: 1774
GlyphClass: 1
Flags: W
LayerCount: 2
Fore
SplineSet
1646.99509776 814 m 2,0,-1
 1646.99509776 52 l 2,1,2
 1646.99509776 15.6397587042 1646.99509776 15.6397587042 1626.67766953 -4.67766952966 c 128,-1,3
 1606.3602413 -24.9950977635 1606.3602413 -24.9950977635 1570 -24.9950977635 c 0,4,5
 1539.6397587 -24.9950977635 1539.6397587 -24.9950977635 1518.32233047 -3.67766952966 c 1,6,7
 1509.86128335 16.8012009777 1509.86128335 16.8012009777 1497.62038154 40.6997359149 c 0,8,9
 1495.00489308 45.9901027279 1495.00489308 45.9901027279 1495.00490224 52 c 2,10,-1
 1495.00490224 812 l 2,11,12
 1495.00490224 954.701102285 1495.00490224 954.701102285 1439.99478112 1079.19769218 c 0,13,14
 1384.20954731 1205.44848448 1384.20954731 1205.44848448 1291.12060175 1298.53741128 c 128,-1,15
 1198.03165619 1391.62633808 1198.03165619 1391.62633808 1074.45134005 1444.31562016 c 128,-1,16
 950.871023902 1497.00490224 950.871023902 1497.00490224 813 1497.00490224 c 128,-1,17
 675.128976098 1497.00490224 675.128976098 1497.00490224 551.548659953 1444.31562016 c 0,18,19
 426.309771377 1390.9191948 426.309771377 1390.9191948 332.633205316 1296.27691124 c 128,-1,20
 238.956639256 1201.63462769 238.956639256 1201.63462769 182.97586851 1077.12567206 c 128,-1,21
 126.995097764 952.61671644 126.995097764 952.61671644 126.995097764 812 c 0,22,23
 126.995097764 805.691987614 126.995097764 805.691987614 124.282385033 800.512005114 c 0,24,25
 120.967708369 774.57187859 120.967708369 774.57187859 101.187784356 754.788390413 c 128,-1,26
 81.4078603434 735.004902236 81.4078603434 735.004902236 52 735.004902236 c 0,27,28
 15.6397587042 735.004902236 15.6397587042 735.004902236 -4.67766952966 755.32233047 c 128,-1,29
 -24.9950977635 775.639758704 -24.9950977635 775.639758704 -24.9950977635 812 c 0,30,31
 -24.9950977635 985.153343913 -24.9950977635 985.153343913 39.9574887552 1136.70937912 c 128,-1,32
 104.910075274 1288.26541433 104.910075274 1288.26541433 219.32233047 1402.67766953 c 128,-1,33
 333.756910928 1517.11224999 333.756910928 1517.11224999 486.317716253 1582.05367388 c 128,-1,34
 638.878521577 1646.99509776 638.878521577 1646.99509776 812 1646.99509776 c 128,-1,35
 985.153343913 1646.99509776 985.153343913 1646.99509776 1136.68237637 1582.05408385 c 0,36,37
 1290.03595094 1516.33112332 1290.03595094 1516.33112332 1403.93352607 1402.43356295 c 128,-1,38
 1517.8311012 1288.53600257 1517.8311012 1288.53600257 1582.41309948 1137.84467324 c 128,-1,39
 1646.99509776 987.153343913 1646.99509776 987.153343913 1646.99509776 814 c 2,0,-1
723.32233047 900.67766953 m 128,-1,41
 761.639758704 938.995097764 761.639758704 938.995097764 811.512195122 938.995097764 c 0,42,43
 862.603026303 938.995097764 862.603026303 938.995097764 899.799062033 900.558171874 c 128,-1,44
 936.995097764 862.121245984 936.995097764 862.121245984 936.995097764 812 c 0,45,46
 936.995097764 760.617425075 936.995097764 760.617425075 899.189864652 722.811163656 c 128,-1,47
 861.38463154 685.004902236 861.38463154 685.004902236 811.631692778 685.004902236 c 0,48,49
 760.618384371 685.004902236 760.618384371 685.004902236 722.811643304 722.810702563 c 128,-1,50
 685.004902236 760.61650289 685.004902236 760.61650289 685.004902236 811.488372093 c 128,-1,40
 685.004902236 862.360241296 685.004902236 862.360241296 723.32233047 900.67766953 c 128,-1,41
EndSplineSet
EndChar

StartChar: j
Encoding: 106 106 31
Width: 1802
GlyphClass: 1
Flags: W
LayerCount: 2
Fore
SplineSet
1477.67766953 901.67766953 m 128,-1,1
 1514.99509776 864.360241296 1514.99509776 864.360241296 1514.99509776 812.123532133 c 128,-1,2
 1514.99509776 759.886822971 1514.99509776 759.886822971 1478.80216941 722.445862604 c 128,-1,3
 1442.60924105 685.004902236 1442.60924105 685.004902236 1389.61338877 685.004902236 c 128,-1,4
 1336.61753648 685.004902236 1336.61753648 685.004902236 1299.81121936 721.811219359 c 128,-1,5
 1263.00490224 758.617536482 1263.00490224 758.617536482 1263.00490224 811.488888889 c 128,-1,6
 1263.00490224 864.360241296 1263.00490224 864.360241296 1300.32233047 901.67766953 c 128,-1,7
 1337.6397587 938.995097764 1337.6397587 938.995097764 1389 938.995097764 c 128,-1,0
 1440.3602413 938.995097764 1440.3602413 938.995097764 1477.67766953 901.67766953 c 128,-1,1
906.995097764 812 m 2,8,-1
 906.995097764 98.0769035213 l 1,9,10
 1651.08926351 -241.575578467 1651.08926351 -241.575578467 1651.76739198 -241.937054177 c 0,11,12
 1694.01563053 -264.469448068 1694.01563053 -264.469448068 1696.93932983 -308.324937584 c 0,13,14
 1696.99509776 -309.16145655 1696.99509776 -309.16145655 1696.99509776 -310 c 0,15,16
 1696.99509776 -345.869675258 1696.99509776 -345.869675258 1677.39494651 -365.469826511 c 128,-1,17
 1657.79479526 -385.069977765 1657.79479526 -385.069977765 1623.82288567 -385.069977765 c 0,18,19
 1621.49570742 -385.069333079 1621.49570742 -385.069333079 1616.6262488 -384.88889323 c 128,-1,20
 1611.75679018 -384.708453382 1611.75679018 -384.708453382 1601.73397878 -382.202750532 c 128,-1,21
 1591.71116738 -379.697047682 1591.71116738 -379.697047682 1589.65601003 -378.764542827 c 2,22,-1
 11.6560100326 337.235457173 l 2,23,24
 7.69783494828 339.031435222 7.69783494828 339.031435222 4.56615713204 342.08168999 c 0,25,26
 -30.9950977635 363.813886562 -30.9950977635 363.813886562 -30.9950977635 408 c 0,27,28
 -30.9950977635 438.360241296 -30.9950977635 438.360241296 -9.67766952966 459.67766953 c 128,-1,29
 11.6397587042 480.995097764 11.6397587042 480.995097764 46 480.995097764 c 0,30,31
 63.6092306474 480.995097764 63.6092306474 480.995097764 76.7230223645 474.591989658 c 2,32,-1
 757.004902236 164.854709157 l 1,33,-1
 757.004902236 812 l 2,34,35
 757.004902236 985.227993843 757.004902236 985.227993843 822.960077038 1136.71878596 c 0,36,37
 890.539834517 1291.94104142 890.539834517 1291.94104142 1006.35443511 1407.75575118 c 0,38,39
 1117.15920978 1518.56052585 1117.15920978 1518.56052585 1268.01886568 1582.77781181 c 128,-1,40
 1418.87852158 1646.99509776 1418.87852158 1646.99509776 1594 1646.99509776 c 0,41,42
 1624.3602413 1646.99509776 1624.3602413 1646.99509776 1645.67766953 1625.67766953 c 128,-1,43
 1666.99509776 1604.3602413 1666.99509776 1604.3602413 1666.99509776 1572 c 128,-1,44
 1666.99509776 1539.6397587 1666.99509776 1539.6397587 1645.67766953 1518.32233047 c 1,45,46
 1626.08868996 1508.82530688 1626.08868996 1508.82530688 1605.73931566 1497.85118245 c 0,47,48
 1600.00985107 1495.00489382 1600.00985107 1495.00489382 1594 1495.00490224 c 0,49,50
 1453.1289761 1495.00490224 1453.1289761 1495.00490224 1328.65770797 1441.93575691 c 0,51,52
 1202.48149152 1388.13969563 1202.48149152 1388.13969563 1109.36266297 1295.02085225 c 128,-1,53
 1016.24383441 1201.90200887 1016.24383441 1201.90200887 961.619466087 1077.3201162 c 128,-1,54
 906.995097764 952.738223528 906.995097764 952.738223528 906.995097764 812 c 2,8,-1
EndSplineSet
EndChar

StartChar: k
Encoding: 107 107 32
Width: 1774
GlyphClass: 1
Flags: W
LayerCount: 2
Fore
SplineSet
1570 886.995097764 m 0,0,1
 1606.87004522 886.995097764 1606.87004522 886.995097764 1626.93257149 866.93257149 c 128,-1,2
 1646.99509776 846.870045217 1646.99509776 846.870045217 1646.99509776 812 c 0,3,4
 1646.99509776 638.878521577 1646.99509776 638.878521577 1582.05367388 486.317716253 c 128,-1,5
 1517.11224999 333.756910928 1517.11224999 333.756910928 1402.67766953 219.32233047 c 128,-1,6
 1288.24308907 104.887750013 1288.24308907 104.887750013 1135.68228375 39.9463261248 c 128,-1,7
 983.121478423 -24.9950977635 983.121478423 -24.9950977635 811 -24.9950977635 c 128,-1,8
 638.878521577 -24.9950977635 638.878521577 -24.9950977635 486.317716252 39.9463261248 c 128,-1,9
 333.756910928 104.887750013 333.756910928 104.887750013 219.32233047 219.32233047 c 128,-1,10
 104.887750013 333.756910928 104.887750013 333.756910928 39.9463261248 486.317716252 c 128,-1,11
 -24.9950977635 638.878521577 -24.9950977635 638.878521577 -24.9950977635 812 c 0,12,13
 -24.9950977635 847.869675258 -24.9950977635 847.869675258 -5.39494652159 867.4698265 c 128,-1,14
 14.2052047203 887.069977742 14.2052047203 887.069977742 48.177114254 887.069977742 c 0,15,16
 50.3097228102 887.069977742 50.3097228102 887.069977742 52.4998789846 886.993649481 c 0,17,18
 82.5359518755 886.81938721 82.5359518755 886.81938721 103.67766953 865.67766953 c 0,19,20
 121.086452454 848.268886606 121.086452454 848.268886606 124.278430638 823.49554176 c 0,21,22
 126.995097381 818.312607898 126.995097381 818.312607898 126.995097764 812 c 0,23,24
 126.995097764 669.261776472 126.995097764 669.261776472 182.004601223 543.801505425 c 128,-1,25
 237.014104682 418.341234378 237.014104682 418.341234378 329.67766953 325.67766953 c 128,-1,26
 422.248343807 233.106995252 422.248343807 233.106995252 546.688659953 180.051046508 c 128,-1,27
 671.128976098 126.995097764 671.128976098 126.995097764 809.981682416 126.995097764 c 128,-1,28
 948.834388734 126.995097764 948.834388734 126.995097764 1072.28019254 180.038216588 c 128,-1,29
 1195.72599635 233.081335412 1195.72599635 233.081335412 1289.32233047 326.67766953 c 128,-1,30
 1383.07058602 420.42592508 1383.07058602 420.42592508 1439.03774413 544.90460432 c 128,-1,31
 1495.00490224 669.38328356 1495.00490224 669.38328356 1495.00490224 812 c 0,32,33
 1495.00490224 818.312609144 1495.00490224 818.312609144 1497.72157001 823.495543774 c 0,34,35
 1500.91354827 848.268887331 1500.91354827 848.268887331 1518.32233047 865.67766953 c 0,36,37
 1539.6397587 886.995097764 1539.6397587 886.995097764 1570 886.995097764 c 0,0,1
EndSplineSet
EndChar

StartChar: l
Encoding: 108 108 33
Width: 1774
GlyphClass: 1
Flags: W
LayerCount: 2
Fore
SplineSet
1570 886.995097764 m 0,0,1
 1606.87004522 886.995097764 1606.87004522 886.995097764 1626.93257149 866.93257149 c 128,-1,2
 1646.99509776 846.870045217 1646.99509776 846.870045217 1646.99509776 812 c 2,3,-1
 1646.99509776 808 l 2,4,5
 1646.99509776 634.846656087 1646.99509776 634.846656087 1582.41309948 484.155326759 c 0,6,7
 1517.06672857 331.680461303 1517.06672857 331.680461303 1402.59596083 218.2409906 c 128,-1,8
 1288.18900443 104.864727496 1288.18900443 104.864727496 1135.65524143 39.9348148663 c 128,-1,9
 983.121478423 -24.9950977635 983.121478423 -24.9950977635 811 -24.9950977635 c 128,-1,10
 638.878521577 -24.9950977635 638.878521577 -24.9950977635 486.317716252 39.9463261248 c 128,-1,11
 333.756910928 104.887750013 333.756910928 104.887750013 219.32233047 219.32233047 c 128,-1,12
 104.887750013 333.756910928 104.887750013 333.756910928 39.9463261248 486.317716252 c 128,-1,13
 -24.9950977635 638.878521577 -24.9950977635 638.878521577 -24.9950977635 812 c 2,14,-1
 -24.9950977635 1216 l 2,15,16
 -24.9950977635 1219.09663229 -24.9950977635 1219.09663229 -24.2458629311 1222.09357162 c 0,17,18
 -20.1052271164 1238.65611488 -20.1052271164 1238.65611488 -19.9381931265 1239.21305968 c 0,19,20
 -14.7764418744 1256.41889718 -14.7764418744 1256.41889718 -4.00264781906 1267.19269124 c 128,-1,21
 6.77114623633 1277.9664853 6.77114623633 1277.9664853 21.7569554421 1284.71009944 c 128,-1,22
 36.7427646479 1291.45371358 36.7427646479 1291.45371358 50.7227251446 1291.45371358 c 0,23,24
 66.081420531 1291.45371358 66.081420531 1291.45371358 76.8621347492 1287.37999117 c 2,25,-1
 838.862134749 999.379991174 l 2,26,27
 868.720044257 987.445939527 868.720044257 987.445939527 880.843182933 960.168877505 c 0,28,29
 887.102933318 946.084439139 887.102933318 946.084439139 887.102933318 932.108731384 c 128,-1,30
 887.102933318 918.13302363 887.102933318 918.13302363 880.730719748 902.968094889 c 128,-1,31
 874.358506178 887.803166148 874.358506178 887.803166148 864.373888443 877.818548898 c 0,32,33
 839.900287034 853.34494868 839.900287034 853.34494868 810.945862209 853.34494868 c 0,34,35
 797.638515259 853.34494868 797.638515259 853.34494868 783.431458834 858.511151016 c 0,36,37
 455.348452323 982.13663173 455.348452323 982.13663173 126.995097764 1105.86219781 c 1,38,-1
 126.995097764 812 l 2,39,40
 126.995097764 669.128976098 126.995097764 669.128976098 180.051046508 544.688659953 c 128,-1,41
 233.106995252 420.248343807 233.106995252 420.248343807 326.67766953 326.67766953 c 128,-1,42
 420.307944871 233.047394188 420.307944871 233.047394188 544.761036289 179.021245976 c 128,-1,43
 669.214127706 124.995097764 669.214127706 124.995097764 812 124.995097764 c 128,-1,44
 954.834388734 124.995097764 954.834388734 124.995097764 1078.28019254 178.038216588 c 128,-1,45
 1201.72599635 231.081335412 1201.72599635 231.081335412 1295.32233047 324.67766953 c 128,-1,46
 1388.92698154 418.2823206 1388.92698154 418.2823206 1442.96594189 543.729907122 c 128,-1,47
 1497.00490224 669.177493644 1497.00490224 669.177493644 1497.00490224 812 c 0,48,49
 1497.00490224 844.360241296 1497.00490224 844.360241296 1518.32233047 865.67766953 c 128,-1,50
 1539.6397587 886.995097764 1539.6397587 886.995097764 1570 886.995097764 c 0,0,1
EndSplineSet
EndChar

StartChar: m
Encoding: 109 109 34
Width: 1768
GlyphClass: 1
Flags: W
LayerCount: 2
Fore
SplineSet
1646.99509776 1572 m 2,0,-1
 1646.99509776 812 l 2,1,2
 1646.99509776 638.878521577 1646.99509776 638.878521577 1582.05367388 486.317716253 c 128,-1,3
 1517.11224999 333.756910928 1517.11224999 333.756910928 1402.67766953 219.32233047 c 128,-1,4
 1288.24308907 104.887750013 1288.24308907 104.887750013 1135.68228375 39.9463261248 c 128,-1,5
 983.121478423 -24.9950977635 983.121478423 -24.9950977635 811 -24.9950977635 c 128,-1,6
 638.878521577 -24.9950977635 638.878521577 -24.9950977635 486.317716252 39.9463261248 c 128,-1,7
 333.756910928 104.887750013 333.756910928 104.887750013 219.32233047 219.32233047 c 128,-1,8
 104.887750013 333.756910928 104.887750013 333.756910928 39.9463261248 486.317716252 c 128,-1,9
 -24.9950977635 638.878521577 -24.9950977635 638.878521577 -24.9950977635 812 c 0,10,11
 -24.9950977635 847.869675258 -24.9950977635 847.869675258 -5.39494652159 867.4698265 c 128,-1,12
 14.2052047203 887.069977742 14.2052047203 887.069977742 48.177114254 887.069977742 c 0,13,14
 50.3097228102 887.069977742 50.3097228102 887.069977742 52.4998789846 886.993649481 c 0,15,16
 82.5359518755 886.81938721 82.5359518755 886.81938721 103.67766953 865.67766953 c 0,17,18
 121.086452454 848.268886606 121.086452454 848.268886606 124.278430638 823.49554176 c 0,19,20
 126.995097381 818.312607898 126.995097381 818.312607898 126.995097764 812 c 0,21,22
 126.995097764 669.261776472 126.995097764 669.261776472 182.004601223 543.801505425 c 128,-1,23
 237.014104682 418.341234378 237.014104682 418.341234378 329.67766953 325.67766953 c 128,-1,24
 422.248343807 233.106995252 422.248343807 233.106995252 546.688659953 180.051046508 c 128,-1,25
 671.128976098 126.995097764 671.128976098 126.995097764 809.981682416 126.995097764 c 128,-1,26
 948.834388734 126.995097764 948.834388734 126.995097764 1072.28019254 180.038216588 c 128,-1,27
 1195.72599635 233.081335412 1195.72599635 233.081335412 1289.32233047 326.67766953 c 128,-1,28
 1383.07058602 420.42592508 1383.07058602 420.42592508 1439.03774413 544.90460432 c 128,-1,29
 1495.00490224 669.38328356 1495.00490224 669.38328356 1495.00490224 812 c 2,30,-1
 1495.00490224 1497.00490224 l 1,31,-1
 52 1497.00490224 l 2,32,33
 15.1299547826 1497.00490224 15.1299547826 1497.00490224 -4.93257149045 1517.06742851 c 128,-1,34
 -24.9950977635 1537.12995478 -24.9950977635 1537.12995478 -24.9950977635 1572 c 0,35,36
 -24.9950977635 1603.39485354 -24.9950977635 1603.39485354 -3.19766952966 1625.19497565 c 128,-1,37
 18.5997587042 1646.99509776 18.5997587042 1646.99509776 52 1646.99509776 c 2,38,-1
 1570 1646.99509776 l 2,39,40
 1602.3602413 1646.99509776 1602.3602413 1646.99509776 1624.67766953 1624.67766953 c 128,-1,41
 1646.99509776 1602.3602413 1646.99509776 1602.3602413 1646.99509776 1572 c 2,0,-1
EndSplineSet
EndChar

StartChar: n
Encoding: 110 110 35
Width: 1768
GlyphClass: 1
Flags: W
LayerCount: 2
Fore
SplineSet
1646.99509776 52 m 0,0,1
 1646.99509776 15.6397587042 1646.99509776 15.6397587042 1626.67766953 -4.67766952966 c 128,-1,2
 1606.3602413 -24.9950977635 1606.3602413 -24.9950977635 1570 -24.9950977635 c 0,3,4
 1539.6397587 -24.9950977635 1539.6397587 -24.9950977635 1518.32233047 -3.67766952966 c 1,5,6
 1509.86128335 16.8012009777 1509.86128335 16.8012009777 1497.62038154 40.6997359149 c 0,7,8
 1495.00489308 45.9901027279 1495.00489308 45.9901027279 1495.00490224 52 c 0,9,10
 1495.00490224 189.037601395 1495.00490224 189.037601395 1445.81005303 308.648607317 c 0,11,12
 1392.2079593 438.97526658 1392.2079593 438.97526658 1295.13342426 536.048550118 c 0,13,14
 1214.5159249 616.666049472 1214.5159249 616.666049472 1109.7775042 668.162439651 c 128,-1,15
 1005.03908349 719.658829831 1005.03908349 719.658829831 886.995097764 732.629351274 c 1,16,-1
 886.995097764 52 l 2,17,18
 886.995097764 15.1299547826 886.995097764 15.1299547826 866.93257149 -4.93257149045 c 128,-1,19
 846.870045217 -24.9950977635 846.870045217 -24.9950977635 811.254901961 -24.9950977635 c 128,-1,20
 775.639758704 -24.9950977635 775.639758704 -24.9950977635 755.32233047 -4.67766952966 c 128,-1,21
 735.004902236 15.6397587042 735.004902236 15.6397587042 735.004902236 52 c 2,22,-1
 735.004902236 732.540684592 l 1,23,24
 620.754932666 719.490120582 620.754932666 719.490120582 515.480121916 667.295046345 c 0,25,26
 403.017749729 611.536391226 403.017749729 611.536391226 315.06019012 519.713159405 c 128,-1,27
 227.294446513 428.089580915 227.294446513 428.089580915 177.144772138 307.537479052 c 128,-1,28
 126.995097764 186.985377189 126.995097764 186.985377189 126.995097764 52 c 0,29,30
 126.995097764 45.6919876145 126.995097764 45.6919876145 124.282385033 40.5120051141 c 0,31,32
 120.967708369 14.5718785899 120.967708369 14.5718785899 102.330730754 -4.07222735279 c 1,33,34
 64.9954411823 -25.1809618206 64.9954411823 -25.1809618206 53.8592519303 -25.1809618206 c 0,35,36
 52.814283402 -25.1809618206 52.814283402 -25.1809618206 52 -24.9950977635 c 0,37,38
 15.6397587042 -24.9950977635 15.6397587042 -24.9950977635 -4.67766952966 -4.67766952966 c 128,-1,39
 -24.9950977635 15.6397587042 -24.9950977635 15.6397587042 -24.9950977635 52 c 0,40,41
 -24.9950977635 218.976795423 -24.9950977635 218.976795423 35.8368663907 366.416979729 c 0,42,43
 100.525666484 523.205088429 100.525666484 523.205088429 216.850750103 639.530764487 c 0,44,45
 318.358705463 741.038719847 318.358705463 741.038719847 451.767437556 805.343648266 c 128,-1,46
 585.176169649 869.648576685 585.176169649 869.648576685 735.004902236 883.150940587 c 1,47,-1
 735.004902236 1216 l 2,48,49
 735.004902236 1252.3602413 735.004902236 1252.3602413 755.32233047 1272.67766953 c 128,-1,50
 775.639758704 1292.99509776 775.639758704 1292.99509776 811.754716981 1292.99509776 c 128,-1,51
 847.869675258 1292.99509776 847.869675258 1292.99509776 867.469826511 1273.39494651 c 128,-1,52
 887.069977765 1253.79479526 887.069977765 1253.79479526 887.069977765 1219.82288567 c 0,53,54
 887.069977765 1217.71060616 887.069977765 1217.71060616 886.995097764 1215.54187095 c 2,55,-1
 886.995097764 883.175270511 l 1,56,57
 1038.66825188 869.703409143 1038.66825188 869.703409143 1171.14108502 805.386888708 c 0,58,59
 1312.96717564 736.529293984 1312.96717564 736.529293984 1420.09469184 624.250751302 c 128,-1,60
 1527.36150639 511.826878359 1527.36150639 511.826878359 1587.13976629 365.473207586 c 128,-1,61
 1646.99509776 218.930844316 1646.99509776 218.930844316 1646.99509776 52 c 0,0,1
EndSplineSet
EndChar

StartChar: p
Encoding: 112 112 36
Width: 1822
GlyphClass: 1
Flags: W
LayerCount: 2
Fore
SplineSet
1698.99509776 812 m 2,0,-1
 1698.99509776 52 l 2,1,2
 1698.99509776 15.6397587042 1698.99509776 15.6397587042 1678.67766953 -4.67766952966 c 128,-1,3
 1658.3602413 -24.9950977635 1658.3602413 -24.9950977635 1622 -24.9950977635 c 128,-1,4
 1585.6397587 -24.9950977635 1585.6397587 -24.9950977635 1565.32233047 -4.67766952966 c 128,-1,5
 1545.00490224 15.6397587042 1545.00490224 15.6397587042 1545.00490224 52 c 2,6,-1
 1545.00490224 735.004902236 l 1,7,-1
 52 735.004902236 l 2,8,9
 15.6397587042 735.004902236 15.6397587042 735.004902236 -4.67766952966 755.32233047 c 128,-1,10
 -24.9950977635 775.639758704 -24.9950977635 775.639758704 -24.9950977635 811.754716981 c 128,-1,11
 -24.9950977635 847.869675258 -24.9950977635 847.869675258 -5.39494651019 867.469826511 c 128,-1,12
 14.2052047431 887.069977765 14.2052047431 887.069977765 48.1771143348 887.069977765 c 0,13,14
 50.289393841 887.069977765 50.289393841 887.069977765 52.4581290514 886.995097764 c 2,15,-1
 1622 886.995097764 l 2,16,17
 1654.52690796 886.995097764 1654.52690796 886.995097764 1678.23322509 863.288780641 c 0,18,19
 1698.99509776 842.526907962 1698.99509776 842.526907962 1698.99509776 812 c 2,0,-1
771.32233047 315.32233047 m 128,-1,21
 735.004902236 351.639758704 735.004902236 351.639758704 735.004902236 403.876467867 c 128,-1,22
 735.004902236 456.113177029 735.004902236 456.113177029 771.197830591 493.554137396 c 128,-1,23
 807.390758946 530.995097764 807.390758946 530.995097764 859.875500121 530.995097764 c 128,-1,24
 912.360241296 530.995097764 912.360241296 530.995097764 949.67766953 493.67766953 c 128,-1,25
 986.995097764 456.360241296 986.995097764 456.360241296 986.995097764 404 c 128,-1,26
 986.995097764 351.639758704 986.995097764 351.639758704 950.67766953 315.32233047 c 128,-1,27
 914.360241296 279.004902236 914.360241296 279.004902236 861 279.004902236 c 128,-1,20
 807.639758704 279.004902236 807.639758704 279.004902236 771.32233047 315.32233047 c 128,-1,21
EndSplineSet
EndChar

StartChar: q
Encoding: 113 113 37
Width: 1780
GlyphClass: 1
Flags: W
LayerCount: 2
Fore
SplineSet
1644.99509776 812 m 0,0,1
 1644.99509776 645.055020193 1644.99509776 645.055020193 1584.12951941 496.501744205 c 0,2,3
 1520.30998987 340.738824661 1520.30998987 340.738824661 1404.3350837 224.763528425 c 0,4,5
 1301.2862516 121.714696322 1301.2862516 121.714696322 1168.07164021 56.0727139015 c 128,-1,6
 1034.85702883 -9.5692685194 1034.85702883 -9.5692685194 884.995097764 -21.4255317057 c 1,7,-1
 884.995097764 -127.004902236 l 1,8,-1
 1214 -127.004902236 l 2,9,10
 1250.87004522 -127.004902236 1250.87004522 -127.004902236 1270.93257149 -147.06742851 c 128,-1,11
 1290.99509776 -167.129954783 1290.99509776 -167.129954783 1290.99509776 -202 c 0,12,13
 1290.99509776 -232.360241296 1290.99509776 -232.360241296 1268.67766953 -254.67766953 c 128,-1,14
 1246.3602413 -276.995097764 1246.3602413 -276.995097764 1214 -276.995097764 c 2,15,-1
 404 -276.995097764 l 2,16,17
 370.603247782 -276.995097764 370.603247782 -276.995097764 348.804075009 -255.19940866 c 128,-1,18
 327.004902236 -233.403719557 327.004902236 -233.403719557 327.004902236 -199.767022149 c 128,-1,19
 327.004902236 -166.130324742 327.004902236 -166.130324742 346.60505349 -146.530173489 c 128,-1,20
 366.205204743 -126.930022235 366.205204743 -126.930022235 400.177114335 -126.930022235 c 0,21,22
 402.289393841 -126.930022235 402.289393841 -126.930022235 404.458129051 -127.004902236 c 2,23,-1
 733.004902236 -127.004902236 l 1,24,-1
 733.004902236 -21.4475325322 l 1,25,26
 581.266168153 -9.62997427954 581.266168153 -9.62997427954 447.989958278 56.0423610214 c 0,27,28
 307.035014358 125.498420344 307.035014358 125.498420344 199.826261325 236.830767501 c 128,-1,29
 92.6175082912 348.163114658 92.6175082912 348.163114658 32.8147349344 496.638965751 c 128,-1,30
 -26.9950977635 645.132343483 -26.9950977635 645.132343483 -26.9950977635 812 c 0,31,32
 -26.9950977635 847.869675258 -26.9950977635 847.869675258 -7.39494652159 867.4698265 c 128,-1,33
 12.2052047203 887.069977742 12.2052047203 887.069977742 46.177114254 887.069977742 c 0,34,35
 48.3097228102 887.069977742 48.3097228102 887.069977742 50.4998789846 886.993649481 c 0,36,37
 80.5359518755 886.81938721 80.5359518755 886.81938721 101.67766953 865.67766953 c 0,38,39
 119.086452454 848.268886606 119.086452454 848.268886606 122.278430638 823.49554176 c 0,40,41
 124.995097381 818.312607898 124.995097381 818.312607898 124.995097764 812 c 0,42,43
 124.995097764 674.925831424 124.995097764 674.925831424 174.202314681 554.319907607 c 0,44,45
 227.756069817 423.060703842 227.756069817 423.060703842 324.866575745 325.951449882 c 0,46,47
 405.484075098 245.333950528 405.484075098 245.333950528 510.222495802 193.837560349 c 128,-1,48
 614.960916506 142.341170169 614.960916506 142.341170169 733.004902236 129.370648726 c 1,49,-1
 733.004902236 812 l 2,50,51
 733.004902236 848.360241296 733.004902236 848.360241296 752.359971316 867.715310376 c 128,-1,52
 771.715040396 887.070379455 771.715040396 887.070379455 804.305525968 887.070379455 c 0,53,54
 806.375588816 887.070379455 806.375588816 887.070379455 808.500914789 886.994157575 c 0,55,56
 845.00823821 886.856904761 845.00823821 886.856904761 865.001667987 866.863474989 c 128,-1,57
 884.995097764 846.870045217 884.995097764 846.870045217 884.995097764 812 c 2,58,-1
 884.995097764 129.459315408 l 1,59,60
 999.245067334 142.509879418 999.245067334 142.509879418 1104.51987808 194.704953655 c 0,61,62
 1216.98225027 250.463608774 1216.98225027 250.463608774 1304.93980988 342.286840595 c 128,-1,63
 1392.70555349 433.910419085 1392.70555349 433.910419085 1442.85522786 554.462520948 c 128,-1,64
 1493.00490224 675.014622811 1493.00490224 675.014622811 1493.00490224 812 c 0,65,66
 1493.00490224 818.312609144 1493.00490224 818.312609144 1495.72157001 823.495543774 c 0,67,68
 1498.91354827 848.268887331 1498.91354827 848.268887331 1516.32233047 865.67766953 c 0,69,70
 1537.46405102 886.819390076 1537.46405102 886.819390076 1567.50012923 886.993649648 c 0,71,72
 1569.69028116 887.06997762 1569.69028116 887.06997762 1571.82288569 887.06997762 c 0,73,74
 1605.79479527 887.06997762 1605.79479527 887.06997762 1625.39494651 867.469826439 c 128,-1,75
 1644.99509776 847.869675258 1644.99509776 847.869675258 1644.99509776 812 c 0,0,1
EndSplineSet
EndChar

StartChar: r
Encoding: 114 114 38
Width: 1038
GlyphClass: 1
Flags: W
LayerCount: 2
Fore
SplineSet
761.004902236 1216 m 2,0,1
 761.004902236 1252.3602413 761.004902236 1252.3602413 781.32233047 1272.67766953 c 128,-1,2
 801.639758704 1292.99509776 801.639758704 1292.99509776 838 1292.99509776 c 0,3,4
 868.360241296 1292.99509776 868.360241296 1292.99509776 889.67766953 1271.67766953 c 128,-1,5
 910.995097764 1250.3602413 910.995097764 1250.3602413 910.995097764 1216 c 2,6,-1
 910.995097764 96.1154913383 l 1,7,-1
 1654.12744538 -241.137183569 l 2,8,9
 1667.69469383 -247.006021434 1667.69469383 -247.006021434 1677.45544731 -256.766774915 c 0,10,11
 1697.06050492 -276.371832531 1697.06050492 -276.371832531 1698.95164501 -308.521214017 c 0,12,13
 1698.99554901 -308.955928569 1698.99554901 -308.955928569 1698.99554901 -309.43194014 c 128,-1,14
 1698.99554901 -309.907951711 1698.99554901 -309.907951711 1698.99509776 -310 c 0,15,16
 1698.99509776 -342.875290478 1698.99509776 -342.875290478 1676.42740218 -363.935194121 c 128,-1,17
 1653.85970659 -384.995097764 1653.85970659 -384.995097764 1624 -384.995097764 c 0,18,19
 1616.90336771 -384.995097764 1616.90336771 -384.995097764 1606.30726754 -382.346072723 c 128,-1,20
 1595.71116738 -379.697047682 1595.71116738 -379.697047682 1593.65601003 -378.764542827 c 2,21,-1
 15.8719258146 337.137487782 l 2,22,23
 3.02247898867 342.699105029 3.02247898867 342.699105029 -6.25755118647 351.979135204 c 0,24,25
 -26.9950977635 372.716681781 -26.9950977635 372.716681781 -26.9950977635 408 c 0,26,27
 -26.9950977635 438.360241296 -26.9950977635 438.360241296 -5.67766952966 459.67766953 c 128,-1,28
 15.6397587042 480.995097764 15.6397587042 480.995097764 50 480.995097764 c 0,29,30
 67.6165143995 480.995097764 67.6165143995 480.995097764 80.7246472299 474.591249845 c 2,31,-1
 761.004902236 164.854709157 l 1,32,-1
 761.004902236 761.905545018 l 1,33,-1
 15.8561959965 1101.14429812 l 2,34,35
 3.01667833133 1106.70490569 3.01667833133 1106.70490569 -6.25755118647 1115.9791352 c 0,36,37
 -26.9950977635 1136.71668178 -26.9950977635 1136.71668178 -26.9950977635 1172 c 0,38,39
 -26.9950977635 1202.3602413 -26.9950977635 1202.3602413 -5.67766952966 1223.67766953 c 128,-1,40
 15.6397587042 1244.99509776 15.6397587042 1244.99509776 50 1244.99509776 c 0,41,42
 67.6165143996 1244.99509776 67.6165143996 1244.99509776 80.7246472299 1238.59124984 c 2,43,-1
 761.004902236 928.854709157 l 1,44,-1
 761.004902236 1216 l 2,0,1
EndSplineSet
EndChar

StartChar: s
Encoding: 115 115 39
Width: 1780
GlyphClass: 1
Flags: W
LayerCount: 2
Fore
SplineSet
1570 886.995097764 m 0,0,1
 1606.87004522 886.995097764 1606.87004522 886.995097764 1626.93257149 866.93257149 c 128,-1,2
 1646.99509776 846.870045217 1646.99509776 846.870045217 1646.99509776 812 c 0,3,4
 1646.99509776 638.878521577 1646.99509776 638.878521577 1582.05367388 486.317716253 c 128,-1,5
 1517.11224999 333.756910928 1517.11224999 333.756910928 1402.67766953 219.32233047 c 128,-1,6
 1288.24308907 104.887750013 1288.24308907 104.887750013 1135.68228375 39.9463261248 c 128,-1,7
 983.121478423 -24.9950977635 983.121478423 -24.9950977635 811 -24.9950977635 c 128,-1,8
 638.878521577 -24.9950977635 638.878521577 -24.9950977635 486.317716252 39.9463261248 c 128,-1,9
 333.756910928 104.887750013 333.756910928 104.887750013 219.32233047 219.32233047 c 128,-1,10
 104.887750013 333.756910928 104.887750013 333.756910928 39.9463261248 486.317716252 c 128,-1,11
 -24.9950977635 638.878521577 -24.9950977635 638.878521577 -24.9950977635 812 c 0,12,13
 -24.9950977635 847.869675258 -24.9950977635 847.869675258 -5.39494652159 867.4698265 c 128,-1,14
 14.2052047203 887.069977742 14.2052047203 887.069977742 48.177114254 887.069977742 c 0,15,16
 50.3097228102 887.069977742 50.3097228102 887.069977742 52.4998789846 886.993649481 c 0,17,18
 82.5359518755 886.81938721 82.5359518755 886.81938721 103.67766953 865.67766953 c 0,19,20
 121.086452454 848.268886606 121.086452454 848.268886606 124.278430638 823.49554176 c 0,21,22
 126.995097381 818.312607898 126.995097381 818.312607898 126.995097764 812 c 0,23,24
 126.995097764 669.261776472 126.995097764 669.261776472 182.004601223 543.801505425 c 128,-1,25
 237.014104682 418.341234378 237.014104682 418.341234378 329.67766953 325.67766953 c 128,-1,26
 422.248343807 233.106995252 422.248343807 233.106995252 546.688659953 180.051046508 c 128,-1,27
 671.128976098 126.995097764 671.128976098 126.995097764 809.981682416 126.995097764 c 128,-1,28
 948.834388734 126.995097764 948.834388734 126.995097764 1072.28019254 180.038216588 c 128,-1,29
 1195.72599635 233.081335412 1195.72599635 233.081335412 1289.32233047 326.67766953 c 128,-1,30
 1383.07058602 420.42592508 1383.07058602 420.42592508 1439.03774413 544.90460432 c 128,-1,31
 1495.00490224 669.38328356 1495.00490224 669.38328356 1495.00490224 812 c 0,32,33
 1495.00490224 818.312609144 1495.00490224 818.312609144 1497.72157001 823.495543774 c 0,34,35
 1500.91354827 848.268887331 1500.91354827 848.268887331 1518.32233047 865.67766953 c 0,36,37
 1539.6397587 886.995097764 1539.6397587 886.995097764 1570 886.995097764 c 0,0,1
899.67766953 901.67766953 m 128,-1,39
 936.995097764 864.360241296 936.995097764 864.360241296 936.995097764 813.119497656 c 128,-1,40
 936.995097764 761.878754016 936.995097764 761.878754016 899.798072709 723.441828126 c 128,-1,41
 862.601047655 685.004902236 862.601047655 685.004902236 812.239900835 685.004902236 c 0,42,43
 760.618384371 685.004902236 760.618384371 685.004902236 722.811643304 722.810702563 c 128,-1,44
 685.004902236 760.61650289 685.004902236 760.61650289 685.004902236 812.999483204 c 0,45,46
 685.004902236 866.610871212 685.004902236 866.610871212 722.445862604 902.802984488 c 128,-1,47
 759.886822971 938.995097764 759.886822971 938.995097764 811.123532133 938.995097764 c 128,-1,38
 862.360241296 938.995097764 862.360241296 938.995097764 899.67766953 901.67766953 c 128,-1,39
899.67766953 1128.32233047 m 128,-1,49
 862.360241296 1091.00490224 862.360241296 1091.00490224 812.119497656 1091.00490224 c 0,50,51
 760.617425075 1091.00490224 760.617425075 1091.00490224 722.811163656 1128.81013535 c 128,-1,52
 685.004902236 1166.61536846 685.004902236 1166.61536846 685.004902236 1217.99891599 c 0,53,54
 685.004902236 1270.61087121 685.004902236 1270.61087121 722.445862604 1306.80298449 c 128,-1,55
 759.886822971 1342.99509776 759.886822971 1342.99509776 811 1342.99509776 c 0,56,57
 863.380766575 1342.99509776 863.380766575 1342.99509776 900.187932169 1306.18878064 c 128,-1,58
 936.995097764 1269.38246352 936.995097764 1269.38246352 936.995097764 1217.51111111 c 128,-1,48
 936.995097764 1165.6397587 936.995097764 1165.6397587 899.67766953 1128.32233047 c 128,-1,49
EndSplineSet
EndChar

StartChar: t
Encoding: 116 116 40
Width: 1024
GlyphClass: 1
Flags: W
LayerCount: 2
Fore
SplineSet
912.995097764 1216 m 2,0,-1
 912.995097764 52 l 2,1,2
 912.995097764 18.600808392 912.995097764 18.600808392 891.201479053 -3.19714468573 c 128,-1,3
 869.407860343 -24.9950977635 869.407860343 -24.9950977635 840 -24.9950977635 c 0,4,5
 803.639758704 -24.9950977635 803.639758704 -24.9950977635 783.32233047 -4.67766952966 c 128,-1,6
 763.004902236 15.6397587042 763.004902236 15.6397587042 763.004902236 52 c 2,7,-1
 763.004902236 763.866999734 l 1,8,-1
 17.6767749605 1101.22604682 l 2,9,10
 5.1192010514 1106.60238297 5.1192010514 1106.60238297 -4.25755118647 1115.9791352 c 0,11,12
 -24.9950977635 1136.71668178 -24.9950977635 1136.71668178 -24.9950977635 1172 c 0,13,14
 -24.9950977635 1202.3602413 -24.9950977635 1202.3602413 -3.67766952966 1223.67766953 c 128,-1,15
 17.6397587042 1244.99509776 17.6397587042 1244.99509776 52 1244.99509776 c 0,16,17
 69.6092306474 1244.99509776 69.6092306474 1244.99509776 82.7230223645 1238.59198966 c 2,18,-1
 763.004902236 928.854709157 l 1,19,-1
 763.004902236 1216 l 2,20,21
 763.004902236 1252.3602413 763.004902236 1252.3602413 783.32233047 1272.67766953 c 128,-1,22
 803.639758704 1292.99509776 803.639758704 1292.99509776 840 1292.99509776 c 0,23,24
 870.876934507 1292.99509776 870.876934507 1292.99509776 891.936016135 1270.42740218 c 128,-1,25
 912.995097764 1247.85970659 912.995097764 1247.85970659 912.995097764 1216 c 2,0,-1
EndSplineSet
EndChar

StartChar: u
Encoding: 117 117 41
Width: 1828
GlyphClass: 1
Flags: W
LayerCount: 2
Fore
SplineSet
1698.99509776 812 m 2,0,-1
 1698.99509776 52 l 2,1,2
 1698.99509776 15.6397587042 1698.99509776 15.6397587042 1678.67766953 -4.67766952966 c 128,-1,3
 1658.3602413 -24.9950977635 1658.3602413 -24.9950977635 1622 -24.9950977635 c 128,-1,4
 1585.6397587 -24.9950977635 1585.6397587 -24.9950977635 1565.32233047 -4.67766952966 c 128,-1,5
 1545.00490224 15.6397587042 1545.00490224 15.6397587042 1545.00490224 52 c 2,6,-1
 1545.00490224 329.004902236 l 1,7,-1
 862 329.004902236 l 2,8,9
 826.130324742 329.004902236 826.130324742 329.004902236 806.530173492 348.605053487 c 128,-1,10
 786.930022241 368.205204737 786.930022241 368.205204737 786.930022241 402.177114314 c 0,11,12
 786.930022241 404.301751492 786.930022241 404.301751492 787.005780961 406.483506884 c 0,13,14
 787.136865046 442.492204112 787.136865046 442.492204112 806.425952716 461.781291779 c 128,-1,15
 825.715040387 481.070379447 825.715040387 481.070379447 858.305525938 481.070379447 c 0,16,17
 860.362782055 481.070379447 860.362782055 481.070379447 862.474619629 480.995097764 c 2,18,-1
 1545.00490224 480.995097764 l 1,19,-1
 1545.00490224 735.004902236 l 1,20,-1
 52 735.004902236 l 2,21,22
 15.6397587042 735.004902236 15.6397587042 735.004902236 -4.67766952966 755.32233047 c 128,-1,23
 -24.9950977635 775.639758704 -24.9950977635 775.639758704 -24.9950977635 811.754716981 c 128,-1,24
 -24.9950977635 847.869675258 -24.9950977635 847.869675258 -5.39494651019 867.469826511 c 128,-1,25
 14.2052047431 887.069977765 14.2052047431 887.069977765 48.1771143348 887.069977765 c 0,26,27
 50.289393841 887.069977765 50.289393841 887.069977765 52.4581290514 886.995097764 c 2,28,-1
 1622 886.995097764 l 2,29,30
 1654.52690796 886.995097764 1654.52690796 886.995097764 1678.23322509 863.288780641 c 0,31,32
 1698.99509776 842.526907962 1698.99509776 842.526907962 1698.99509776 812 c 2,0,-1
EndSplineSet
EndChar

StartChar: w
Encoding: 119 119 42
Width: 2634
GlyphClass: 1
Flags: W
LayerCount: 2
Fore
SplineSet
52 886.995097764 m 2,0,-1
 2434 886.995097764 l 2,1,2
 2470.3602413 886.995097764 2470.3602413 886.995097764 2489.71531037 867.640028689 c 128,-1,3
 2509.07037945 848.284959614 2509.07037945 848.284959614 2509.07037945 815.694474065 c 0,4,5
 2509.07037945 813.615970499 2509.07037945 813.615970499 2508.99353471 811.481752214 c 0,6,7
 2508.80592175 780.414013316 2508.80592175 780.414013316 2487.10482065 758.709457776 c 128,-1,8
 2465.40371956 737.004902236 2465.40371956 737.004902236 2434 737.004902236 c 2,9,-1
 1643.17018141 737.004902236 l 1,10,11
 1629.62541124 585.256907857 1629.62541124 585.256907857 1563.95535746 451.98532813 c 0,12,13
 1494.50157966 311.035014358 1494.50157966 311.035014358 1383.19689247 203.852896848 c 128,-1,14
 1271.89220528 96.6707793383 1271.89220528 96.6707793383 1123.49825579 35.8704805925 c 128,-1,15
 974.944979807 -24.9950977635 974.944979807 -24.9950977635 812 -24.9950977635 c 0,16,17
 638.878521577 -24.9950977635 638.878521577 -24.9950977635 486.317716252 39.9463261248 c 128,-1,18
 333.756910928 104.887750013 333.756910928 104.887750013 219.32233047 219.32233047 c 128,-1,19
 104.887750013 333.756910928 104.887750013 333.756910928 39.9463261248 486.317716252 c 128,-1,20
 -24.9950977635 638.878521577 -24.9950977635 638.878521577 -24.9950977635 812 c 0,21,22
 -24.9950977635 846.870045217 -24.9950977635 846.870045217 -4.93257149045 866.93257149 c 128,-1,23
 15.1299547826 886.995097764 15.1299547826 886.995097764 52 886.995097764 c 2,0,-1
326.294451537 327.340299287 m 0,24,25
 425.130868578 228.503882246 425.130868578 228.503882246 557.242811704 175.232937437 c 0,26,27
 676.872654095 126.995097764 676.872654095 126.995097764 809.936581302 126.995097764 c 128,-1,28
 943.00050851 126.995097764 943.00050851 126.995097764 1061.64779297 176.190313271 c 0,29,30
 1193.09109372 230.691194068 1193.09109372 230.691194068 1292.60493402 330.206426926 c 0,31,32
 1372.23922323 409.840716132 1372.23922323 409.840716132 1425.85385137 513.610964148 c 128,-1,33
 1479.46847951 617.381212165 1479.46847951 617.381212165 1492.64093454 737.004902236 c 1,34,-1
 130.961546689 737.004902236 l 1,35,36
 142.35725342 617.065019577 142.35725342 617.065019577 194.398906099 512.114353341 c 128,-1,37
 246.410553919 407.224196905 246.410553919 407.224196905 326.294451537 327.340299287 c 0,24,25
EndSplineSet
EndChar

StartChar: x
Encoding: 120 120 43
Width: 1764
GlyphClass: 1
Flags: W
LayerCount: 2
Fore
SplineSet
1646.99509776 472 m 2,0,-1
 1646.99509776 52 l 2,1,2
 1646.99509776 15.6397587042 1646.99509776 15.6397587042 1626.67766953 -4.67766952966 c 128,-1,3
 1606.3602413 -24.9950977635 1606.3602413 -24.9950977635 1570 -24.9950977635 c 0,4,5
 1539.6397587 -24.9950977635 1539.6397587 -24.9950977635 1518.32233047 -3.67766952966 c 128,-1,6
 1497.00490224 17.6397587042 1497.00490224 17.6397587042 1497.00490224 52 c 2,7,-1
 1497.00490224 329.004902236 l 1,8,-1
 52 329.004902236 l 2,9,10
 15.6397587042 329.004902236 15.6397587042 329.004902236 -4.67766952966 349.32233047 c 128,-1,11
 -24.9950977635 369.639758704 -24.9950977635 369.639758704 -24.9950977635 406 c 2,12,-1
 -24.9950977635 1570 l 2,13,14
 -24.9950977635 1606.3602413 -24.9950977635 1606.3602413 -4.67766952966 1626.67766953 c 128,-1,15
 15.6397587042 1646.99509776 15.6397587042 1646.99509776 52 1646.99509776 c 0,16,17
 83.3948535441 1646.99509776 83.3948535441 1646.99509776 105.194975654 1625.19766953 c 128,-1,18
 126.995097764 1603.4002413 126.995097764 1603.4002413 126.995097764 1570 c 2,19,-1
 126.995097764 1292.99509776 l 1,20,-1
 812 1292.99509776 l 2,21,22
 983.153343913 1292.99509776 983.153343913 1292.99509776 1134.65466699 1228.0659593 c 0,23,24
 1289.85060023 1161.55341649 1289.85060023 1161.55341649 1405.01675341 1046.38736614 c 0,25,26
 1514.52488652 936.879233028 1514.52488652 936.879233028 1580.75999214 789.123997409 c 128,-1,27
 1646.99509776 641.368761791 1646.99509776 641.368761791 1646.99509776 472 c 2,0,-1
804 1141.00490224 m 2,28,-1
 126.995097764 1141.00490224 l 1,29,-1
 126.995097764 480.995097764 l 1,30,-1
 1496.57170639 480.995097764 l 1,31,32
 1492.0868824 609.677465789 1492.0868824 609.677465789 1439.72564532 727.038859242 c 0,33,34
 1385.12685141 849.415466301 1385.12685141 849.415466301 1290.60419556 941.044810261 c 128,-1,35
 1195.90270017 1032.84728029 1195.90270017 1032.84728029 1070.36260326 1086.92609126 c 128,-1,36
 944.822506356 1141.00490224 944.822506356 1141.00490224 804 1141.00490224 c 2,28,-1
EndSplineSet
EndChar

StartChar: y
Encoding: 121 121 44
Width: 2594
GlyphClass: 1
Flags: W
LayerCount: 2
Fore
SplineSet
2448.99509776 814 m 2,0,-1
 2448.99509776 8 l 2,1,2
 2448.99509776 -12.2990145571 2448.99509776 -12.2990145571 2439.93505359 -26.2372068366 c 0,3,4
 2335.70155922 -263.03839522 2335.70155922 -263.03839522 2157.28713699 -441.452817459 c 0,5,6
 2063.53938574 -535.200568705 2063.53938574 -535.200568705 1952.70096103 -607.916223131 c 0,7,8
 1792.77497248 -712.835820714 1792.77497248 -712.835820714 1605.28982356 -770.915459239 c 128,-1,9
 1417.80467464 -828.995097764 1417.80467464 -828.995097764 1216.00979284 -828.995097764 c 128,-1,10
 1014.21491103 -828.995097764 1014.21491103 -828.995097764 825.718874413 -770.917940535 c 128,-1,11
 637.222837794 -712.840783306 637.222837794 -712.840783306 476.267480613 -606.895484909 c 128,-1,12
 315.269252488 -500.921967662 315.269252488 -500.921967662 188.928826449 -352.166304745 c 128,-1,13
 62.4871067618 -203.291376726 62.4871067618 -203.291376726 -14.9888455909 -21.8345409529 c 0,14,15
 -15.7651916407 -20.0162567836 -15.7651916407 -20.0162567836 -18.3801447021 -9.55644453805 c 128,-1,16
 -20.9950977635 0.903367707554 -20.9950977635 0.903367707554 -20.9950977635 8 c 0,17,18
 -20.9950977635 44.3602412958 -20.9950977635 44.3602412958 -0.677669529664 64.6776695297 c 128,-1,19
 19.6397587042 84.9950977635 19.6397587042 84.9950977635 56 84.9950977635 c 0,20,21
 86.0525489881 84.9950977635 86.0525489881 84.9950977635 106.245716867 64.8019298847 c 0,22,23
 117.835679077 53.2119676747 117.835679077 53.2119676747 125.113022492 35.5384193807 c 0,24,25
 214.748583155 -171.10752981 214.748583155 -171.10752981 374.840934836 -331.199881491 c 0,26,27
 461.270165406 -417.629112061 461.270165406 -417.629112061 562.68819867 -484.075409717 c 0,28,29
 704.689869455 -577.110987128 704.689869455 -577.110987128 870.251953914 -627.073509657 c 128,-1,30
 1035.71088227 -677.004902236 1035.71088227 -677.004902236 1212.98946531 -677.004902236 c 128,-1,31
 1390.26804836 -677.004902236 1390.26804836 -677.004902236 1554.8096741 -627.054765851 c 128,-1,32
 1719.35129984 -577.104629466 1719.35129984 -577.104629466 1861.41251016 -485.009775879 c 128,-1,33
 2003.42264995 -392.948030081 2003.42264995 -392.948030081 2115.20722672 -263.66673695 c 128,-1,34
 2226.99180349 -134.38544382 2226.99180349 -134.38544382 2299.00490224 23.4281922766 c 1,35,-1
 2299.00490224 814 l 2,36,37
 2299.00490224 844.876934507 2299.00490224 844.876934507 2321.57259782 865.936016135 c 128,-1,38
 2344.14029341 886.995097764 2344.14029341 886.995097764 2375.25026735 886.995097764 c 128,-1,39
 2406.3602413 886.995097764 2406.3602413 886.995097764 2427.67766953 865.67766953 c 128,-1,40
 2448.99509776 844.360241296 2448.99509776 844.360241296 2448.99509776 814 c 2,0,-1
EndSplineSet
EndChar

StartChar: z
Encoding: 122 122 45
Width: 1764
GlyphClass: 1
Flags: W
LayerCount: 2
Fore
SplineSet
1646.99509776 804 m 2,0,1
 1646.99509776 632.81440816 1646.99509776 632.81440816 1582.40622478 483.132258065 c 0,2,3
 1517.04403021 331.657965883 1517.04403021 331.657965883 1402.59596083 218.2409906 c 128,-1,4
 1288.18900443 104.864727496 1288.18900443 104.864727496 1135.65524143 39.9348148663 c 128,-1,5
 983.121478423 -24.9950977635 983.121478423 -24.9950977635 811 -24.9950977635 c 128,-1,6
 638.878521577 -24.9950977635 638.878521577 -24.9950977635 486.344758574 39.9348148663 c 0,7,8
 331.995536856 105.637524111 331.995536856 105.637524111 218.075364365 219.557682636 c 128,-1,9
 104.155191874 333.47784116 104.155191874 333.47784116 39.580047055 485.178181369 c 128,-1,10
 -24.9950977635 636.878521577 -24.9950977635 636.878521577 -24.9950977635 808 c 2,11,-1
 -24.9950977635 812 l 2,12,13
 -24.9950977635 847.869675258 -24.9950977635 847.869675258 -5.39494652159 867.4698265 c 128,-1,14
 14.2052047203 887.069977742 14.2052047203 887.069977742 48.177114254 887.069977742 c 0,15,16
 50.3097228102 887.069977742 50.3097228102 887.069977742 52.4998789846 886.993649481 c 0,17,18
 82.5359518755 886.81938721 82.5359518755 886.81938721 103.67766953 865.67766953 c 128,-1,19
 124.995097764 844.360241296 124.995097764 844.360241296 124.995097764 812 c 0,20,21
 124.995097764 669.177493644 124.995097764 669.177493644 179.034058111 543.729907122 c 128,-1,22
 233.073018459 418.2823206 233.073018459 418.2823206 326.67766953 324.67766953 c 128,-1,23
 420.248343807 231.106995252 420.248343807 231.106995252 544.688659953 178.051046508 c 128,-1,24
 669.128976098 124.995097764 669.128976098 124.995097764 810.981682416 124.995097764 c 128,-1,25
 952.834388734 124.995097764 952.834388734 124.995097764 1075.41532768 177.666594966 c 0,26,27
 1199.66403925 231.054713221 1199.66403925 231.054713221 1292.33738182 324.693383515 c 128,-1,28
 1385.01072438 418.332053808 1385.01072438 418.332053808 1440.00781331 541.834288594 c 128,-1,29
 1495.00490224 665.33652338 1495.00490224 665.33652338 1495.00490224 804 c 2,30,-1
 1495.00490224 1105.86219781 l 1,31,-1
 838.838889214 858.611236378 l 2,32,33
 825.039823299 853.08908297 825.039823299 853.08908297 810.387407106 853.08908297 c 128,-1,34
 795.734990912 853.08908297 795.734990912 853.08908297 782.106215285 859.544818794 c 128,-1,35
 768.477439657 866.000554617 768.477439657 866.000554617 757.905934993 876.572059281 c 128,-1,36
 747.334430328 887.143563946 747.334430328 887.143563946 740.802931038 904.639566937 c 0,37,38
 735.120959033 917.821876812 735.120959033 917.821876812 735.120959033 932.077090285 c 128,-1,39
 735.120959033 946.332303759 735.120959033 946.332303759 741.73121137 960.287280536 c 0,40,41
 755.838564829 990.06947036 755.838564829 990.06947036 783.551260451 999.53623503 c 0,42,43
 1545.59967963 1287.55453519 1545.59967963 1287.55453519 1546.06682251 1287.7102163 c 0,44,45
 1557.77971849 1291.61451496 1557.77971849 1291.61451496 1571.53390975 1291.61451496 c 128,-1,46
 1585.28810101 1291.61451496 1585.28810101 1291.61451496 1599.95108454 1285.74932155 c 0,47,48
 1633.70815825 1272.24649206 1633.70815825 1272.24649206 1642.24586293 1238.09357162 c 2,49,-1
 1646.24586293 1222.09357162 l 2,50,51
 1646.99509776 1219.09663229 1646.99509776 1219.09663229 1646.99509776 1216 c 2,52,-1
 1646.99509776 804 l 2,0,1
EndSplineSet
EndChar

StartChar: B
Encoding: 66 66 46
Width: 858
GlyphClass: 1
Flags: W
LayerCount: 2
Fore
SplineSet
52 -24.9950977635 m 2,0,-1
 50 -24.9950977635 l 2,1,2
 19.6397587042 -24.9950977635 19.6397587042 -24.9950977635 -2.67766952966 -2.67766952966 c 128,-1,3
 -24.9950977635 19.6397587042 -24.9950977635 19.6397587042 -24.9950977635 52 c 2,4,-1
 -24.9950977635 1216 l 2,5,6
 -24.9950977635 1252.3602413 -24.9950977635 1252.3602413 -4.67766952966 1272.67766953 c 128,-1,7
 15.6397587042 1292.99509776 15.6397587042 1292.99509776 52 1292.99509776 c 0,8,9
 83.3948535441 1292.99509776 83.3948535441 1292.99509776 105.194975654 1271.19766953 c 128,-1,10
 126.995097764 1249.4002413 126.995097764 1249.4002413 126.995097764 1216 c 2,11,-1
 126.995097764 886.995097764 l 1,12,-1
 1674 886.995097764 l 2,13,14
 1704.3602413 886.995097764 1704.3602413 886.995097764 1725.67766953 865.67766953 c 128,-1,15
 1746.99509776 844.360241296 1746.99509776 844.360241296 1746.99509776 813.250267352 c 0,16,17
 1746.99509776 780.600808392 1746.99509776 780.600808392 1725.20147905 758.802855314 c 128,-1,18
 1703.40786034 737.004902236 1703.40786034 737.004902236 1674 737.004902236 c 2,19,-1
 883.170181406 737.004902236 l 1,20,21
 869.625411235 585.256907857 869.625411235 585.256907857 803.955357456 451.985328129 c 0,22,23
 734.501579656 311.035014358 734.501579656 311.035014358 623.196892466 203.852896848 c 128,-1,24
 511.892205276 96.6707793383 511.892205276 96.6707793383 363.498255795 35.8704805925 c 128,-1,25
 214.944979807 -24.9950977635 214.944979807 -24.9950977635 52 -24.9950977635 c 2,0,-1
730.568618372 737.004902236 m 1,26,-1
 126.995097764 737.004902236 l 1,27,-1
 126.995097764 129.609838601 l 1,28,29
 233.756365772 142.47029445 233.756365772 142.47029445 332.202949015 189.553442958 c 0,30,31
 445.309007538 243.64764486 445.309007538 243.64764486 530.79523217 329.133887027 c 128,-1,32
 616.281456802 414.620129195 616.281456802 414.620129195 669.522587538 523.954594099 c 0,33,34
 717.784547865 623.063976914 717.784547865 623.063976914 730.568618372 737.004902236 c 1,26,-1
EndSplineSet
EndChar

StartChar: A
Encoding: 65 65 47
Width: 1502
GlyphClass: 1
Flags: W
LayerCount: 2
Fore
SplineSet
1444.99509776 812 m 0,0,1
 1444.99509776 638.804251209 1444.99509776 638.804251209 1379.03932613 486.281529303 c 0,2,3
 1312.28950348 331.92256443 1312.28950348 331.92256443 1198.40583116 218.038878152 c 128,-1,4
 1084.52215884 104.155191874 1084.52215884 104.155191874 932.821818631 39.580047055 c 128,-1,5
 781.121478423 -24.9950977635 781.121478423 -24.9950977635 608 -24.9950977635 c 0,6,7
 577.123065493 -24.9950977635 577.123065493 -24.9950977635 556.063983865 -2.42740217783 c 128,-1,8
 535.004902236 20.1402934078 535.004902236 20.1402934078 535.004902236 52 c 2,9,-1
 535.004902236 761.923115054 l 1,10,-1
 -208.584456812 1101.3461168 l 2,11,12
 -222.988612636 1108.06805618 -222.988612636 1108.06805618 -233.159711118 1118.23915467 c 0,13,14
 -253.052483814 1138.13192736 -253.052483814 1138.13192736 -254.9460615 1168.42917035 c 0,15,16
 -254.995506187 1168.9524421 -254.995506187 1168.9524421 -254.995506187 1169.43456422 c 128,-1,17
 -254.995506187 1169.91668635 -254.995506187 1169.91668635 -254.995097764 1170 c 0,18,19
 -254.995097764 1205.86967526 -254.995097764 1205.86967526 -235.39494651 1225.46982651 c 128,-1,20
 -215.794795257 1245.06997776 -215.794795257 1245.06997776 -181.822885665 1245.06997776 c 0,21,22
 -179.462714645 1245.06997776 -179.462714645 1245.06997776 -174.609752413 1244.88921557 c 128,-1,23
 -169.756790181 1244.70845338 -169.756790181 1244.70845338 -159.732465418 1242.20237219 c 128,-1,24
 -149.708140655 1239.696291 -149.708140655 1239.696291 -147.650387283 1238.76199072 c 2,25,-1
 535.004902236 928.809867626 l 1,26,-1
 535.004902236 1216 l 2,27,28
 535.004902236 1249.39919161 535.004902236 1249.39919161 556.798520947 1271.19714469 c 128,-1,29
 578.592139657 1292.99509776 578.592139657 1292.99509776 608 1292.99509776 c 0,30,31
 644.360241296 1292.99509776 644.360241296 1292.99509776 664.67766953 1272.67766953 c 128,-1,32
 684.995097764 1252.3602413 684.995097764 1252.3602413 684.995097764 1216 c 2,33,-1
 684.995097764 131.505385893 l 1,34,35
 797.425529105 144.599352061 797.425529105 144.599352061 902.610108969 196.749689977 c 0,36,37
 1014.97967685 252.462332875 1014.97967685 252.462332875 1101.93570894 343.282558395 c 128,-1,38
 1188.79051511 433.997578167 1188.79051511 433.997578167 1239.89770867 553.569125375 c 128,-1,39
 1291.00490224 673.140672583 1291.00490224 673.140672583 1291.00490224 806 c 2,40,-1
 1291.00490224 812 l 2,41,42
 1291.00490224 847.869675258 1291.00490224 847.869675258 1310.60505348 867.469826505 c 128,-1,43
 1330.20520473 887.069977751 1330.20520473 887.069977751 1364.17711429 887.069977751 c 0,44,45
 1366.06598442 887.069977751 1366.06598442 887.069977751 1367.99999951 887.010099753 c 128,-1,46
 1369.93401508 887.06997778 1369.93401508 887.06997778 1371.82288566 887.06997778 c 0,47,48
 1405.79479526 887.06997778 1405.79479526 887.06997778 1425.39494651 867.469826519 c 128,-1,49
 1444.99509776 847.869675258 1444.99509776 847.869675258 1444.99509776 812 c 0,0,1
EndSplineSet
EndChar

StartChar: ey
Encoding: 65537 -1 50
Width: 0
VWidth: 0
GlyphClass: 1
Flags: W
LayerCount: 2
Fore
SplineSet
2520 822 m 256,0,1
 2520 770 2520 770 2468 770 c 2,2,-1
 1646 770 l 1,3,-1
 1646 52 l 2,4,5
 1646 0 1646 0 1596 0 c 0,6,7
 1576 0 1576 0 1560 14 c 128,-1,8
 1544 28 1544 28 1544 52 c 2,9,-1
 1544 822 l 2,10,11
 1544 972 1544 972 1487 1102 c 128,-1,12
 1430 1232 1430 1232 1332 1330 c 128,-1,13
 1234 1428 1234 1428 1103 1484 c 128,-1,14
 972 1540 972 1540 826 1540 c 0,15,16
 682 1540 682 1540 552 1484 c 128,-1,17
 422 1428 422 1428 323 1330 c 128,-1,18
 224 1232 224 1232 165 1101 c 128,-1,19
 106 970 106 970 106 822 c 0,20,21
 106 770 106 770 56 770 c 256,22,23
 4 770 4 770 4 822 c 0,24,25
 4 992 4 992 69 1141 c 128,-1,26
 134 1290 134 1290 246 1402 c 128,-1,27
 358 1514 358 1514 507 1578 c 128,-1,28
 656 1642 656 1642 826 1642 c 0,29,30
 990 1642 990 1642 1135 1583 c 128,-1,31
 1280 1524 1280 1524 1391 1419 c 128,-1,32
 1502 1314 1502 1314 1569 1174 c 128,-1,33
 1636 1034 1636 1034 1646 872 c 1,34,-1
 2468 872 l 2,35,36
 2520 874 2520 874 2520 822 c 256,0,1
4272 814 m 2,37,-1
 4272 8 l 2,38,39
 4272 -6 4272 -6 4266 -14 c 0,40,41
 4188 -192 4188 -192 4065 -338 c 128,-1,42
 3942 -484 3942 -484 3786 -587 c 128,-1,43
 3630 -690 3630 -690 3445 -747 c 128,-1,44
 3260 -804 3260 -804 3062 -804 c 0,45,46
 2866 -804 2866 -804 2680 -747 c 128,-1,47
 2494 -690 2494 -690 2337 -586 c 128,-1,48
 2180 -482 2180 -482 2056 -336 c 128,-1,49
 1932 -190 1932 -190 1856 -12 c 0,50,51
 1852 4 1852 4 1852 8 c 0,52,53
 1852 60 1852 60 1902 60 c 0,54,55
 1934 60 1934 60 1950 26 c 0,56,57
 2022 -140 2022 -140 2136 -275 c 128,-1,58
 2250 -410 2250 -410 2396 -505 c 128,-1,59
 2542 -600 2542 -600 2711 -651 c 128,-1,60
 2880 -702 2880 -702 3062 -702 c 0,61,62
 3242 -702 3242 -702 3410 -651 c 128,-1,63
 3578 -600 3578 -600 3722 -506 c 128,-1,64
 3866 -412 3866 -412 3982 -279 c 128,-1,65
 4098 -146 4098 -146 4172 18 c 1,66,-1
 4172 814 l 2,67,68
 4172 834 4172 834 4186 848 c 128,-1,69
 4200 862 4200 862 4220 862 c 0,70,71
 4242 862 4242 862 4257 848 c 128,-1,72
 4272 834 4272 834 4272 814 c 2,37,-1
EndSplineSet
EndChar

StartChar: C
Encoding: 67 67 51
Width: 1294
Flags: W
LayerCount: 2
Fore
SplineSet
1160 886.995097764 m 0,0,1
 1196.3602413 886.995097764 1196.3602413 886.995097764 1215.71531037 867.640028687 c 128,-1,2
 1235.07037945 848.284959611 1235.07037945 848.284959611 1235.07037945 815.694474055 c 0,3,4
 1235.07037945 639.055373796 1235.07037945 639.055373796 1170.09131472 486.406142362 c 128,-1,5
 1105.11224999 333.756910928 1105.11224999 333.756910928 990.67766953 219.32233047 c 128,-1,6
 876.265414333 104.910075274 876.265414333 104.910075274 724.709379123 39.9574887552 c 128,-1,7
 573.153343913 -24.9950977635 573.153343913 -24.9950977635 400 -24.9950977635 c 128,-1,8
 226.878521577 -24.9950977635 226.878521577 -24.9950977635 75.1781813688 39.580047055 c 0,9,10
 -78.2972899979 104.910822029 -78.2972899979 104.910822029 -191.7590094 219.404039166 c 128,-1,11
 -305.083554493 333.758807396 -305.083554493 333.758807396 -371.039326128 486.281529303 c 128,-1,12
 -436.995097764 638.804251209 -436.995097764 638.804251209 -436.995097764 812 c 0,13,14
 -436.995097764 847.869675258 -436.995097764 847.869675258 -417.394946522 867.4698265 c 128,-1,15
 -397.79479528 887.069977742 -397.79479528 887.069977742 -363.822885746 887.069977742 c 0,16,17
 -361.69027719 887.069977742 -361.69027719 887.069977742 -359.500121015 886.993649481 c 0,18,19
 -329.464048124 886.81938721 -329.464048124 886.81938721 -308.32233047 865.67766953 c 0,20,21
 -290.913547546 848.268886606 -290.913547546 848.268886606 -287.721569362 823.495541759 c 0,22,23
 -285.004902619 818.312607898 -285.004902619 818.312607898 -285.004902236 812 c 0,24,25
 -285.004902236 669.261776472 -285.004902236 669.261776472 -229.995398777 543.801505425 c 128,-1,26
 -174.985895318 418.341234378 -174.985895318 418.341234378 -82.3223304703 325.67766953 c 128,-1,27
 10.2483438075 233.106995252 10.2483438075 233.106995252 134.688659953 180.051046508 c 128,-1,28
 259.128976098 126.995097764 259.128976098 126.995097764 397.981682416 126.995097764 c 128,-1,29
 536.834388734 126.995097764 536.834388734 126.995097764 660.310775753 180.051357811 c 0,30,31
 785.503503575 233.845108047 785.503503575 233.845108047 879.648062366 327.989684816 c 128,-1,32
 973.792621156 422.134261585 973.792621156 422.134261585 1028.3987617 545.71657965 c 128,-1,33
 1083.00490224 669.298897715 1083.00490224 669.298897715 1083.00490224 812 c 0,34,35
 1083.00490224 818.366024622 1083.00490224 818.366024622 1085.76773984 823.583175885 c 0,36,37
 1089.19894006 848.788527211 1089.19894006 848.788527211 1107.95196192 866.285988372 c 0,38,39
 1130.14029341 886.995097764 1130.14029341 886.995097764 1160 886.995097764 c 0,0,1
487.67766953 901.67766953 m 128,-1,41
 524.995097764 864.360241296 524.995097764 864.360241296 524.995097764 813.119497656 c 128,-1,42
 524.995097764 761.878754016 524.995097764 761.878754016 487.798072709 723.441828126 c 128,-1,43
 450.601047655 685.004902236 450.601047655 685.004902236 400.120403179 685.004902236 c 128,-1,44
 349.639758704 685.004902236 349.639758704 685.004902236 312.32233047 722.32233047 c 128,-1,45
 275.004902236 759.639758704 275.004902236 759.639758704 275.004902236 813 c 128,-1,46
 275.004902236 866.360241296 275.004902236 866.360241296 311.32233047 902.67766953 c 128,-1,47
 347.639758704 938.995097764 347.639758704 938.995097764 399 938.995097764 c 128,-1,40
 450.360241296 938.995097764 450.360241296 938.995097764 487.67766953 901.67766953 c 128,-1,41
EndSplineSet
EndChar

StartChar: c
Encoding: 99 99 52
Width: 1780
Flags: W
LayerCount: 2
Fore
SplineSet
1570 886.995097764 m 0,0,1
 1606.87004522 886.995097764 1606.87004522 886.995097764 1626.93257149 866.93257149 c 128,-1,2
 1646.99509776 846.870045217 1646.99509776 846.870045217 1646.99509776 812 c 0,3,4
 1646.99509776 638.878521577 1646.99509776 638.878521577 1582.05367388 486.317716253 c 128,-1,5
 1517.11224999 333.756910928 1517.11224999 333.756910928 1402.67766953 219.32233047 c 128,-1,6
 1288.24308907 104.887750013 1288.24308907 104.887750013 1135.68228375 39.9463261248 c 128,-1,7
 983.121478423 -24.9950977635 983.121478423 -24.9950977635 811 -24.9950977635 c 128,-1,8
 638.878521577 -24.9950977635 638.878521577 -24.9950977635 486.317716252 39.9463261248 c 128,-1,9
 333.756910928 104.887750013 333.756910928 104.887750013 219.32233047 219.32233047 c 128,-1,10
 104.887750013 333.756910928 104.887750013 333.756910928 39.9463261248 486.317716252 c 128,-1,11
 -24.9950977635 638.878521577 -24.9950977635 638.878521577 -24.9950977635 812 c 0,12,13
 -24.9950977635 847.869675258 -24.9950977635 847.869675258 -5.39494652159 867.4698265 c 128,-1,14
 14.2052047203 887.069977742 14.2052047203 887.069977742 48.177114254 887.069977742 c 0,15,16
 50.3097228102 887.069977742 50.3097228102 887.069977742 52.4998789846 886.993649481 c 0,17,18
 82.5359518755 886.81938721 82.5359518755 886.81938721 103.67766953 865.67766953 c 0,19,20
 121.086452454 848.268886606 121.086452454 848.268886606 124.278430638 823.49554176 c 0,21,22
 126.995097381 818.312607898 126.995097381 818.312607898 126.995097764 812 c 0,23,24
 126.995097764 669.261776472 126.995097764 669.261776472 182.004601223 543.801505425 c 128,-1,25
 237.014104682 418.341234378 237.014104682 418.341234378 329.67766953 325.67766953 c 128,-1,26
 422.248343807 233.106995252 422.248343807 233.106995252 546.688659953 180.051046508 c 128,-1,27
 671.128976098 126.995097764 671.128976098 126.995097764 809.981682416 126.995097764 c 128,-1,28
 948.834388734 126.995097764 948.834388734 126.995097764 1072.28019254 180.038216588 c 128,-1,29
 1195.72599635 233.081335412 1195.72599635 233.081335412 1289.32233047 326.67766953 c 128,-1,30
 1383.07058602 420.42592508 1383.07058602 420.42592508 1439.03774413 544.90460432 c 128,-1,31
 1495.00490224 669.38328356 1495.00490224 669.38328356 1495.00490224 812 c 0,32,33
 1495.00490224 818.312609144 1495.00490224 818.312609144 1497.72157001 823.495543774 c 0,34,35
 1500.91354827 848.268887331 1500.91354827 848.268887331 1518.32233047 865.67766953 c 0,36,37
 1539.6397587 886.995097764 1539.6397587 886.995097764 1570 886.995097764 c 0,0,1
899.67766953 901.67766953 m 128,-1,39
 936.995097764 864.360241296 936.995097764 864.360241296 936.995097764 813.119497656 c 128,-1,40
 936.995097764 761.878754016 936.995097764 761.878754016 899.798072709 723.441828126 c 128,-1,41
 862.601047655 685.004902236 862.601047655 685.004902236 812.239900835 685.004902236 c 0,42,43
 760.618384371 685.004902236 760.618384371 685.004902236 722.811643304 722.810702563 c 128,-1,44
 685.004902236 760.61650289 685.004902236 760.61650289 685.004902236 812.999483204 c 0,45,46
 685.004902236 866.610871212 685.004902236 866.610871212 722.445862604 902.802984488 c 128,-1,47
 759.886822971 938.995097764 759.886822971 938.995097764 811.123532133 938.995097764 c 128,-1,38
 862.360241296 938.995097764 862.360241296 938.995097764 899.67766953 901.67766953 c 128,-1,39
EndSplineSet
EndChar

StartChar: i
Encoding: 105 105 53
Width: 2082
Flags: W
LayerCount: 2
Fore
SplineSet
1134 1141.00490224 m 2,0,-1
 456.995097764 1141.00490224 l 1,1,-1
 456.995097764 480.995097764 l 1,2,-1
 1826.57170639 480.995097764 l 1,3,4
 1822.0868824 609.677465789 1822.0868824 609.677465789 1769.72564532 727.038859242 c 0,5,6
 1715.12685141 849.415466301 1715.12685141 849.415466301 1620.60419556 941.044810261 c 128,-1,7
 1525.90270017 1032.84728029 1525.90270017 1032.84728029 1400.36260326 1086.92609126 c 128,-1,8
 1274.82250636 1141.00490224 1274.82250636 1141.00490224 1134 1141.00490224 c 2,0,-1
1827.00490224 329.004902236 m 1,9,-1
 906.995097764 329.004902236 l 1,10,-1
 906.995097764 -145.923115054 l 1,11,-1
 1650.58445681 -485.3461168 l 2,12,13
 1665.46292094 -492.289400058 1665.46292094 -492.289400058 1675.79337201 -502.619851131 c 0,14,15
 1695.04224922 -521.868728339 1695.04224922 -521.868728339 1696.93932983 -550.324937584 c 0,16,17
 1696.99509776 -551.16145655 1696.99509776 -551.16145655 1696.99509776 -552 c 0,18,19
 1696.99509776 -588.360241296 1696.99509776 -588.360241296 1676.67766953 -608.67766953 c 128,-1,20
 1656.3602413 -628.995097764 1656.3602413 -628.995097764 1620 -628.995097764 c 0,21,22
 1602.40194494 -628.995097764 1602.40194494 -628.995097764 1589.29362462 -622.600114462 c 2,23,-1
 11.6560100326 93.2354571734 l 2,24,25
 7.69783494828 95.0314352218 7.69783494828 95.0314352218 4.56615713204 98.0816899901 c 0,26,27
 -30.9950977635 119.813886562 -30.9950977635 119.813886562 -30.9950977635 164 c 0,28,29
 -30.9950977635 194.360241296 -30.9950977635 194.360241296 -9.67766952966 215.67766953 c 128,-1,30
 11.6397587042 236.995097764 11.6397587042 236.995097764 46 236.995097764 c 0,31,32
 63.5893175682 236.995097764 63.5893175682 236.995097764 76.6933576287 230.606463147 c 2,33,-1
 757.004902236 -77.2440123461 l 1,34,-1
 757.004902236 329.004902236 l 1,35,-1
 380 329.004902236 l 2,36,37
 344.130324742 329.004902236 344.130324742 329.004902236 324.530173489 348.60505349 c 128,-1,38
 304.930022235 368.205204743 304.930022235 368.205204743 304.930022235 402.177114335 c 0,39,40
 304.930022235 404.289393841 304.930022235 404.289393841 305.004902236 406.458129051 c 2,41,-1
 305.004902236 1570 l 2,42,43
 305.004902236 1606.87004522 305.004902236 1606.87004522 325.06742851 1626.93257149 c 128,-1,44
 345.129954783 1646.99509776 345.129954783 1646.99509776 380 1646.99509776 c 0,45,46
 412.51408745 1646.99509776 412.51408745 1646.99509776 434.754592607 1624.75459261 c 128,-1,47
 456.995097764 1602.51408745 456.995097764 1602.51408745 456.995097764 1570 c 2,48,-1
 456.995097764 1292.99509776 l 1,49,-1
 1140 1292.99509776 l 2,50,51
 1311.12147842 1292.99509776 1311.12147842 1292.99509776 1463.62749155 1228.07699758 c 0,52,53
 1619.80918662 1161.594249 1619.80918662 1161.594249 1734.95274574 1046.45078609 c 0,54,55
 1844.52904911 936.874482723 1844.52904911 936.874482723 1910.76207344 788.104920386 c 128,-1,56
 1976.99509776 639.335358049 1976.99509776 639.335358049 1976.99509776 472 c 2,57,-1
 1976.99509776 52 l 2,58,59
 1976.99509776 15.6397587042 1976.99509776 15.6397587042 1956.67766953 -4.67766952966 c 128,-1,60
 1936.3602413 -24.9950977635 1936.3602413 -24.9950977635 1900 -24.9950977635 c 0,61,62
 1869.6397587 -24.9950977635 1869.6397587 -24.9950977635 1848.32233047 -3.67766952966 c 128,-1,63
 1827.00490224 17.6397587042 1827.00490224 17.6397587042 1827.00490224 52 c 2,64,-1
 1827.00490224 329.004902236 l 1,9,-1
EndSplineSet
EndChar

StartChar: I
Encoding: 73 73 54
Width: 1704
Flags: W
LayerCount: 2
Fore
SplineSet
804 1141.00490224 m 2,0,-1
 126.995097764 1141.00490224 l 1,1,-1
 126.995097764 480.995097764 l 1,2,-1
 1496.57170639 480.995097764 l 1,3,4
 1492.0868824 609.677465789 1492.0868824 609.677465789 1439.72564532 727.038859242 c 0,5,6
 1385.12685141 849.415466301 1385.12685141 849.415466301 1290.60419556 941.044810261 c 128,-1,7
 1195.90270017 1032.84728029 1195.90270017 1032.84728029 1070.36260326 1086.92609126 c 128,-1,8
 944.822506356 1141.00490224 944.822506356 1141.00490224 804 1141.00490224 c 2,0,-1
1497.00490224 329.004902236 m 1,9,-1
 576.995097764 329.004902236 l 1,10,-1
 576.995097764 -145.923115054 l 1,11,-1
 1320.58445681 -485.3461168 l 2,12,13
 1335.46292094 -492.289400058 1335.46292094 -492.289400058 1345.79337201 -502.619851131 c 0,14,15
 1365.04224922 -521.868728339 1365.04224922 -521.868728339 1366.93932983 -550.324937584 c 0,16,17
 1366.99509776 -551.16145655 1366.99509776 -551.16145655 1366.99509776 -552 c 0,18,19
 1366.99509776 -588.360241296 1366.99509776 -588.360241296 1346.67766953 -608.67766953 c 128,-1,20
 1326.3602413 -628.995097764 1326.3602413 -628.995097764 1290 -628.995097764 c 0,21,22
 1272.40194494 -628.995097764 1272.40194494 -628.995097764 1259.29362462 -622.600114462 c 2,23,-1
 -318.343989967 93.2354571734 l 2,24,25
 -322.302165052 95.0314352218 -322.302165052 95.0314352218 -325.433842868 98.0816899901 c 0,26,27
 -360.995097764 119.813886562 -360.995097764 119.813886562 -360.995097764 164 c 0,28,29
 -360.995097764 194.360241296 -360.995097764 194.360241296 -339.67766953 215.67766953 c 128,-1,30
 -318.360241296 236.995097764 -318.360241296 236.995097764 -284 236.995097764 c 0,31,32
 -266.410682432 236.995097764 -266.410682432 236.995097764 -253.306642371 230.606463147 c 2,33,-1
 427.004902236 -77.2440123461 l 1,34,-1
 427.004902236 329.004902236 l 1,35,-1
 52 329.004902236 l 2,36,37
 15.6397587042 329.004902236 15.6397587042 329.004902236 -4.67766952966 349.32233047 c 128,-1,38
 -24.9950977635 369.639758704 -24.9950977635 369.639758704 -24.9950977635 406 c 2,39,-1
 -24.9950977635 1570 l 2,40,41
 -24.9950977635 1606.3602413 -24.9950977635 1606.3602413 -4.67766952966 1626.67766953 c 128,-1,42
 15.6397587042 1646.99509776 15.6397587042 1646.99509776 52 1646.99509776 c 0,43,44
 83.3948535441 1646.99509776 83.3948535441 1646.99509776 105.194975654 1625.19766953 c 128,-1,45
 126.995097764 1603.4002413 126.995097764 1603.4002413 126.995097764 1570 c 2,46,-1
 126.995097764 1292.99509776 l 1,47,-1
 812 1292.99509776 l 2,48,49
 983.153343913 1292.99509776 983.153343913 1292.99509776 1134.65466699 1228.0659593 c 0,50,51
 1289.84958338 1161.55385228 1289.84958338 1161.55385228 1404.95274574 1046.45078609 c 0,52,53
 1514.52904911 936.874482723 1514.52904911 936.874482723 1580.76207344 788.104920386 c 128,-1,54
 1646.99509776 639.335358049 1646.99509776 639.335358049 1646.99509776 472 c 2,55,-1
 1646.99509776 52 l 2,56,57
 1646.99509776 15.6397587042 1646.99509776 15.6397587042 1626.67766953 -4.67766952966 c 128,-1,58
 1606.3602413 -24.9950977635 1606.3602413 -24.9950977635 1570 -24.9950977635 c 0,59,60
 1539.6397587 -24.9950977635 1539.6397587 -24.9950977635 1518.32233047 -3.67766952966 c 128,-1,61
 1497.00490224 17.6397587042 1497.00490224 17.6397587042 1497.00490224 52 c 2,62,-1
 1497.00490224 329.004902236 l 1,9,-1
EndSplineSet
EndChar

StartChar: O
Encoding: 79 79 55
Width: 1700
Flags: W
LayerCount: 2
Fore
SplineSet
1694.99509776 812 m 2,0,-1
 1694.99509776 52 l 2,1,2
 1694.99509776 15.6397587042 1694.99509776 15.6397587042 1674.67766953 -4.67766952966 c 128,-1,3
 1654.3602413 -24.9950977635 1654.3602413 -24.9950977635 1618 -24.9950977635 c 128,-1,4
 1581.6397587 -24.9950977635 1581.6397587 -24.9950977635 1561.32233047 -4.67766952966 c 128,-1,5
 1541.00490224 15.6397587042 1541.00490224 15.6397587042 1541.00490224 52 c 2,6,-1
 1541.00490224 329.004902236 l 1,7,-1
 858 329.004902236 l 2,8,9
 821.639758704 329.004902236 821.639758704 329.004902236 801.32233047 349.32233047 c 128,-1,10
 781.004902236 369.639758704 781.004902236 369.639758704 781.004902236 405.754716981 c 128,-1,11
 781.004902236 441.869675258 781.004902236 441.869675258 800.60505349 461.469826511 c 128,-1,12
 820.205204743 481.069977765 820.205204743 481.069977765 854.177114335 481.069977765 c 0,13,14
 856.289393841 481.069977765 856.289393841 481.069977765 858.458129051 480.995097764 c 2,15,-1
 1541.00490224 480.995097764 l 1,16,-1
 1541.00490224 735.004902236 l 1,17,-1
 48 735.004902236 l 2,18,19
 11.6397587042 735.004902236 11.6397587042 735.004902236 -8.67766952966 755.32233047 c 128,-1,20
 -28.9950977635 775.639758704 -28.9950977635 775.639758704 -28.9950977635 811.754716981 c 128,-1,21
 -28.9950977635 847.869675258 -28.9950977635 847.869675258 -9.39494651019 867.469826511 c 128,-1,22
 10.2052047431 887.069977765 10.2052047431 887.069977765 44.1771143348 887.069977765 c 0,23,24
 46.289393841 887.069977765 46.289393841 887.069977765 48.4581290514 886.995097764 c 2,25,-1
 1618 886.995097764 l 2,26,27
 1650.52690796 886.995097764 1650.52690796 886.995097764 1674.23322509 863.288780641 c 0,28,29
 1694.99509776 842.526907962 1694.99509776 842.526907962 1694.99509776 812 c 2,0,-1
275.32233047 315.32233047 m 128,-1,31
 239.004902236 351.639758704 239.004902236 351.639758704 239.004902236 403.876467867 c 128,-1,32
 239.004902236 456.113177029 239.004902236 456.113177029 275.197830591 493.554137396 c 128,-1,33
 311.390758946 530.995097764 311.390758946 530.995097764 363.875500121 530.995097764 c 128,-1,34
 416.360241296 530.995097764 416.360241296 530.995097764 453.67766953 493.67766953 c 128,-1,35
 490.995097764 456.360241296 490.995097764 456.360241296 490.995097764 404 c 128,-1,36
 490.995097764 351.639758704 490.995097764 351.639758704 454.67766953 315.32233047 c 128,-1,37
 418.360241296 279.004902236 418.360241296 279.004902236 365 279.004902236 c 128,-1,30
 311.639758704 279.004902236 311.639758704 279.004902236 275.32233047 315.32233047 c 128,-1,31
EndSplineSet
EndChar

StartChar: o
Encoding: 111 111 56
Width: 1828
Flags: W
LayerCount: 2
Fore
SplineSet
1698.99509776 812 m 2,0,-1
 1698.99509776 52 l 2,1,2
 1698.99509776 15.6397587042 1698.99509776 15.6397587042 1678.67766953 -4.67766952966 c 128,-1,3
 1658.3602413 -24.9950977635 1658.3602413 -24.9950977635 1622 -24.9950977635 c 128,-1,4
 1585.6397587 -24.9950977635 1585.6397587 -24.9950977635 1565.32233047 -4.67766952966 c 128,-1,5
 1545.00490224 15.6397587042 1545.00490224 15.6397587042 1545.00490224 52 c 2,6,-1
 1545.00490224 329.004902236 l 1,7,-1
 862 329.004902236 l 2,8,9
 826.130324742 329.004902236 826.130324742 329.004902236 806.530173492 348.605053487 c 128,-1,10
 786.930022241 368.205204737 786.930022241 368.205204737 786.930022241 402.177114314 c 0,11,12
 786.930022241 404.301751492 786.930022241 404.301751492 787.005780961 406.483506884 c 0,13,14
 787.136865046 442.492204112 787.136865046 442.492204112 806.425952716 461.781291779 c 128,-1,15
 825.715040387 481.070379447 825.715040387 481.070379447 858.305525938 481.070379447 c 0,16,17
 860.362782055 481.070379447 860.362782055 481.070379447 862.474619629 480.995097764 c 2,18,-1
 1545.00490224 480.995097764 l 1,19,-1
 1545.00490224 735.004902236 l 1,20,-1
 52 735.004902236 l 2,21,22
 15.6397587042 735.004902236 15.6397587042 735.004902236 -4.67766952966 755.32233047 c 128,-1,23
 -24.9950977635 775.639758704 -24.9950977635 775.639758704 -24.9950977635 811.754716981 c 128,-1,24
 -24.9950977635 847.869675258 -24.9950977635 847.869675258 -5.39494651019 867.469826511 c 128,-1,25
 14.2052047431 887.069977765 14.2052047431 887.069977765 48.1771143348 887.069977765 c 0,26,27
 50.289393841 887.069977765 50.289393841 887.069977765 52.4581290514 886.995097764 c 2,28,-1
 1622 886.995097764 l 2,29,30
 1654.52690796 886.995097764 1654.52690796 886.995097764 1678.23322509 863.288780641 c 0,31,32
 1698.99509776 842.526907962 1698.99509776 842.526907962 1698.99509776 812 c 2,0,-1
341.32233047 315.32233047 m 128,-1,34
 305.004902236 351.639758704 305.004902236 351.639758704 305.004902236 403.876467867 c 128,-1,35
 305.004902236 456.113177029 305.004902236 456.113177029 341.197830591 493.554137396 c 128,-1,36
 377.390758946 530.995097764 377.390758946 530.995097764 429.875500121 530.995097764 c 128,-1,37
 482.360241296 530.995097764 482.360241296 530.995097764 519.67766953 493.67766953 c 128,-1,38
 556.995097764 456.360241296 556.995097764 456.360241296 556.995097764 404 c 128,-1,39
 556.995097764 351.639758704 556.995097764 351.639758704 520.67766953 315.32233047 c 128,-1,40
 484.360241296 279.004902236 484.360241296 279.004902236 431 279.004902236 c 128,-1,33
 377.639758704 279.004902236 377.639758704 279.004902236 341.32233047 315.32233047 c 128,-1,34
EndSplineSet
EndChar

StartChar: V
Encoding: 86 86 57
Width: 1844
Flags: W
LayerCount: 2
Fore
SplineSet
2471.82288567 897.069977765 m 0,0,1
 2505.79479526 897.069977765 2505.79479526 897.069977765 2525.39494651 877.469826511 c 128,-1,2
 2544.99509776 857.869675258 2544.99509776 857.869675258 2544.99509776 821.754716981 c 128,-1,3
 2544.99509776 785.639758704 2544.99509776 785.639758704 2524.67766953 765.32233047 c 128,-1,4
 2504.3602413 745.004902236 2504.3602413 745.004902236 2468 745.004902236 c 2,5,-1
 1670.99509776 745.004902236 l 1,6,-1
 1670.99509776 52 l 2,7,8
 1670.99509776 15.1299547826 1670.99509776 15.1299547826 1650.93257149 -4.93257149045 c 128,-1,9
 1630.87004522 -24.9950977635 1630.87004522 -24.9950977635 1596 -24.9950977635 c 0,10,11
 1563.48591255 -24.9950977635 1563.48591255 -24.9950977635 1541.24540739 -2.75459260659 c 128,-1,12
 1519.00490224 19.4859125503 1519.00490224 19.4859125503 1519.00490224 52 c 2,13,-1
 1519.00490224 745.004902236 l 1,14,-1
 916.995097764 745.004902236 l 1,15,-1
 916.995097764 -53.8845086617 l 1,16,-1
 1660.34561931 -391.236196539 l 2,17,18
 1674.00454477 -397.083988317 1674.00454477 -397.083988317 1684.01037274 -407.089816293 c 0,19,20
 1703.05248381 -426.131927363 1703.05248381 -426.131927363 1704.9460615 -456.429170345 c 0,21,22
 1704.99550619 -456.952442098 1704.99550619 -456.952442098 1704.99550619 -457.434564225 c 128,-1,23
 1704.99550619 -457.916686351 1704.99550619 -457.916686351 1704.99509776 -458 c 0,24,25
 1704.99509776 -490.360241296 1704.99509776 -490.360241296 1682.67766953 -512.67766953 c 128,-1,26
 1660.3602413 -534.995097764 1660.3602413 -534.995097764 1630 -534.995097764 c 0,27,28
 1612.40194494 -534.995097764 1612.40194494 -534.995097764 1599.29362462 -528.600114462 c 2,29,-1
 21.6560100326 187.235457173 l 2,30,31
 8.77458566678 192.750075274 8.77458566678 192.750075274 -0.730469529664 202.25513047 c 0,32,33
 -20.9950977635 222.519758704 -20.9950977635 222.519758704 -20.9950977635 257.44 c 128,-1,34
 -20.9950977635 292.360241296 -20.9950977635 292.360241296 -0.677669529664 312.67766953 c 128,-1,35
 19.6397587042 332.995097764 19.6397587042 332.995097764 56 332.995097764 c 0,36,37
 73.6092306474 332.995097764 73.6092306474 332.995097764 86.7230223645 326.591989658 c 2,38,-1
 767.004902236 16.8547091573 l 1,39,-1
 767.004902236 822 l 2,40,41
 767.004902236 828.941812699 767.004902236 828.941812699 770.5534459 834.856052138 c 2,42,-1
 785.5534459 859.856052138 l 2,43,44
 807.836873275 896.995097764 807.836873275 896.995097764 842 896.995097764 c 2,45,-1
 1515.18550009 896.995097764 l 1,46,47
 1504.52461871 999.763431581 1504.52461871 999.763431581 1464.10662161 1091.94482847 c 0,48,49
 1408.98589532 1217.65876562 1408.98589532 1217.65876562 1314.32233047 1312.32233047 c 128,-1,50
 1219.74298645 1406.90167449 1219.74298645 1406.90167449 1093.30081828 1460.95328836 c 128,-1,51
 966.858650111 1515.00490224 966.858650111 1515.00490224 827.018071878 1515.00490224 c 128,-1,52
 687.177493644 1515.00490224 687.177493644 1515.00490224 561.699650734 1460.95290837 c 0,53,54
 434.501445843 1406.15983549 434.501445843 1406.15983549 339.30841449 1310.9667891 c 128,-1,55
 244.115383137 1215.77374271 244.115383137 1215.77374271 187.55524045 1090.19105301 c 128,-1,56
 130.995097764 964.608363319 130.995097764 964.608363319 130.995097764 822 c 0,57,58
 130.995097764 785.129954783 130.995097764 785.129954783 110.93257149 765.06742851 c 128,-1,59
 90.8700452174 745.004902236 90.8700452174 745.004902236 55.2549019608 745.004902236 c 128,-1,60
 19.6397587042 745.004902236 19.6397587042 745.004902236 -0.677669529664 765.32233047 c 128,-1,61
 -20.9950977635 785.639758704 -20.9950977635 785.639758704 -20.9950977635 822 c 0,62,63
 -20.9950977635 997.237491848 -20.9950977635 997.237491848 45.9869183918 1150.78088273 c 128,-1,64
 112.968934547 1304.32427361 112.968934547 1304.32427361 228.32233047 1419.67766953 c 128,-1,65
 343.727206415 1535.08254547 343.727206415 1535.08254547 497.281661814 1601.03882162 c 128,-1,66
 650.836117213 1666.99509776 650.836117213 1666.99509776 822.874835195 1666.99509776 c 128,-1,67
 994.913553177 1666.99509776 994.913553177 1666.99509776 1144.3382307 1606.19471174 c 0,68,69
 1304.97966423 1540.83026637 1304.97966423 1540.83026637 1425.28462354 1420.52641172 c 0,70,71
 1527.80198891 1318.00904635 1527.80198891 1318.00904635 1591.78586781 1184.31138896 c 128,-1,72
 1655.7697467 1050.61373156 1655.7697467 1050.61373156 1669.20032059 896.995097764 c 1,73,-1
 2467.54187095 896.995097764 l 2,74,75
 2469.71060616 897.069977765 2469.71060616 897.069977765 2471.82288567 897.069977765 c 0,0,1
EndSplineSet
EndChar

StartChar: v
Encoding: 118 118 58
Width: 2670
Flags: W
LayerCount: 2
Fore
SplineSet
2471.82288567 897.069977765 m 0,0,1
 2505.79479526 897.069977765 2505.79479526 897.069977765 2525.39494651 877.469826511 c 128,-1,2
 2544.99509776 857.869675258 2544.99509776 857.869675258 2544.99509776 821.754716981 c 128,-1,3
 2544.99509776 785.639758704 2544.99509776 785.639758704 2524.67766953 765.32233047 c 128,-1,4
 2504.3602413 745.004902236 2504.3602413 745.004902236 2468 745.004902236 c 2,5,-1
 1670.99509776 745.004902236 l 1,6,-1
 1670.99509776 52 l 2,7,8
 1670.99509776 15.1299547826 1670.99509776 15.1299547826 1650.93257149 -4.93257149045 c 128,-1,9
 1630.87004522 -24.9950977635 1630.87004522 -24.9950977635 1596 -24.9950977635 c 0,10,11
 1563.48591255 -24.9950977635 1563.48591255 -24.9950977635 1541.24540739 -2.75459260659 c 128,-1,12
 1519.00490224 19.4859125503 1519.00490224 19.4859125503 1519.00490224 52 c 2,13,-1
 1519.00490224 745.004902236 l 1,14,-1
 916.995097764 745.004902236 l 1,15,-1
 916.995097764 -53.8845086617 l 1,16,-1
 1660.34561931 -391.236196539 l 2,17,18
 1674.00454477 -397.083988317 1674.00454477 -397.083988317 1684.01037274 -407.089816293 c 0,19,20
 1703.05248381 -426.131927363 1703.05248381 -426.131927363 1704.9460615 -456.429170345 c 0,21,22
 1704.99550619 -456.952442098 1704.99550619 -456.952442098 1704.99550619 -457.434564225 c 128,-1,23
 1704.99550619 -457.916686351 1704.99550619 -457.916686351 1704.99509776 -458 c 0,24,25
 1704.99509776 -490.360241296 1704.99509776 -490.360241296 1682.67766953 -512.67766953 c 128,-1,26
 1660.3602413 -534.995097764 1660.3602413 -534.995097764 1630 -534.995097764 c 0,27,28
 1612.40194494 -534.995097764 1612.40194494 -534.995097764 1599.29362462 -528.600114462 c 2,29,-1
 21.6560100326 187.235457173 l 2,30,31
 8.77458566678 192.750075274 8.77458566678 192.750075274 -0.730469529664 202.25513047 c 0,32,33
 -20.9950977635 222.519758704 -20.9950977635 222.519758704 -20.9950977635 257.44 c 128,-1,34
 -20.9950977635 292.360241296 -20.9950977635 292.360241296 -0.677669529664 312.67766953 c 128,-1,35
 19.6397587042 332.995097764 19.6397587042 332.995097764 56 332.995097764 c 0,36,37
 73.6092306474 332.995097764 73.6092306474 332.995097764 86.7230223645 326.591989658 c 2,38,-1
 767.004902236 16.8547091573 l 1,39,-1
 767.004902236 822 l 2,40,41
 767.004902236 828.941812699 767.004902236 828.941812699 770.5534459 834.856052138 c 2,42,-1
 785.5534459 859.856052138 l 2,43,44
 807.836873275 896.995097764 807.836873275 896.995097764 842 896.995097764 c 2,45,-1
 1515.18550009 896.995097764 l 1,46,47
 1504.52461871 999.763431581 1504.52461871 999.763431581 1464.10662161 1091.94482847 c 0,48,49
 1408.98589532 1217.65876562 1408.98589532 1217.65876562 1314.32233047 1312.32233047 c 128,-1,50
 1219.74298645 1406.90167449 1219.74298645 1406.90167449 1093.30081828 1460.95328836 c 128,-1,51
 966.858650111 1515.00490224 966.858650111 1515.00490224 827.018071878 1515.00490224 c 128,-1,52
 687.177493644 1515.00490224 687.177493644 1515.00490224 561.699650734 1460.95290837 c 0,53,54
 434.501445843 1406.15983549 434.501445843 1406.15983549 339.30841449 1310.9667891 c 128,-1,55
 244.115383137 1215.77374271 244.115383137 1215.77374271 187.55524045 1090.19105301 c 128,-1,56
 130.995097764 964.608363319 130.995097764 964.608363319 130.995097764 822 c 0,57,58
 130.995097764 785.129954783 130.995097764 785.129954783 110.93257149 765.06742851 c 128,-1,59
 90.8700452174 745.004902236 90.8700452174 745.004902236 55.2549019608 745.004902236 c 128,-1,60
 19.6397587042 745.004902236 19.6397587042 745.004902236 -0.677669529664 765.32233047 c 128,-1,61
 -20.9950977635 785.639758704 -20.9950977635 785.639758704 -20.9950977635 822 c 0,62,63
 -20.9950977635 997.237491848 -20.9950977635 997.237491848 45.9869183918 1150.78088273 c 128,-1,64
 112.968934547 1304.32427361 112.968934547 1304.32427361 228.32233047 1419.67766953 c 128,-1,65
 343.727206415 1535.08254547 343.727206415 1535.08254547 497.281661814 1601.03882162 c 128,-1,66
 650.836117213 1666.99509776 650.836117213 1666.99509776 822.874835195 1666.99509776 c 128,-1,67
 994.913553177 1666.99509776 994.913553177 1666.99509776 1144.3382307 1606.19471174 c 0,68,69
 1304.97966423 1540.83026637 1304.97966423 1540.83026637 1425.28462354 1420.52641172 c 0,70,71
 1527.80198891 1318.00904635 1527.80198891 1318.00904635 1591.78586781 1184.31138896 c 128,-1,72
 1655.7697467 1050.61373156 1655.7697467 1050.61373156 1669.20032059 896.995097764 c 1,73,-1
 2467.54187095 896.995097764 l 2,74,75
 2469.71060616 897.069977765 2469.71060616 897.069977765 2471.82288567 897.069977765 c 0,0,1
EndSplineSet
EndChar
